<?xml version="1.0" encoding="UTF-8"?>
<!DOCTYPE svg PUBLIC "-//W3C//DTD SVG 1.1//EN" "http://www.w3.org/Graphics/SVG/1.1/DTD/svg11.dtd">
<svg xmlns="http://www.w3.org/2000/svg" version="1.1" width="264px" height="208px" style="shape-rendering:geometricPrecision; text-rendering:geometricPrecision; image-rendering:optimizeQuality; fill-rule:evenodd; clip-rule:evenodd" xmlns:xlink="http://www.w3.org/1999/xlink">
<g><path style="opacity:1" fill="#fefefe" d="M -0.5,-0.5 C 87.5,-0.5 175.5,-0.5 263.5,-0.5C 263.5,68.8333 263.5,138.167 263.5,207.5C 175.5,207.5 87.5,207.5 -0.5,207.5C -0.5,138.167 -0.5,68.8333 -0.5,-0.5 Z"/></g>
<g><path style="opacity:1" fill="#4b3b83" d="M 57.5,60.5 C 56.5,60.5 55.5,60.5 54.5,60.5C 54.5,59.5 54.5,58.5 54.5,57.5C 55.5,57.5 56.5,57.5 57.5,57.5C 57.5,58.5 57.5,59.5 57.5,60.5 Z"/></g>
<g><path style="opacity:1" fill="#473780" d="M 169.5,60.5 C 169.5,59.5 169.5,58.5 169.5,57.5C 170.5,57.5 171.5,57.5 172.5,57.5C 172.5,58.5 172.5,59.5 172.5,60.5C 171.5,60.5 170.5,60.5 169.5,60.5 Z"/></g>
<g><path style="opacity:1" fill="#7a6da3" d="M 99.5,60.5 C 98.7611,60.369 98.0944,60.5357 97.5,61C 99.5,63 101.5,65 103.5,67C 105.488,67.1805 107.488,67.0138 109.5,66.5C 107.034,69.0306 104.034,69.8639 100.5,69C 101.167,68.6667 101.833,68.3333 102.5,68C 100.167,65.6667 97.8333,63.3333 95.5,61C 93.3901,61.3466 91.3901,61.1799 89.5,60.5C 90.9974,59.3957 92.664,58.3957 94.5,57.5C 96.336,58.3957 98.0026,59.3957 99.5,60.5 Z"/></g>
<g><path style="opacity:1" fill="#e7e4ef" d="M 146.5,63.5 C 149.785,63.9281 152.785,64.9281 155.5,66.5C 157.261,67.3127 158.928,68.3127 160.5,69.5C 158.5,72.1667 156.167,74.5 153.5,76.5C 151.821,76.2852 150.821,76.9519 150.5,78.5C 142.43,75.4794 134.43,72.4794 126.5,69.5C 126.082,68.7784 125.416,68.2784 124.5,68C 127.016,65.3167 129.683,62.8167 132.5,60.5C 137.088,61.0084 141.755,62.0084 146.5,63.5 Z"/></g>
<g><path style="opacity:1" fill="#3c2c79" d="M 204.5,130.5 C 203.677,122.529 203.344,114.529 203.5,106.5C 199.029,105.911 195.029,106.577 191.5,108.5C 191.5,109.5 191.5,110.5 191.5,111.5C 191.5,112.833 191.5,114.167 191.5,115.5C 190.5,115.833 189.833,116.5 189.5,117.5C 188.226,116.811 188.226,115.977 189.5,115C 186.236,111.227 182.57,108.06 178.5,105.5C 176.332,101.988 173.332,99.6547 169.5,98.5C 169.5,97.5 169.5,96.5 169.5,95.5C 171.308,95.5086 172.975,95.0086 174.5,94C 179.397,89.2713 184.064,84.438 188.5,79.5C 189.5,79.1667 190.167,78.5 190.5,77.5C 195.163,72.0036 200.33,67.0036 206,62.5C 207.009,60.9751 207.509,59.3084 207.5,57.5C 208.5,57.5 209.5,57.5 210.5,57.5C 210.351,58.552 210.517,59.552 211,60.5C 222.5,72 234,83.5 245.5,95C 246.448,95.4828 247.448,95.6495 248.5,95.5C 248.5,96.5 248.5,97.5 248.5,98.5C 247.448,98.3505 246.448,98.5172 245.5,99C 234,110.5 222.5,122 211,133.5C 210.517,134.448 210.351,135.448 210.5,136.5C 209.5,136.5 208.5,136.5 207.5,136.5C 207.385,134.053 206.385,132.053 204.5,130.5 Z"/></g>
<g><path style="opacity:1" fill="#fcfcfd" d="M 99.5,60.5 C 102.797,62.6013 106.463,63.9347 110.5,64.5C 110.167,65.1667 109.833,65.8333 109.5,66.5C 107.488,67.0138 105.488,67.1805 103.5,67C 101.5,65 99.5,63 97.5,61C 98.0944,60.5357 98.7611,60.369 99.5,60.5 Z"/></g>
<g><path style="opacity:1" fill="#867aac" d="M 99.5,60.5 C 103.537,61.0653 107.203,62.3987 110.5,64.5C 106.463,63.9347 102.797,62.6013 99.5,60.5 Z"/></g>
<g><path style="opacity:1" fill="#7d6fa5" d="M 124.5,60.5 C 126.379,60.3932 126.712,60.8932 125.5,62C 124.167,62.6667 122.833,62.6667 121.5,62C 122.737,61.7679 123.737,61.2679 124.5,60.5 Z"/></g>
<g><path style="opacity:1" fill="#8074a7" d="M 146.5,63.5 C 141.755,62.0084 137.088,61.0084 132.5,60.5C 129.683,62.8167 127.016,65.3167 124.5,68C 125.416,68.2784 126.082,68.7784 126.5,69.5C 122.147,70.3186 118.647,72.652 116,76.5C 115.517,77.448 115.351,78.448 115.5,79.5C 114.596,78.791 114.263,77.791 114.5,76.5C 116.628,73.8697 118.961,71.3697 121.5,69C 117.781,66.3609 113.781,65.5276 109.5,66.5C 109.833,65.8333 110.167,65.1667 110.5,64.5C 113.214,64.25 115.881,64.0833 118.5,64C 117.833,64.3333 117.167,64.6667 116.5,65C 118.459,65.9309 120.459,66.7643 122.5,67.5C 124.984,65.517 127.317,63.3504 129.5,61C 128.833,60.6667 128.167,60.3333 127.5,60C 129.067,58.9242 130.734,58.0909 132.5,57.5C 137.31,59.3202 141.976,61.3202 146.5,63.5 Z"/></g>
<g><path style="opacity:1" fill="#73669f" d="M 169.5,60.5 C 167.372,63.1303 165.039,65.6303 162.5,68C 163.416,68.2784 164.082,68.7784 164.5,69.5C 163.167,69.5 161.833,69.5 160.5,69.5C 158.928,68.3127 157.261,67.3127 155.5,66.5C 157.262,66.3573 158.929,66.6906 160.5,67.5C 163.252,64.7366 166.252,62.4033 169.5,60.5 Z"/></g>
<g><path style="opacity:1" fill="#f7f6f9" d="M 54.5,60.5 C 55.5,60.5 56.5,60.5 57.5,60.5C 59.6281,63.1303 61.9614,65.6303 64.5,68C 61.7558,68.8035 59.0891,69.8035 56.5,71C 59.7935,70.4622 63.1268,70.1289 66.5,70C 75.0793,78.5091 75.4126,78.1757 67.5,69C 68.056,68.6174 68.3893,68.1174 68.5,67.5C 75.2161,64.5946 82.2161,62.2613 89.5,60.5C 91.3901,61.1799 93.3901,61.3466 95.5,61C 97.8333,63.3333 100.167,65.6667 102.5,68C 101.833,68.3333 101.167,68.6667 100.5,69C 104.034,69.8639 107.034,69.0306 109.5,66.5C 113.781,65.5276 117.781,66.3609 121.5,69C 118.961,71.3697 116.628,73.8697 114.5,76.5C 113.833,76.5 113.167,76.5 112.5,76.5C 111.781,74.6827 110.781,74.0161 109.5,74.5C 110.95,75.8498 111.617,77.5165 111.5,79.5C 106.188,85.479 100.521,91.1457 94.5,96.5C 88.4796,90.8117 82.4796,85.1451 76.5,79.5C 77.9746,77.5905 79.9746,76.4238 82.5,76C 81.2625,75.7679 80.2625,75.2679 79.5,74.5C 83.7019,71.4838 86.8685,67.8172 89,63.5C 85.2961,67.0357 81.7961,70.7024 78.5,74.5C 75.5964,75.6144 73.5964,77.6144 72.5,80.5C 67.521,86.1457 62.1877,91.479 56.5,96.5C 50.1667,90.8333 44.1667,84.8333 38.5,78.5C 39.376,77.7492 40.376,77.2492 41.5,77C 40.5842,76.7216 39.9175,76.2216 39.5,75.5C 44.8063,70.8604 49.8063,65.8604 54.5,60.5 Z"/></g>
<g><path style="opacity:1" fill="#b4adcc" d="M 79.5,74.5 C 79.1667,74.5 78.8333,74.5 78.5,74.5C 81.7961,70.7024 85.2961,67.0357 89,63.5C 86.8685,67.8172 83.7019,71.4838 79.5,74.5 Z"/></g>
<g><path style="opacity:1" fill="#887dad" d="M 57.5,60.5 C 60.5628,62.0512 63.2295,64.2179 65.5,67C 66.448,67.4828 67.448,67.6495 68.5,67.5C 68.3893,68.1174 68.056,68.6174 67.5,69C 75.4126,78.1757 75.0793,78.5091 66.5,70C 63.1268,70.1289 59.7935,70.4622 56.5,71C 59.0891,69.8035 61.7558,68.8035 64.5,68C 61.9614,65.6303 59.6281,63.1303 57.5,60.5 Z"/></g>
<g><path style="opacity:1" fill="#fcfcfd" d="M 126.5,69.5 C 134.43,72.4794 142.43,75.4794 150.5,78.5C 144.854,84.8123 138.854,90.8123 132.5,96.5C 126.479,91.1457 120.812,85.479 115.5,79.5C 115.351,78.448 115.517,77.448 116,76.5C 118.647,72.652 122.147,70.3186 126.5,69.5 Z"/></g>
<g><path style="opacity:1" fill="#776aa1" d="M 164.5,69.5 C 173.697,71.6853 182.363,74.352 190.5,77.5C 190.167,78.5 189.5,79.1667 188.5,79.5C 188.53,78.5028 188.03,77.8361 187,77.5C 179.288,75.0984 171.788,72.4317 164.5,69.5 Z"/></g>
<g><path style="opacity:1" fill="#7e71a6" d="M 88.5,72.5 C 90.3474,72.2342 91.014,72.5675 90.5,73.5C 88.9017,74.4847 87.235,74.6514 85.5,74C 86.7375,73.7679 87.7375,73.2679 88.5,72.5 Z"/></g>
<g><path style="opacity:1" fill="#7c6ea4" d="M 78.5,74.5 C 78.8333,74.5 79.1667,74.5 79.5,74.5C 80.2625,75.2679 81.2625,75.7679 82.5,76C 79.9746,76.4238 77.9746,77.5905 76.5,79.5C 75.4324,80.4345 74.099,80.7678 72.5,80.5C 73.5964,77.6144 75.5964,75.6144 78.5,74.5 Z"/></g>
<g><path style="opacity:1" fill="#aea7c7" d="M 112.5,76.5 C 112.737,77.791 112.404,78.791 111.5,79.5C 111.617,77.5165 110.95,75.8498 109.5,74.5C 110.781,74.0161 111.781,74.6827 112.5,76.5 Z"/></g>
<g><path style="opacity:1" fill="#3d2d7a" d="M 39.5,75.5 C 39.9175,76.2216 40.5842,76.7216 41.5,77C 40.376,77.2492 39.376,77.7492 38.5,78.5C 44.1667,84.8333 50.1667,90.8333 56.5,96.5C 62.1877,91.479 67.521,86.1457 72.5,80.5C 74.099,80.7678 75.4324,80.4345 76.5,79.5C 82.4796,85.1451 88.4796,90.8117 94.5,96.5C 100.521,91.1457 106.188,85.479 111.5,79.5C 112.404,78.791 112.737,77.791 112.5,76.5C 113.167,76.5 113.833,76.5 114.5,76.5C 114.263,77.791 114.596,78.791 115.5,79.5C 120.812,85.479 126.479,91.1457 132.5,96.5C 138.854,90.8123 144.854,84.8123 150.5,78.5C 150.821,76.9519 151.821,76.2852 153.5,76.5C 153.343,77.8734 153.51,79.2068 154,80.5C 159.628,85.4513 164.462,90.9513 168.5,97C 163.959,103.55 158.626,109.55 152.5,115C 153.609,116.813 152.942,117.646 150.5,117.5C 150.5,116.833 150.5,116.167 150.5,115.5C 144.854,109.188 138.854,103.188 132.5,97.5C 126.813,102.855 121.146,108.188 115.5,113.5C 114.041,113.433 112.708,113.766 111.5,114.5C 106.188,108.521 100.521,102.854 94.5,97.5C 88.1457,103.188 82.1457,109.188 76.5,115.5C 76.1788,117.048 75.1788,117.715 73.5,117.5C 73.6567,116.127 73.49,114.793 73,113.5C 67.652,107.985 62.152,102.652 56.5,97.5C 49.7534,103.243 43.7534,109.577 38.5,116.5C 38.5,116.833 38.5,117.167 38.5,117.5C 37.5,117.5 36.5,117.5 35.5,117.5C 35.5086,115.692 35.0086,114.025 34,112.5C 29.5,108 25,103.5 20.5,99C 19.2068,98.51 17.8734,98.3433 16.5,98.5C 16.5,97.5 16.5,96.5 16.5,95.5C 18.3084,95.5086 19.9751,95.0086 21.5,94C 25.6667,89.8333 29.8333,85.6667 34,81.5C 35.0086,79.9751 35.5086,78.3084 35.5,76.5C 36.9587,76.5674 38.2921,76.2341 39.5,75.5 Z"/></g>
<g><path style="opacity:1" fill="#6e629b" d="M 192.5,86.5 C 192.5,92.5 192.5,98.5 192.5,104.5C 193.833,104.5 195.167,104.5 196.5,104.5C 196.335,100.818 196.501,97.1516 197,93.5C 197.608,95.1545 198.108,96.8211 198.5,98.5C 197.532,100.607 197.198,102.941 197.5,105.5C 195.5,105.5 193.5,105.5 191.5,105.5C 191.177,98.9779 191.51,92.6446 192.5,86.5 Z"/></g>
<g><path style="opacity:1" fill="#f9f8fb" d="M 192.5,86.5 C 194.5,86.5 196.5,86.5 198.5,86.5C 200.941,100.197 203.774,100.531 207,87.5C 208.699,86.5939 210.533,86.2606 212.5,86.5C 212.5,92.5 212.5,98.5 212.5,104.5C 211.167,104.5 209.833,104.5 208.5,104.5C 208.665,101.15 208.498,97.8168 208,94.5C 206.991,98.4324 205.157,101.766 202.5,104.5C 200.263,103.157 198.93,101.157 198.5,98.5C 198.108,96.8211 197.608,95.1545 197,93.5C 196.501,97.1516 196.335,100.818 196.5,104.5C 195.167,104.5 193.833,104.5 192.5,104.5C 192.5,98.5 192.5,92.5 192.5,86.5 Z"/></g>
<g><path style="opacity:1" fill="#938ab5" d="M 212.5,86.5 C 213.49,92.6446 213.823,98.9779 213.5,105.5C 211.585,105.784 209.919,105.451 208.5,104.5C 209.833,104.5 211.167,104.5 212.5,104.5C 212.5,98.5 212.5,92.5 212.5,86.5 Z"/></g>
<g><path style="opacity:1" fill="#f5f4f8" d="M 216.5,86.5 C 217.833,86.5 219.167,86.5 220.5,86.5C 220.5,91.5 220.5,96.5 220.5,101.5C 222.833,101.5 225.167,101.5 227.5,101.5C 227.5,102.5 227.5,103.5 227.5,104.5C 223.833,104.5 220.167,104.5 216.5,104.5C 216.5,98.5 216.5,92.5 216.5,86.5 Z"/></g>
<g><path style="opacity:1" fill="#948bb5" d="M 216.5,86.5 C 217.919,85.5489 219.585,85.2155 221.5,85.5C 221.5,90.5 221.5,95.5 221.5,100.5C 223.735,100.205 225.735,100.539 227.5,101.5C 225.167,101.5 222.833,101.5 220.5,101.5C 220.5,96.5 220.5,91.5 220.5,86.5C 219.167,86.5 217.833,86.5 216.5,86.5 Z"/></g>
<g><path style="opacity:1" fill="#f6f6f9" d="M 112.5,90.5 C 113.309,91.4687 114.309,92.3021 115.5,93C 112.833,95 112.833,97 115.5,99C 114.251,99.7401 113.251,99.5735 112.5,98.5C 112.031,95.6613 112.031,92.9946 112.5,90.5 Z"/></g>
<g><path style="opacity:1" fill="#fafafb" d="M 37.5,98.5 C 38.7279,96.9902 38.7279,95.4902 37.5,94C 38,93.5 38.5,93 39,92.5C 39.6667,94.8333 39.6667,97.1667 39,99.5C 38.6174,98.944 38.1174,98.6107 37.5,98.5 Z"/></g>
<g><path style="opacity:1" fill="#dedbe9" d="M 76.5,98.5 C 75.4151,100.582 73.9151,100.916 72,99.5C 71.3333,97.1667 71.3333,94.8333 72,92.5C 72.3333,94.1667 72.6667,95.8333 73,97.5C 74.0113,98.3366 75.1779,98.67 76.5,98.5 Z"/></g>
<g><path style="opacity:1" fill="#e4e1ec" d="M 76.5,98.5 C 76.2011,96.396 76.5344,94.396 77.5,92.5C 78.6474,94.7649 78.8141,97.0982 78,99.5C 77.6174,98.944 77.1174,98.6107 76.5,98.5 Z"/></g>
<g><path style="opacity:1" fill="#968db7" d="M 112.5,90.5 C 112.031,92.9946 112.031,95.6613 112.5,98.5C 111.62,96.8632 110.954,95.0299 110.5,93C 110.639,91.699 111.305,90.8656 112.5,90.5 Z"/></g>
<g><path style="opacity:1" fill="#e5e2ed" d="M 149.5,92.5 C 155.704,92.3137 157.037,94.8137 153.5,100C 148.632,99.7108 147.299,97.2108 149.5,92.5 Z"/></g>
<g><path style="opacity:1" fill="#e4e2ec" d="M 37.5,98.5 C 35.9652,99.7879 34.2985,99.7879 32.5,98.5C 30.9642,94.539 32.2975,92.7057 36.5,93C 33.6537,93.8793 32.987,95.5459 34.5,98C 35.448,98.4828 36.448,98.6495 37.5,98.5 Z"/></g>
<g><path style="opacity:1" fill="#4e3e85" d="M 150.5,93.5 C 154.161,93.3501 155.161,94.8501 153.5,98C 149.707,98.4866 148.707,96.9866 150.5,93.5 Z"/></g>
<g><path style="opacity:1" fill="#6f619b" d="M 115.5,113.5 C 115.5,114.833 115.5,116.167 115.5,117.5C 114.178,117.33 113.011,117.663 112,118.5C 111.51,117.207 111.343,115.873 111.5,114.5C 112.708,113.766 114.041,113.433 115.5,113.5 Z"/></g>
<g><path style="opacity:1" fill="#cecade" d="M 191.5,111.5 C 193.5,111.5 195.5,111.5 197.5,111.5C 199.143,122.237 197.143,123.571 191.5,115.5C 191.5,114.167 191.5,112.833 191.5,111.5 Z"/></g>
<g><path style="opacity:1" fill="#867cac" d="M 191.5,108.5 C 194.833,108.5 198.167,108.5 201.5,108.5C 202.139,115.148 202.473,121.814 202.5,128.5C 198.441,124.435 194.107,120.768 189.5,117.5C 189.833,116.5 190.5,115.833 191.5,115.5C 197.143,123.571 199.143,122.237 197.5,111.5C 195.5,111.5 193.5,111.5 191.5,111.5C 191.5,110.5 191.5,109.5 191.5,108.5 Z"/></g>
<g><path style="opacity:1" fill="#a59bc1" d="M 38.5,116.5 C 40.1789,116.892 41.8455,117.392 43.5,118C 41.3045,119.608 39.6378,119.441 38.5,117.5C 38.5,117.167 38.5,116.833 38.5,116.5 Z"/></g>
<g><path style="opacity:1" fill="#9389b5" d="M 76.5,115.5 C 78.5739,116.514 80.5739,117.514 82.5,118.5C 80.901,118.232 79.5676,118.566 78.5,119.5C 76.9317,118.527 75.265,118.36 73.5,119C 67.5656,124.428 62.2323,130.261 57.5,136.5C 57.5,135.5 57.5,134.5 57.5,133.5C 62.5,127.833 67.8333,122.5 73.5,117.5C 75.1788,117.715 76.1788,117.048 76.5,115.5 Z"/></g>
<g><path style="opacity:1" fill="#e4e1ec" d="M 82.5,118.5 C 88.784,119.928 94.784,121.928 100.5,124.5C 100.918,125.222 101.584,125.722 102.5,126C 101.748,126.671 101.414,127.504 101.5,128.5C 100.71,129.794 99.7101,130.961 98.5,132C 99.0944,132.464 99.7611,132.631 100.5,132.5C 100.5,132.833 100.5,133.167 100.5,133.5C 100.5,134.167 100.167,134.5 99.5,134.5C 98.1584,132.486 96.4917,132.153 94.5,133.5C 93.1331,132.775 91.7997,132.108 90.5,131.5C 86.1667,127.833 82.1667,123.833 78.5,119.5C 79.5676,118.566 80.901,118.232 82.5,118.5 Z"/></g>
<g><path style="opacity:1" fill="#9086b3" d="M 178.5,105.5 C 182.57,108.06 186.236,111.227 189.5,115C 188.226,115.977 188.226,116.811 189.5,117.5C 184.167,123.5 178.5,129.167 172.5,134.5C 171.833,134.5 171.5,134.167 171.5,133.5C 176.631,128.87 181.631,124.037 186.5,119C 184.203,118.982 181.869,119.149 179.5,119.5C 182.185,118.372 184.852,117.038 187.5,115.5C 184.478,112.147 181.478,108.813 178.5,105.5 Z"/></g>
<g><path style="opacity:1" fill="#fefefe" d="M 171.5,133.5 C 170.833,133.5 170.167,133.5 169.5,133.5C 167.167,130.833 164.833,128.167 162.5,125.5C 168.532,124.269 174.199,122.269 179.5,119.5C 181.869,119.149 184.203,118.982 186.5,119C 181.631,124.037 176.631,128.87 171.5,133.5 Z"/></g>
<g><path style="opacity:1" fill="#655895" d="M 204.5,130.5 C 203.5,130.167 202.833,129.5 202.5,128.5C 202.473,121.814 202.139,115.148 201.5,108.5C 198.167,108.5 194.833,108.5 191.5,108.5C 195.029,106.577 199.029,105.911 203.5,106.5C 203.344,114.529 203.677,122.529 204.5,130.5 Z"/></g>
<g><path style="opacity:1" fill="#c2bdd5" d="M 150.5,115.5 C 150.5,116.167 150.5,116.833 150.5,117.5C 147.19,122.982 142.857,127.148 137.5,130C 141.016,126.651 144.349,123.151 147.5,119.5C 147.167,119.167 146.833,118.833 146.5,118.5C 142.284,120.41 137.95,121.577 133.5,122C 139.234,119.923 144.901,117.757 150.5,115.5 Z"/></g>
<g><path style="opacity:1" fill="#9287b4" d="M 179.5,119.5 C 174.199,122.269 168.532,124.269 162.5,125.5C 167.801,122.731 173.468,120.731 179.5,119.5 Z"/></g>
<g><path style="opacity:1" fill="#7f73a7" d="M 100.5,124.5 C 107.836,124.798 108.17,126.132 101.5,128.5C 101.414,127.504 101.748,126.671 102.5,126C 101.584,125.722 100.918,125.222 100.5,124.5 Z"/></g>
<g><path style="opacity:1" fill="#7769a1" d="M 123.5,124.5 C 123.5,125.167 123.5,125.833 123.5,126.5C 121.565,127.15 119.565,127.483 117.5,127.5C 122.105,126.403 122.438,124.57 118.5,122C 120.435,122.058 122.102,122.891 123.5,124.5 Z"/></g>
<g><path style="opacity:1" fill="#fefefe" d="M 123.5,126.5 C 125.294,128.797 127.294,130.963 129.5,133C 128.906,133.464 128.239,133.631 127.5,133.5C 123.784,131.595 119.784,130.261 115.5,129.5C 116.167,128.833 116.833,128.167 117.5,127.5C 119.565,127.483 121.565,127.15 123.5,126.5 Z"/></g>
<g><path style="opacity:1" fill="#615292" d="M 162.5,125.5 C 164.833,128.167 167.167,130.833 169.5,133.5C 165.985,130.826 162.319,128.326 158.5,126C 159.126,125.25 159.626,124.416 160,123.5C 160.708,124.381 161.542,125.047 162.5,125.5 Z"/></g>
<g><path style="opacity:1" fill="#887aac" d="M 68.5,127.5 C 70.0894,126.379 71.7561,126.546 73.5,128C 71.8034,128.384 70.1368,128.218 68.5,127.5 Z"/></g>
<g><path style="opacity:1" fill="#5b4d8e" d="M 117.5,127.5 C 116.833,128.167 116.167,128.833 115.5,129.5C 114.167,129.5 112.833,129.5 111.5,129.5C 111.082,128.778 110.416,128.278 109.5,128C 112.171,128.806 114.838,128.639 117.5,127.5 Z"/></g>
<g><path style="opacity:1" fill="#a79fc3" d="M 152.5,127.5 C 155.598,127.413 155.932,127.913 153.5,129C 151.246,130.15 148.913,130.484 146.5,130C 148.723,129.434 150.723,128.6 152.5,127.5 Z"/></g>
<g><path style="opacity:1" fill="#9e94bc" d="M 74.5,129.5 C 74.7352,128.903 75.2352,128.57 76,128.5C 78.5,129.333 81,130.167 83.5,131C 80.4057,131.251 77.4057,130.751 74.5,129.5 Z"/></g>
<g><path style="opacity:1" fill="#877aac" d="M 111.5,129.5 C 108.203,131.601 104.537,132.935 100.5,133.5C 100.5,133.167 100.5,132.833 100.5,132.5C 104.11,131.297 107.777,130.297 111.5,129.5 Z"/></g>
<g><path style="opacity:1" fill="#9489b5" d="M 123.5,124.5 C 125.128,126.689 127.795,129.522 131.5,133C 135.385,133.465 139.385,133.131 143.5,132C 139.754,133.413 136.087,134.913 132.5,136.5C 130.664,135.604 128.997,134.604 127.5,133.5C 128.239,133.631 128.906,133.464 129.5,133C 127.294,130.963 125.294,128.797 123.5,126.5C 123.5,125.833 123.5,125.167 123.5,124.5 Z"/></g>
<g><path style="opacity:1" fill="#493982" d="M 57.5,133.5 C 57.5,134.5 57.5,135.5 57.5,136.5C 53.69,135.754 53.69,134.754 57.5,133.5 Z"/></g>
<g><path style="opacity:1" fill="#8376a9" d="M 90.5,131.5 C 91.7997,132.108 93.1331,132.775 94.5,133.5C 96.4917,132.153 98.1584,132.486 99.5,134.5C 97.4287,136.1 95.0953,136.6 92.5,136C 91.6721,135.085 90.6721,134.419 89.5,134C 91.6192,133.658 91.9526,132.825 90.5,131.5 Z"/></g>
<g><path style="opacity:1" fill="#43337e" d="M 169.5,133.5 C 170.167,133.5 170.833,133.5 171.5,133.5C 171.5,134.167 171.833,134.5 172.5,134.5C 172.179,136.048 171.179,136.715 169.5,136.5C 169.5,135.5 169.5,134.5 169.5,133.5 Z"/></g>
</svg>
