<svg xmlns="http://www.w3.org/2000/svg" width="1024" height="1024" viewBox="0 0 1024 1024" version="1.1"><path d="M 466.500 538.680 C 390.788 539.878, 296.938 545.910, 220 554.523 C 183.984 558.554, 140.946 564.351, 141.745 565.063 C 142.509 565.743, 185.322 571.427, 216.500 574.987 C 326.656 587.565, 458.088 593.635, 562 590.944 C 585.925 590.324, 606.288 589.762, 607.250 589.694 C 608.866 589.581, 609 587.678, 609 564.797 L 609 540.022 606.750 540.062 C 605.513 540.084, 588.525 539.651, 569 539.098 C 536.505 538.179, 505.996 538.055, 466.500 538.680" stroke="none" fill="#499ada" fill-rule="evenodd"/><path d="M 485.775 8.975 C 411.528 13.353, 339.109 33.144, 278.027 65.750 C 137.557 140.732, 41.631 272.925, 15.522 427.500 C 7.318 476.075, 6.303 526.940, 12.561 576 C 23.232 659.667, 56.357 741.508, 107.474 810.500 C 122.277 830.479, 136.043 846.247, 156.398 866.540 C 188.969 899.012, 217.334 921.159, 255.997 944.306 C 271.401 953.529, 310.174 972.505, 327.500 979.301 C 368.785 995.496, 414.655 1006.617, 461 1011.669 C 473.679 1013.051, 485.373 1013.460, 511.500 1013.435 C 547.848 1013.401, 561.528 1012.383, 592 1007.447 C 803.696 973.151, 971.561 806.152, 1006.994 594.593 C 1018.462 526.118, 1015.699 455.970, 998.886 388.723 C 990.329 354.497, 979.281 324.660, 962.514 290.500 C 936.522 237.543, 908.748 198.735, 866.540 156.398 C 825.252 114.983, 783.875 85.217, 732.500 59.971 C 675.129 31.779, 615.865 15.388, 552 10.051 C 534.705 8.606, 501.248 8.062, 485.775 8.975 M 475 15.140 C 410.695 19.938, 348.348 37.043, 291 65.622 C 239.940 91.067, 200.531 119.437, 159.942 159.968 C 119.651 200.203, 91.109 239.854, 65.622 291 C 31.299 359.875, 14.008 433.743, 14.008 511.500 C 14.008 686.436, 105.755 847.700, 256.868 938.375 C 364.529 1002.976, 494.521 1024.011, 618.401 996.877 C 730.227 972.384, 832.718 907.539, 903.499 816.500 C 990.087 705.130, 1025.055 564.766, 1000.956 425.294 C 990.931 367.272, 968.488 306.806, 938.492 257 C 853.533 115.934, 709.171 27.050, 545.500 15.036 C 529.248 13.843, 491.640 13.898, 475 15.140 M 514.907 31.328 C 508.300 34.817, 504.825 41.053, 504.218 50.507 C 503.576 60.502, 505.255 66.195, 510.427 71.558 C 520.765 82.278, 539.068 77.835, 544.113 63.381 C 544.858 61.246, 545.449 56.125, 545.425 52 C 545.378 43.905, 543.381 38.539, 538.834 34.298 C 532.799 28.668, 522.389 27.376, 514.907 31.328 M 453.305 32.907 C 446.047 33.815, 439.876 34.790, 439.592 35.075 C 438.854 35.812, 444.117 79.318, 445.072 80.382 C 445.766 81.155, 453.903 80.484, 469.750 78.346 C 474.198 77.746, 474.807 76.606, 473.426 71.464 C 472.897 69.496, 472.563 69.466, 463.342 70.543 C 456.538 71.338, 453.714 71.348, 453.488 70.578 C 453.313 69.985, 452.920 67.397, 452.615 64.826 L 452.059 60.153 458.780 59.505 C 467.702 58.646, 468.002 58.508, 467.985 55.281 C 467.956 50.149, 467.039 49.695, 458.879 50.772 C 454.820 51.308, 451.445 51.691, 451.378 51.623 C 451.311 51.555, 450.952 49.403, 450.580 46.840 C 449.805 41.494, 449.478 41.673, 462.350 40.415 L 469.199 39.746 468.600 36.748 C 468.270 35.099, 468 33.131, 468 32.375 C 468 31.619, 467.663 31.058, 467.250 31.128 C 466.837 31.199, 460.562 31.999, 453.305 32.907 M 562.536 33.267 C 561.705 35.907, 556.640 77.973, 557.098 78.431 C 557.365 78.698, 559.586 79.048, 562.033 79.208 L 566.482 79.500 567.555 71.270 C 568.145 66.743, 568.935 62.732, 569.311 62.356 C 569.686 61.980, 573.344 62.097, 577.438 62.617 C 584.481 63.509, 584.911 63.451, 585.427 61.530 C 586.965 55.807, 586.496 55.317, 578.311 54.100 C 574.083 53.471, 570.494 52.827, 570.336 52.669 C 570.178 52.511, 570.331 50, 570.676 47.088 L 571.303 41.793 574.902 42.343 C 576.881 42.646, 581.260 43.195, 584.634 43.563 L 590.768 44.232 591.160 40.116 C 591.376 37.852, 591.444 36, 591.311 36 C 590.653 36, 568.131 32.936, 565.712 32.517 C 564.008 32.222, 562.773 32.514, 562.536 33.267 M 406.500 40.909 L 390.500 44.596 390.738 48.452 C 390.869 50.574, 391.141 52.475, 391.343 52.677 C 391.546 52.879, 394.460 52.403, 397.819 51.619 C 403.388 50.320, 403.968 50.340, 404.397 51.847 C 404.656 52.756, 406.533 61.150, 408.569 70.500 C 410.605 79.850, 412.336 87.590, 412.417 87.699 C 412.575 87.911, 421.308 85.847, 421.781 85.486 C 421.936 85.367, 420.231 77.034, 417.993 66.968 C 414.939 53.233, 414.224 48.480, 415.127 47.922 C 415.789 47.512, 418.271 46.887, 420.642 46.531 C 423.013 46.175, 425.233 45.431, 425.576 44.877 C 426.558 43.288, 425.040 36.988, 423.705 37.111 C 423.042 37.172, 415.300 38.881, 406.500 40.909 M 518.033 40.964 C 509.925 49.644, 514.456 69, 524.597 69 C 527.631 69, 531.774 65.997, 533.365 62.643 C 535.472 58.204, 535.543 46.950, 533.490 42.980 C 530.425 37.055, 522.635 36.039, 518.033 40.964 M 631.001 47.123 C 627.259 48.615, 624.194 51.881, 622.924 55.729 C 621.047 61.418, 623.683 66.517, 632.065 73.414 C 639.677 79.675, 640.659 82.378, 636.138 84.623 C 632.823 86.270, 628.375 84.772, 624.057 80.555 L 620.499 77.081 617.250 79.139 C 615.462 80.271, 614 81.736, 614 82.395 C 614 84.331, 621.183 90.770, 625.218 92.451 C 627.263 93.303, 631.313 93.998, 634.218 93.996 C 643.468 93.990, 649 88.677, 649 79.800 C 649 75.713, 648.599 75.125, 640.909 67.915 C 634.449 61.858, 632.887 59.842, 633.159 57.914 C 633.429 56.005, 634.185 55.434, 636.776 55.185 C 640.061 54.869, 647 58.192, 647 60.082 C 647 61.588, 649.005 61.133, 652.109 58.923 L 655.026 56.845 652.863 53.807 C 648.696 47.956, 637.498 44.532, 631.001 47.123 M 370.250 50.247 C 368.462 50.820, 367 51.805, 367 52.436 C 367 53.067, 369.025 59.621, 371.500 67 C 373.975 74.379, 376 81.798, 376 83.486 C 376 87.619, 373.658 90.697, 369.880 91.526 C 363.385 92.953, 360.619 88.947, 353.979 68.500 C 352.193 63, 350.559 58.193, 350.348 57.817 C 349.980 57.162, 341 59.796, 341 60.559 C 341 63.104, 351.698 91.226, 353.629 93.759 C 359.509 101.467, 366.828 102.932, 376.071 98.250 C 383.059 94.711, 386.439 88.916, 385.551 82 C 384.746 75.738, 375.778 48.977, 374.526 49.102 C 373.962 49.158, 372.038 49.673, 370.250 50.247 M 676.460 63.064 C 671.326 64.557, 665.563 70.355, 662.559 77.048 C 657.177 89.041, 659.494 99.896, 668.836 106.456 C 672.647 109.131, 674.004 109.500, 680.036 109.500 C 688.228 109.500, 689.715 108.482, 688.368 103.793 C 687.423 100.506, 687.410 100.501, 681.725 100.841 C 676.506 101.154, 675.777 100.931, 673.015 98.168 C 670.403 95.557, 670 94.429, 670 89.734 C 670 74.929, 684.152 65.488, 692.114 74.981 L 694.727 78.098 698.307 76.390 C 701.735 74.756, 701.830 74.573, 700.539 72.092 C 696.368 64.078, 686.149 60.247, 676.460 63.064 M 311 73.027 C 303.025 76.796, 296.100 80.040, 295.612 80.236 C 294.626 80.631, 296.989 88, 298.102 88 C 298.486 88, 301.209 86.882, 304.151 85.514 L 309.500 83.029 312.255 88.764 C 313.770 91.919, 317.458 99.793, 320.452 106.263 L 325.894 118.025 330.352 115.860 L 334.810 113.694 331.557 106.597 C 329.767 102.694, 326.166 94.857, 323.554 89.181 C 320.942 83.506, 318.961 78.763, 319.152 78.642 C 319.343 78.520, 321.863 77.349, 324.750 76.040 C 327.637 74.730, 330 73.429, 330 73.150 C 330 71.316, 327.410 66.016, 326.549 66.088 C 325.972 66.136, 318.975 69.259, 311 73.027 M 706.999 96.003 C 701.499 106.991, 697 116.592, 697 117.339 C 697 118.635, 704.589 122.753, 705.419 121.906 C 705.638 121.683, 710.297 112.222, 715.772 100.883 L 725.728 80.266 721.362 78.145 L 716.997 76.025 706.999 96.003 M 277.742 89.914 C 276.226 90.886, 274.758 91.908, 274.482 92.185 C 274.072 92.595, 295.106 131.439, 296.485 132.818 C 296.798 133.131, 302.452 130.146, 304.833 128.410 C 305.607 127.845, 282.723 88.007, 281.664 88.073 C 281.024 88.113, 279.259 88.942, 277.742 89.914 M 729.682 107.985 C 723.257 118.942, 718 128.121, 718 128.383 C 718 129.086, 741.724 143, 742.923 143 C 743.825 143, 747 137.987, 747 136.563 C 747 136.268, 743.400 133.935, 739 131.378 C 734.600 128.822, 731 126.520, 731 126.262 C 731 126.005, 732.208 123.646, 733.684 121.021 L 736.367 116.246 742.701 120.123 C 746.185 122.255, 749.466 124, 749.992 124 C 751.280 124, 754.228 118.177, 753.520 117.032 C 753.211 116.532, 750.380 114.672, 747.229 112.898 C 744.078 111.124, 741.354 109.564, 741.176 109.430 C 740.854 109.187, 743.080 104.763, 744.862 102.104 C 745.620 100.974, 747.358 101.608, 753.988 105.432 C 758.492 108.030, 762.305 110.008, 762.461 109.828 C 763.278 108.885, 766.101 102.777, 765.824 102.552 C 765.646 102.408, 761.450 99.929, 756.500 97.043 C 751.550 94.158, 746.120 90.957, 744.432 89.930 L 741.365 88.062 729.682 107.985 M 492.500 96.151 C 418.405 98.831, 343.215 123.536, 280 165.971 C 170.063 239.770, 101.102 362.362, 96.158 492.785 C 94.183 544.899, 100.733 593.629, 115.936 639.928 C 154.169 756.360, 241.878 850.313, 355.500 896.545 C 435.081 928.926, 523.850 935.564, 608 915.426 C 729.603 886.325, 831.966 803.373, 886.438 689.788 C 951.006 555.153, 937.307 393.728, 850.982 271.974 C 780.330 172.327, 669.967 108.247, 550.500 97.507 C 530.212 95.683, 515.168 95.331, 492.500 96.151 M 246.773 108.737 C 238.674 114.106, 232.038 118.725, 232.028 119 C 232.018 119.275, 233.070 120.825, 234.365 122.444 L 236.721 125.388 241.898 122.065 C 244.746 120.238, 247.220 118.913, 247.397 119.121 C 247.573 119.330, 252.288 126.362, 257.875 134.750 C 263.461 143.137, 268.309 150, 268.648 150 C 269.906 150, 276 145.804, 276 144.938 C 276 144.444, 271.500 137.250, 266 128.951 C 260.500 120.652, 256.009 113.556, 256.020 113.181 C 256.031 112.806, 258.281 111.169, 261.020 109.543 C 263.759 107.917, 265.998 106.117, 265.995 105.543 C 265.992 104.969, 264.980 103.256, 263.745 101.737 L 261.500 98.973 246.773 108.737 M 486.500 101.611 C 409.562 107.563, 344.337 129.619, 283.538 170.242 C 260.339 185.742, 242.406 200.530, 221.425 221.461 C 154.989 287.741, 114.480 371.815, 103.360 466.500 C 101.150 485.323, 100.854 532.425, 102.829 551 C 111.473 632.268, 141.034 704.531, 191.600 768 C 204.910 784.707, 237.440 817.352, 253.500 830.119 C 315.770 879.622, 383.143 908.175, 462.240 918.585 C 478.659 920.746, 526.405 921.624, 544.095 920.089 C 643.141 911.499, 731.451 870.566, 801.009 801.009 C 866.072 735.946, 905.548 655.644, 918.261 562.500 C 921.269 540.457, 921.505 483.935, 918.675 463 C 910.382 401.635, 892.992 350.882, 863.055 300.672 C 819.285 227.260, 750.395 167.241, 671.264 133.575 C 634.942 118.122, 593.366 107.410, 552.500 102.976 C 542.328 101.873, 495.608 100.906, 486.500 101.611 M 766.704 130.851 L 752.908 149.500 756.166 152.250 C 757.958 153.762, 759.743 155, 760.132 155 C 760.920 155, 772.303 139.635, 775.915 133.697 C 777.187 131.606, 778.366 130.033, 778.535 130.201 C 778.703 130.370, 777.759 137.706, 776.436 146.504 C 775.114 155.302, 774.025 163.228, 774.016 164.117 C 774.007 165.007, 775.790 166.919, 777.977 168.366 L 781.955 170.998 791.744 157.749 C 797.128 150.462, 803.302 142.069, 805.464 139.097 L 809.395 133.693 805.985 130.847 C 804.110 129.281, 802.334 128.006, 802.038 128.012 C 801.742 128.019, 800.519 129.482, 799.319 131.262 C 798.120 133.043, 794.520 138.153, 791.319 142.618 C 788.119 147.083, 785.005 151.578, 784.399 152.605 C 783.666 153.850, 783.739 151.806, 784.617 146.487 C 785.342 142.094, 786.554 133.887, 787.311 128.249 L 788.686 117.998 785.593 115.678 C 783.892 114.402, 782.050 113.098, 781.500 112.780 C 780.950 112.463, 774.292 120.595, 766.704 130.851 M 213.500 132.896 C 206.237 136.258, 202 142.444, 202 149.683 C 202 152.476, 202.830 154.065, 205.882 157.118 C 210.516 161.751, 214.036 162.106, 225.062 159.050 C 232.431 157.008, 234.495 157.163, 235.910 159.868 C 238.105 164.064, 231.576 169.989, 224.750 169.996 L 221 170 221 175.088 L 221 180.176 225.250 179.476 C 237.018 177.538, 246 169.295, 246 160.433 C 246 156.396, 242.999 150.975, 239.580 148.839 C 235.958 146.576, 231.720 146.742, 221.710 149.541 C 214.551 151.543, 211.848 151.055, 211.176 147.640 C 210.688 145.162, 216.211 140.239, 220.350 139.462 C 223.807 138.814, 224 138.572, 224 134.889 C 224 131.164, 223.863 131.001, 220.750 131.022 C 218.963 131.034, 215.700 131.877, 213.500 132.896 M 820.332 152.959 C 809.099 155.635, 799.247 167.485, 799.098 178.500 C 798.960 188.724, 808.920 199, 818.968 199 C 821.823 199, 822 198.774, 822 195.119 C 822 191.363, 821.857 191.201, 817.576 190.124 C 811.992 188.717, 809 185.121, 809 179.815 C 809 175.053, 810.757 171.507, 815.165 167.370 C 819.557 163.248, 822.145 162, 826.299 162 C 830.596 162, 834.505 164.989, 836.147 169.530 C 837.065 172.069, 837.996 173, 839.619 173 C 845.104 173, 846.190 170.768, 843.648 164.718 C 841.584 159.808, 836.146 155.121, 830.603 153.475 C 825.185 151.866, 824.968 151.855, 820.332 152.959 M 180.646 160.848 C 179.191 162.367, 178 164.105, 178 164.711 C 178 165.316, 182.999 170.569, 189.110 176.383 L 200.219 186.953 195.360 185.297 C 192.687 184.386, 184.875 181.971, 178 179.931 L 165.500 176.222 162.250 179.307 C 160.463 181.004, 159 182.912, 159 183.548 C 159 184.183, 162.037 187.547, 165.750 191.024 C 169.463 194.501, 176.897 201.637, 182.272 206.882 L 192.044 216.418 195.272 213.133 L 198.500 209.848 186.587 198.367 C 176.004 188.168, 175.110 187.054, 178.587 188.397 C 180.739 189.229, 188.749 191.774, 196.386 194.052 L 210.272 198.195 213.871 194.595 L 217.471 190.995 201.986 175.433 C 193.469 166.874, 185.778 159.469, 184.896 158.978 C 183.721 158.324, 182.584 158.824, 180.646 160.848 M 841.813 194.750 C 832.646 202.863, 825.113 209.886, 825.073 210.357 C 824.988 211.350, 842.737 231.324, 844.178 231.857 C 845.144 232.215, 850 228.194, 850 227.037 C 850 226.699, 847.300 223.381, 844 219.664 C 840.700 215.946, 838.008 212.588, 838.018 212.202 C 838.028 211.816, 839.882 209.967, 842.138 208.093 L 846.241 204.685 851.203 210.343 C 853.933 213.454, 856.466 215.986, 856.833 215.968 C 857.200 215.951, 858.766 214.823, 860.313 213.462 L 863.126 210.987 857.896 204.973 L 852.665 198.959 855.519 195.980 C 857.090 194.341, 858.824 193, 859.374 193 C 859.923 193, 863.165 196.037, 866.577 199.750 L 872.780 206.500 875.390 204.076 C 876.826 202.742, 878 201.233, 878 200.721 C 878 199.434, 860.739 180.190, 859.491 180.085 C 858.935 180.038, 850.981 186.637, 841.813 194.750 M 143.750 200.447 C 142.238 202.342, 141 204.115, 141 204.385 C 141 204.656, 148.088 210.834, 156.750 218.114 C 165.412 225.394, 173.295 232.023, 174.267 232.846 C 175.866 234.199, 176.318 234.069, 179.017 231.483 C 180.658 229.912, 182 228.112, 182 227.484 C 182 226.564, 147.864 197, 146.802 197 C 146.636 197, 145.262 198.551, 143.750 200.447 M 882.764 245.730 L 860.028 252.239 861.588 254.870 C 865.427 261.344, 865.091 261.205, 871.542 258.986 C 874.747 257.883, 877.624 257.361, 877.935 257.827 C 878.246 258.293, 880.006 260.992, 881.846 263.824 L 885.192 268.975 881.141 273.577 L 877.090 278.179 879.678 282.090 C 881.101 284.240, 882.611 286, 883.032 286 C 883.909 286, 913 249.531, 913 248.431 C 913 246.949, 907.461 239.008, 906.500 239.112 C 905.950 239.172, 895.269 242.150, 882.764 245.730 M 116 243.121 C 112.265 244.606, 108.345 248.673, 102.856 256.757 L 97.929 264.014 112.215 273.286 C 132.132 286.214, 136.581 289, 137.307 289 C 138.177 289, 144.906 278.385, 147.133 273.500 C 150.789 265.478, 149.100 257.167, 142.464 250.530 C 135.281 243.348, 123.632 240.086, 116 243.121 M 893.865 251.378 L 885.230 254.500 887.495 257.797 C 890.787 262.588, 890.973 262.677, 892.818 260.337 C 893.743 259.164, 896.454 255.909, 898.843 253.102 C 901.232 250.296, 903.032 248.058, 902.843 248.128 C 902.654 248.199, 898.614 249.662, 893.865 251.378 M 119.500 251.736 C 117.116 252.278, 111 257.902, 111 259.553 C 111 260.709, 134.108 276, 135.855 276 C 137.706 276, 140.232 268.815, 139.647 265.212 C 138.470 257.959, 126.717 250.098, 119.500 251.736 M 908.058 283.424 C 897.364 289.051, 888.449 294.152, 888.247 294.759 C 887.755 296.234, 890.785 302, 892.051 302 C 893.476 302, 906.310 295.441, 913.862 290.853 C 918.103 288.276, 919.802 287.611, 918.885 288.885 C 918.123 289.943, 913.397 296.815, 908.383 304.155 L 899.266 317.500 901.330 321.750 C 902.465 324.087, 903.649 326, 903.962 326 C 904.772 326, 943.336 305.982, 944.304 305.059 C 945.214 304.191, 942.081 297, 940.793 297 C 939.409 297, 923.892 305.016, 918.052 308.747 C 913.853 311.430, 912.936 311.748, 914.052 310.132 C 914.849 308.979, 919.524 302.171, 924.442 295.004 L 933.385 281.972 931.205 277.486 C 930.007 275.019, 928.683 273.043, 928.263 273.096 C 927.843 273.149, 918.751 277.797, 908.058 283.424 M 83.231 291.510 C 79.804 298.391, 77 304.209, 77 304.439 C 77 304.950, 118.243 326.103, 118.553 325.750 C 118.674 325.613, 121.718 319.606, 125.317 312.402 L 131.862 299.304 128.397 297.652 C 126.491 296.744, 124.727 296, 124.477 296 C 124.227 296, 122.165 299.712, 119.895 304.250 C 117.625 308.788, 115.640 312.643, 115.483 312.817 C 115.327 312.992, 112.903 311.971, 110.096 310.549 L 104.993 307.963 108.561 300.879 C 110.523 296.983, 111.987 293.673, 111.814 293.525 C 110.854 292.699, 104.769 289.903, 104.526 290.176 C 104.367 290.354, 102.780 293.425, 101 297 C 99.220 300.575, 97.635 303.644, 97.478 303.820 C 97.092 304.253, 89 300.090, 89 299.457 C 89 299.181, 90.828 295.319, 93.063 290.874 C 95.298 286.430, 96.985 282.672, 96.813 282.524 C 96.319 282.099, 90.135 279, 89.781 279 C 89.606 279, 86.659 284.630, 83.231 291.510 M 69.600 324.047 C 62.293 330.462, 60.880 342.890, 66.530 351.043 C 71.689 358.487, 84.427 363.913, 93.539 362.546 C 104.948 360.836, 113.563 347.296, 110.038 336.617 C 108.772 332.779, 107.590 332.318, 103.632 334.122 C 101.367 335.154, 101.211 335.654, 101.690 340.372 C 102.120 344.611, 101.836 345.973, 100.051 348.226 C 96.736 352.412, 91.482 353.584, 84.898 351.606 C 76.454 349.069, 72 344.248, 72 337.646 C 72 334.474, 72.660 333.114, 75.495 330.440 L 78.990 327.144 77.245 324.078 C 75.061 320.241, 73.939 320.237, 69.600 324.047 M 931.250 330.341 C 918.253 335.312, 910 338.987, 910 339.804 C 910 342.881, 916.599 356.657, 919.737 360.130 C 921.604 362.197, 924.742 364.420, 926.711 365.070 C 934.735 367.718, 948.904 364.056, 954.702 357.835 C 957.752 354.563, 960.004 348.782, 959.980 344.282 C 959.961 340.674, 954.827 324.365, 953.251 322.907 C 952.838 322.525, 942.938 325.870, 931.250 330.341 M 935.268 339.478 C 927.990 342.312, 921.762 344.905, 921.427 345.240 C 920.341 346.326, 922.054 349.900, 925.140 352.986 C 929.027 356.873, 935.143 357.078, 942.674 353.572 C 949.504 350.391, 951.393 347.440, 950.767 340.925 C 950.500 338.151, 949.881 335.532, 949.391 335.104 C 948.901 334.676, 942.546 336.644, 935.268 339.478 M 50.887 371.982 C 50.149 374.446, 50.028 376.399, 50.582 376.909 C 51.740 377.975, 75.274 383.965, 78.844 384.102 C 81.489 384.204, 81.488 384.208, 78.500 385.048 C 76.850 385.512, 69.425 387.310, 62 389.043 C 54.575 390.776, 47.762 392.389, 46.861 392.629 C 45.410 393.014, 42.297 401.630, 43.260 402.593 C 43.453 402.786, 53.485 405.592, 65.555 408.829 C 80.600 412.864, 87.707 414.367, 88.159 413.608 C 88.521 412.998, 89.115 410.912, 89.479 408.971 L 90.140 405.442 76.320 402.069 C 59.191 397.888, 58.927 397.803, 61.500 397.298 C 62.600 397.082, 70.552 395.279, 79.172 393.291 L 94.844 389.677 95.974 385.190 C 96.595 382.723, 96.743 380.395, 96.302 380.018 C 95.861 379.641, 86.500 376.982, 75.500 374.109 C 64.500 371.236, 54.737 368.664, 53.805 368.393 C 52.523 368.020, 51.812 368.894, 50.887 371.982 M 221 444 L 221 510 238.986 510 L 256.971 510 257.236 479.606 L 257.500 449.212 284.500 479.542 L 311.500 509.872 341.040 509.936 L 370.580 510 389.983 461.940 C 400.654 435.507, 409.671 413.704, 410.020 413.488 C 410.594 413.133, 438 480.491, 438 482.256 C 438 482.665, 427.875 483, 415.500 483 C 403.125 483, 393 483.365, 393 483.810 C 393 484.256, 395.380 490.219, 398.288 497.060 L 403.576 509.500 444.788 509.761 C 467.455 509.905, 485.998 509.905, 485.995 509.761 C 485.992 509.617, 473.660 480.025, 458.591 444 L 431.193 378.500 410.299 378.231 L 389.405 377.961 364.974 436.481 C 351.537 468.666, 340.250 495, 339.893 495 C 339 495, 294.500 445.089, 294.500 444.088 C 294.500 443.645, 307.325 428.992, 323 411.526 C 338.675 394.059, 351.650 379.371, 351.833 378.884 C 352.020 378.390, 343.335 378, 332.153 378 L 312.139 378 284.819 408.538 L 257.500 439.076 257.236 408.538 L 256.971 378 238.986 378 L 221 378 221 444 M 495.667 378.667 C 495.300 379.033, 495 408.733, 495 444.667 L 495 510 513 510 L 531 510 531 444 L 531 378 513.667 378 C 504.133 378, 496.033 378.300, 495.667 378.667 M 590 379.035 C 567.415 383.046, 553.791 399.533, 555.267 421.068 C 556.206 434.768, 563.069 445.560, 574.829 451.828 C 584.735 457.108, 590.165 457.999, 612.460 458.006 C 635.340 458.012, 639.244 458.712, 642.048 463.311 C 645.855 469.555, 644.015 477.224, 637.986 480.248 C 634.854 481.819, 630.716 481.997, 597.250 481.998 L 560 482 560 496 L 560 510 600.451 510 C 626.034 510, 642.849 509.595, 646.201 508.898 C 658.940 506.250, 671.360 496.902, 676.239 486.291 C 678.076 482.293, 678.446 479.679, 678.470 470.500 C 678.497 460.644, 678.223 458.910, 675.840 453.825 C 670.471 442.372, 659.859 434.349, 646.270 431.469 C 641.737 430.509, 633.057 430.028, 620 430.016 C 603.457 430, 599.971 429.732, 597.014 428.248 C 589.426 424.443, 588.796 413.094, 595.904 408.264 C 598.239 406.678, 602 406.470, 633.250 406.202 L 668 405.904 668 391.952 L 668 378 631.250 378.118 C 611.038 378.182, 592.475 378.595, 590 379.035 M 682 392 L 682 406 704 406 L 726 406 726 458 L 726 510 744 510 L 762 510 762 458 L 762 406 783.500 406 L 805 406 805 392 L 805 378 743.500 378 L 682 378 682 392 M 969.750 389.689 C 967.701 390.225, 967.599 391.522, 969.128 397.595 C 969.749 400.060, 970.007 402.326, 969.701 402.632 C 969.396 402.937, 961.141 404.967, 951.357 407.143 C 941.573 409.319, 933.411 411.256, 933.220 411.447 C 932.736 411.931, 934 418.382, 934.848 419.753 C 935.340 420.550, 940.777 419.731, 953.521 416.939 C 963.409 414.773, 971.779 413.001, 972.120 413.001 C 972.461 413, 973.282 415.753, 973.944 419.119 L 975.147 425.238 978.698 424.662 C 980.650 424.345, 982.493 423.840, 982.794 423.540 C 983.326 423.007, 981.871 415.459, 977.822 397.750 C 975.708 388.506, 975.411 388.210, 969.750 389.689 M 61.072 427.125 C 48.187 429.268, 37.543 431.129, 37.419 431.261 C 37.295 431.392, 36.892 433.975, 36.523 437 L 35.853 442.500 57.540 453.304 C 69.467 459.245, 79.398 463.935, 79.609 463.724 C 79.819 463.514, 80.277 461.260, 80.625 458.716 L 81.260 454.090 75.555 451.567 C 71.125 449.607, 69.963 448.649, 70.353 447.272 C 70.629 446.297, 71.153 443.155, 71.516 440.290 L 72.177 435.079 78.111 434.408 C 81.374 434.039, 84.202 433.458, 84.395 433.118 C 85.253 431.604, 86.040 423.012, 85.311 423.114 C 84.865 423.177, 73.958 424.981, 61.072 427.125 M 53.523 437.114 C 50.235 437.593, 47.177 438.108, 46.726 438.258 C 46.275 438.408, 49.640 440.154, 54.203 442.137 C 58.766 444.121, 62.555 445.689, 62.622 445.622 C 62.689 445.555, 63.054 443.363, 63.433 440.750 C 64.220 435.327, 64.667 435.491, 53.523 437.114 M 960.500 440.878 C 943.663 442.980, 939.500 443.797, 939.502 445 C 939.508 450.007, 942.513 472.199, 943.246 472.652 C 943.732 472.952, 945.722 472.899, 947.669 472.534 C 951.172 471.877, 951.202 471.828, 950.644 467.685 C 950.334 465.383, 949.793 460.974, 949.442 457.887 L 948.804 452.273 954.152 451.753 C 957.232 451.454, 959.768 451.659, 960.133 452.236 C 960.480 452.787, 961.070 456.334, 961.443 460.119 C 962.167 467.466, 962.748 467.981, 968.555 466.421 C 970.499 465.898, 970.563 465.465, 969.733 458.339 C 969.251 454.198, 969.002 450.670, 969.178 450.498 C 969.355 450.327, 971.554 449.881, 974.064 449.508 L 978.629 448.829 979.675 457.941 C 980.250 462.953, 980.920 467.253, 981.163 467.496 C 981.406 467.739, 983.318 467.660, 985.412 467.321 L 989.218 466.703 988.660 462.101 C 988.354 459.571, 987.574 453.113, 986.928 447.750 C 985.846 438.772, 985.585 438.010, 983.627 438.128 C 982.457 438.199, 972.050 439.437, 960.500 440.878 M 33 465.418 C 33 467.298, 32.743 469.505, 32.430 470.322 C 31.984 471.485, 35.671 473.071, 49.383 477.617 C 59.021 480.812, 66.694 483.639, 66.434 483.899 C 66.175 484.159, 58.208 485.990, 48.731 487.967 L 31.500 491.564 31.195 496.867 C 30.924 501.580, 31.090 502.111, 32.695 501.643 C 33.688 501.354, 44.175 498.779, 56 495.921 C 67.825 493.063, 77.842 490.224, 78.260 489.612 C 78.678 489.001, 78.903 486.294, 78.760 483.598 L 78.500 478.696 56 470.355 C 43.625 465.767, 33.388 462.011, 33.250 462.007 C 33.112 462.003, 33 463.538, 33 465.418 M 958.994 481.934 C 948.816 485.030, 943.023 492.584, 943.006 502.782 C 942.999 506.780, 945.368 512.698, 948.167 515.678 L 950.239 517.883 953.119 515.754 C 956.538 513.226, 956.622 512.607, 954 509.273 C 948.772 502.626, 953.820 492.899, 963.230 491.488 C 977.120 489.405, 986.698 497.978, 981.423 507.773 L 979.563 511.227 982.478 513.735 L 985.394 516.243 987.663 513.606 C 995.885 504.046, 990.162 486.969, 977.263 482.574 C 972.458 480.937, 963.324 480.617, 958.994 481.934 M 44.655 512.459 C 35.277 515.803, 32.053 522.157, 32.022 537.359 L 32 548.219 42.750 547.630 C 48.663 547.307, 59.300 546.758, 66.389 546.412 L 79.279 545.783 78.743 536.054 C 77.994 522.464, 74.545 516.215, 65.768 512.548 C 61.191 510.635, 49.903 510.587, 44.655 512.459 M 46.480 522.870 C 41.963 524.922, 40 528.232, 39.999 533.797 L 39.999 537.500 49.249 537.240 C 54.337 537.097, 61.249 536.730, 64.609 536.425 L 70.718 535.871 69.862 531.292 C 69.392 528.774, 68.443 526.033, 67.753 525.202 C 64.201 520.917, 53.387 519.732, 46.480 522.870 M 943.625 531.125 C 942.275 537.876, 942.074 537.718, 953.014 538.501 L 963.029 539.218 962.377 547.359 C 962.018 551.837, 961.632 555.618, 961.517 555.762 C 961.403 555.906, 957.077 555.644, 951.905 555.179 C 941.415 554.236, 941.039 554.410, 941.015 560.205 C 941.001 563.618, 941.255 563.949, 944.250 564.415 C 947.780 564.964, 983.394 568.005, 986.250 568.002 C 987.679 568, 988 567.098, 988 563.075 L 988 558.150 979.158 557.458 L 970.316 556.767 970.703 551.633 C 970.916 548.810, 971.322 544.999, 971.606 543.165 C 972.122 539.831, 972.125 539.829, 976.811 540.395 C 979.390 540.706, 983.300 541.080, 985.500 541.227 L 989.500 541.494 990.134 536.997 C 990.483 534.524, 990.483 532.231, 990.134 531.902 C 989.598 531.396, 950.715 527.959, 945.875 527.990 C 944.859 527.996, 944.016 529.171, 943.625 531.125 M 609 564.973 L 609 590.169 619.750 589.578 C 625.663 589.253, 639.725 588.526, 651 587.963 C 713.776 584.825, 780.357 578.936, 844 570.891 C 861.325 568.702, 877.651 566.641, 880.279 566.312 C 886.637 565.517, 887.037 564.407, 881.225 563.688 C 878.626 563.366, 864.125 561.520, 849 559.584 C 774.836 550.095, 715.089 545.049, 622.250 540.435 L 609 539.777 609 564.973 M 57.176 565.807 L 35.853 576.500 36.523 582 C 36.892 585.025, 37.262 587.564, 37.347 587.642 C 37.937 588.190, 85.056 595.278, 85.454 594.879 C 86.552 593.781, 84.406 585.512, 82.974 585.322 C 82.163 585.215, 79.412 584.853, 76.860 584.519 L 72.219 583.910 71.518 578.298 C 71.132 575.212, 70.590 572.095, 70.313 571.373 C 69.988 570.526, 71.796 569.180, 75.404 567.585 C 79.411 565.813, 81 564.562, 81 563.180 C 81 560.136, 79.813 554.994, 79.125 555.057 C 78.781 555.088, 68.904 559.926, 57.176 565.807 M 54.200 576.899 C 44.933 580.879, 45.077 581.131, 57.316 582.376 L 64.133 583.069 63.438 578.285 C 63.056 575.653, 62.689 573.463, 62.622 573.418 C 62.555 573.372, 58.765 574.939, 54.200 576.899 M 938.660 579.750 C 937.577 583.744, 936.986 587, 937.343 587 C 937.553 587, 943.249 588.125, 950 589.500 C 956.751 590.875, 963.901 592.030, 965.888 592.068 C 970.702 592.158, 969.302 592.720, 950.091 598.416 C 941.616 600.929, 934.488 603.178, 934.252 603.415 C 933.485 604.182, 931.916 612.249, 932.433 612.767 C 932.890 613.223, 975.382 622, 977.135 622 C 977.546 622, 978.268 620.087, 978.740 617.750 C 979.473 614.124, 979.338 613.396, 977.821 612.790 C 974.717 611.551, 955.045 608, 951.283 608 C 946.236 608, 947.440 607.300, 957.112 604.608 C 961.726 603.324, 969.411 601.043, 974.190 599.538 L 982.880 596.802 983.870 592.164 C 984.414 589.613, 984.680 587.347, 984.461 587.128 C 984.077 586.744, 941.365 578, 939.873 578 C 939.467 578, 938.921 578.788, 938.660 579.750 M 69.888 630.597 L 50.322 644.195 51.795 649.489 L 53.269 654.783 77.677 655.515 C 91.102 655.918, 102.236 656.079, 102.419 655.874 C 102.603 655.668, 102.120 653.362, 101.346 650.750 L 99.939 646 93.602 646 L 87.264 646 85.632 640.184 C 84.734 636.986, 84 633.903, 84 633.334 C 84 632.765, 86.233 630.911, 88.962 629.215 L 93.923 626.130 92.368 621.565 C 91.512 619.054, 90.506 617, 90.133 617 C 89.759 617, 80.649 623.119, 69.888 630.597 M 933.007 631.593 C 918.428 637.915, 916.562 658.489, 929.775 667.232 C 938.511 673.014, 949.900 674.591, 957.616 671.087 C 966.676 666.972, 971.578 654.094, 967.653 644.718 C 963.182 634.038, 944.067 626.797, 933.007 631.593 M 69.008 641.828 L 61.534 646.500 69.891 646.792 C 74.488 646.953, 78.445 646.888, 78.685 646.648 C 78.926 646.408, 78.528 644.174, 77.802 641.684 L 76.482 637.156 69.008 641.828 M 933.077 642.589 C 930.537 644.726, 930 645.914, 930 649.393 C 930 652.836, 930.596 654.185, 933.254 656.761 C 937.158 660.546, 943.629 663, 949.703 663 C 955.656 663, 960 658.960, 960 653.422 C 960 643.450, 941.094 635.843, 933.077 642.589 M 101.500 664.672 C 99.850 665.548, 98.395 666.347, 98.266 666.450 C 98.137 666.552, 99.599 670.353, 101.516 674.897 C 103.432 679.441, 105 683.513, 105 683.946 C 105 684.379, 102.736 685.674, 99.969 686.824 L 94.937 688.915 92.469 683.333 C 91.111 680.263, 89.993 677.470, 89.985 677.126 C 89.976 676.782, 89.586 675.895, 89.117 675.156 C 88.417 674.051, 87.664 674.118, 84.883 675.533 C 83.022 676.480, 81.358 677.377, 81.184 677.527 C 81.010 677.676, 82.256 681.061, 83.952 685.048 C 85.649 689.034, 86.916 692.381, 86.768 692.486 C 86.621 692.590, 84.573 693.425, 82.217 694.343 L 77.933 696.010 75.877 691.255 C 74.745 688.640, 73.137 684.813, 72.301 682.750 C 71.466 680.688, 70.403 679, 69.938 679 C 69.198 679, 64.133 680.976, 63.130 681.656 C 62.423 682.135, 73.371 707.205, 74.472 707.628 C 75.356 707.967, 115.472 691.688, 116.877 690.420 C 117.406 689.942, 105.800 662.991, 105.086 663.040 C 104.764 663.062, 103.150 663.796, 101.500 664.672 M 906.007 686.750 C 903.123 693.212, 900.555 699.032, 900.300 699.682 C 899.872 700.777, 904.735 704, 906.815 704 C 907.318 704, 909.221 700.580, 911.044 696.400 C 912.866 692.220, 914.852 688.610, 915.458 688.378 C 916.063 688.146, 922.170 690.490, 929.029 693.587 C 935.888 696.684, 943.412 700.053, 945.748 701.073 L 949.996 702.927 952.079 698.845 C 953.225 696.599, 953.788 694.389, 953.331 693.932 C 952.567 693.169, 912.572 675, 911.655 675 C 911.433 675, 908.892 680.288, 906.007 686.750 M 478.637 700.465 C 469.951 703.561, 465.478 711.454, 466.177 722.446 C 466.635 729.634, 468.440 732.972, 473.865 736.666 C 479.130 740.251, 484.307 740.598, 490.059 737.751 C 492.819 736.385, 494.998 735.790, 494.994 736.403 C 494.979 739.530, 492.553 745.538, 490.463 747.628 C 487.680 750.411, 480.726 750.864, 477.559 748.468 C 474.702 746.307, 473.850 746.615, 470.060 751.177 L 466.619 755.319 469.895 758.053 C 476.952 763.945, 488.414 764.502, 496.744 759.359 C 500.526 757.024, 502.217 755.016, 505 749.559 C 508.465 742.764, 508.499 742.570, 508.443 730.098 C 508.381 716.126, 507.465 712.878, 501.761 706.380 C 495.844 699.642, 487.170 697.423, 478.637 700.465 M 114.998 708.912 C 109.886 717.332, 109.476 717.746, 107.571 716.412 C 104.982 714.599, 97.679 714.595, 94.200 716.405 C 88.703 719.265, 86.496 722.719, 86.549 728.379 C 86.589 732.644, 87.472 735.220, 91.404 742.546 C 94.047 747.471, 96.591 751.906, 97.058 752.403 C 97.550 752.927, 106.213 748.778, 117.703 742.514 C 128.591 736.578, 137.673 731.574, 137.885 731.393 C 138.527 730.844, 135.878 725.144, 134.418 723.932 C 133.361 723.055, 131.368 723.706, 125.611 726.812 L 118.170 730.825 117.029 728.071 C 115.990 725.561, 116.354 724.585, 121.142 717.063 L 126.395 708.809 124.059 704.405 C 122.774 701.982, 121.427 700, 121.065 700 C 120.704 700, 117.974 704.010, 114.998 708.912 M 432.450 700.920 C 431.928 701.426, 428.800 702.742, 425.500 703.844 L 419.500 705.848 419.195 710.424 L 418.890 715 424.445 715 L 430 715 430 732 L 430 749 423.500 749 L 417 749 417 755.500 L 417 762 436.500 762 L 456 762 456 755.500 L 456 749 450.500 749 L 445 749 445 724.500 L 445 700 439.200 700 C 436.010 700, 432.972 700.414, 432.450 700.920 M 515.667 700.667 C 515.300 701.033, 515 703.958, 515 707.167 L 515 713 528.057 713 L 541.113 713 538.477 717.250 C 531.690 728.194, 527.804 740.189, 526.489 754.250 L 525.765 762 533.337 762 L 540.909 762 541.403 758.750 C 541.674 756.962, 542.163 751.702, 542.488 747.059 C 543.264 735.964, 546.927 725.291, 553.070 716.220 C 557.156 710.187, 558 708.175, 558 704.470 L 558 700 537.167 700 C 525.708 700, 516.033 700.300, 515.667 700.667 M 580.500 701.705 C 578.850 702.599, 575.475 703.846, 573 704.476 C 568.538 705.611, 568.497 705.660, 568.195 710.310 L 567.890 715 573.445 715 L 579 715 579 731.952 L 579 748.905 572.750 749.202 L 566.500 749.500 566.202 755.750 L 565.905 762 586 762 L 606.095 762 605.798 755.750 L 605.500 749.500 600.250 749.198 L 595 748.895 595 724.448 L 595 700 589.250 700.040 C 585.911 700.063, 582.242 700.762, 580.500 701.705 M 481.557 713.223 C 479.033 716.826, 479.537 723.627, 482.550 726.641 C 485.572 729.662, 489.081 729.274, 492.924 725.492 C 495.193 723.259, 495.270 722.843, 494.117 718.996 C 493.440 716.735, 492.011 714.011, 490.943 712.943 C 488.275 710.275, 483.522 710.417, 481.557 713.223 M 895.007 716.593 C 880.629 722.828, 878.521 742.546, 891.200 752.199 C 903.578 761.623, 915.716 762.284, 924.013 753.987 C 929.352 748.648, 931.577 741.178, 929.860 734.358 C 926.576 721.317, 907.057 711.368, 895.007 716.593 M 97.635 726.073 C 94.434 728.590, 94.343 730.595, 97.166 736.404 L 99.331 740.862 105.166 737.916 C 108.375 736.297, 111 734.730, 111 734.436 C 111 732.826, 107.685 727.897, 105.385 726.088 C 102.068 723.479, 100.935 723.477, 97.635 726.073 M 894.923 727.923 C 888.933 733.914, 892.720 742.632, 903.493 747.649 C 910.419 750.874, 914.437 750.717, 918.077 747.077 C 924.043 741.111, 920.881 732.611, 910.832 727.603 C 903.688 724.043, 898.703 724.144, 894.923 727.923 M 132.763 750.460 C 123.358 754.050, 115.692 761.976, 113.896 769.966 C 112.506 776.154, 114.634 782.706, 119.864 788.339 C 123.763 792.539, 127.541 794.143, 133.533 794.143 C 140.310 794.143, 146.449 791.466, 152.577 785.839 C 161.193 777.927, 163.079 769.565, 158.377 760.129 C 154.882 753.116, 149.777 749.715, 142.160 749.324 C 138.953 749.160, 134.880 749.652, 132.763 750.460 M 134.290 761.086 C 127.871 764.263, 123 770.172, 123 774.780 C 123 779.615, 125.085 782.543, 129.585 784.028 C 134.027 785.494, 140.349 783.388, 145.754 778.643 C 158.151 767.758, 149.030 753.789, 134.290 761.086 M 865.500 761.657 C 857.810 765.698, 852.064 774.032, 852.022 781.205 C 852.001 784.668, 852.518 785.304, 859.941 790.955 C 864.308 794.280, 868.272 797, 868.748 797 C 869.684 797, 879.473 784.072, 878.867 783.636 C 878.665 783.491, 877.190 782.379, 875.590 781.166 L 872.679 778.960 870.021 782.144 L 867.363 785.328 864.181 782.976 C 860.111 779.967, 860.173 778.019, 864.486 773.446 C 867.841 769.889, 868.179 769.767, 873.496 770.208 C 882.222 770.932, 890.159 778.299, 890.358 785.858 C 890.485 790.719, 887.781 794.860, 883.107 796.961 C 880.092 798.317, 879.905 798.679, 880.518 801.961 C 880.881 803.908, 881.360 805.685, 881.583 805.910 C 882.900 807.247, 890.252 803.450, 893.799 799.602 C 900.466 792.370, 901.730 783.864, 897.422 775.220 C 894.445 769.245, 890.552 765.648, 883.500 762.355 C 877.621 759.609, 869.961 759.312, 865.500 761.657 M 165.488 794.037 C 159.905 811.041, 161.373 809.696, 147.763 810.271 C 142.958 810.474, 138.714 810.953, 138.332 811.335 C 137.949 811.717, 139.181 813.628, 141.068 815.582 L 144.500 819.134 156.500 818.441 L 168.500 817.747 164 821.722 C 161.525 823.909, 158.281 826.778, 156.790 828.099 L 154.080 830.500 157.393 834.246 L 160.705 837.992 178.451 822.361 L 196.196 806.730 192.692 803.226 L 189.189 799.722 184.344 803.734 C 180.760 806.703, 178.283 807.902, 174.820 808.344 L 170.140 808.943 174.085 797.884 L 178.030 786.826 174.931 782.913 C 173.226 780.761, 171.515 779, 171.129 779 C 170.742 779, 168.203 785.767, 165.488 794.037 M 830.542 801.534 L 827.846 805.069 834.357 811.284 C 840.567 817.212, 841.133 818.160, 846.566 831.750 C 849.699 839.587, 852.516 846, 852.827 846 C 854.145 846, 859 840.487, 859 838.990 C 859 838.091, 856.990 833.225, 854.533 828.177 C 852.077 823.130, 850.215 819, 850.397 819 C 850.579 819, 854.952 820.573, 860.114 822.495 C 865.276 824.417, 869.974 825.992, 870.554 825.995 C 871.757 826.001, 878.589 819.218, 877.932 818.671 C 877.694 818.473, 870.525 816.175, 862 813.563 C 847.028 808.975, 846.307 808.629, 840.824 803.407 C 837.703 800.433, 834.718 798, 834.193 798 C 833.667 798, 832.024 799.590, 830.542 801.534 M 212.455 855.455 C 209.080 858.829, 209.064 864.772, 212.421 867.926 C 215.929 871.221, 221.707 871.042, 224.716 867.544 C 229.748 861.694, 226.032 853, 218.500 853 C 216.021 853, 214.149 853.760, 212.455 855.455 M 790.636 855.636 C 788.819 857.454, 788 859.332, 788 861.682 C 788 869.271, 797.284 873.062, 802.673 867.673 C 808.062 862.284, 804.271 853, 796.682 853 C 794.332 853, 792.454 853.819, 790.636 855.636 M 730.250 876.749 C 728.462 877.637, 727 878.667, 727 879.038 C 727 879.410, 730.375 885.873, 734.500 893.401 C 738.625 900.930, 742 907.456, 742 907.905 C 742 908.355, 740.011 909.777, 737.581 911.067 C 733.206 913.388, 733.176 913.439, 734.608 916.209 L 736.055 919.006 740.928 916.537 C 745.704 914.116, 745.828 914.106, 747.150 916.001 C 748.476 917.901, 748.565 917.895, 752.155 915.688 L 755.809 913.441 745.453 894.487 C 739.758 884.062, 734.738 875.443, 734.299 875.334 C 733.859 875.225, 732.038 875.862, 730.250 876.749 M 275.607 880.793 L 274.162 883.586 289.044 891.793 C 297.229 896.307, 304.156 900, 304.437 900 C 304.718 900, 305.643 898.658, 306.491 897.018 L 308.033 894.036 302.516 890.922 C 297.037 887.830, 296.083 886.685, 298 885.500 C 299.980 884.276, 298.932 882.157, 295.282 880.004 C 293.237 878.797, 291.420 878.239, 291.246 878.763 C 291.071 879.287, 290.342 880.517, 289.627 881.496 C 288.397 883.178, 288.079 883.131, 283.825 880.638 C 278.180 877.330, 277.390 877.345, 275.607 880.793 M 712.636 889.194 C 710.485 889.783, 706.826 892.116, 704.386 894.455 C 700.562 898.118, 700 899.198, 700 902.874 C 700 908.631, 703.318 912, 708.987 912 C 716.247 912, 723.463 907.820, 726.595 901.800 C 728.662 897.826, 728.328 895.391, 725.250 892.013 C 722.095 888.550, 718.180 887.675, 712.636 889.194 M 311.201 893.266 C 306.959 900.329, 291.865 928.191, 292.172 928.392 C 296.451 931.182, 298.377 932.069, 299.346 931.698 C 299.997 931.448, 302.286 928.039, 304.433 924.122 C 306.580 920.205, 308.734 917, 309.218 917 C 309.703 917, 311.356 917.650, 312.891 918.444 C 315.614 919.852, 315.724 919.802, 317.319 916.458 L 318.954 913.028 315.977 911.488 C 314.340 910.641, 313 909.661, 313 909.310 C 313 908.958, 314.805 905.382, 317.011 901.361 L 321.023 894.052 317.083 892.042 L 313.143 890.032 311.201 893.266 M 272.763 893.344 C 271.372 894.633, 269.914 896.697, 269.522 897.931 C 266.468 907.553, 280.507 918.740, 290.431 914.593 C 297.057 911.825, 298.895 905.107, 294.720 898.913 C 289.683 891.437, 278.014 888.478, 272.763 893.344 M 710.641 898.068 C 707.148 900.816, 707.366 904.368, 711.055 904.798 C 714.485 905.197, 719.205 901.444, 718.804 898.635 C 718.377 895.635, 714.110 895.339, 710.641 898.068 M 278.571 899.571 C 276.440 901.703, 276.583 902.674, 279.455 905.545 C 282.448 908.539, 286.525 908.756, 288 906 C 290.654 901.041, 282.596 895.547, 278.571 899.571 M 727.432 906.326 C 724.095 908.622, 717.457 912.692, 712.682 915.371 C 707.907 918.050, 704 920.793, 704 921.466 C 704 922.139, 704.923 923.526, 706.052 924.547 C 708.063 926.367, 708.223 926.339, 714.003 923.162 L 719.901 919.919 721.645 922.581 C 723.530 925.459, 723.543 925.435, 718.337 928.625 C 716.609 929.684, 716.732 930.189, 720.408 937.125 C 722.557 941.181, 724.454 944.672, 724.623 944.882 C 724.880 945.200, 761.822 925.494, 762.824 924.505 C 763.423 923.914, 759.922 917.930, 759.207 918.324 C 746.155 925.509, 730.164 934, 729.685 934 C 729.336 934, 728.353 932.649, 727.498 930.997 C 725.952 928.006, 725.960 927.987, 729.411 926.341 L 732.876 924.689 730.371 919.745 C 728.993 917.026, 728.008 914.706, 728.183 914.589 C 728.357 914.472, 730.853 912.686, 733.728 910.619 C 738.867 906.926, 738.929 906.821, 737.363 904.431 C 736.487 903.094, 735.259 902.034, 734.635 902.076 C 734.011 902.118, 730.769 904.031, 727.432 906.326 M 348.098 913.149 C 347.494 914.881, 347 916.396, 347 916.514 C 347 916.633, 353.719 919.076, 361.931 921.943 L 376.862 927.156 374.867 931.828 C 373.770 934.398, 372.476 936.903, 371.992 937.395 C 371.475 937.919, 364.071 935.859, 354.112 932.422 C 344.763 929.194, 336.867 926.799, 336.567 927.100 C 336.267 927.400, 335.757 928.964, 335.435 930.575 C 334.852 933.492, 334.890 933.518, 344.675 936.913 C 350.079 938.789, 354.615 940.403, 354.755 940.499 C 355.291 940.871, 352.767 947, 352.077 947 C 351.677 947, 348.103 945.895, 344.133 944.545 L 336.916 942.091 335.917 944.718 C 335.368 946.163, 335.112 947.830, 335.349 948.422 C 335.586 949.015, 342.354 951.747, 350.390 954.493 C 358.425 957.240, 365 959.811, 365 960.206 C 365 960.602, 364.079 963.263, 362.953 966.119 C 361.827 968.976, 361.103 971.827, 361.344 972.455 C 361.586 973.084, 363.431 974.104, 365.445 974.722 C 368.808 975.754, 369.175 975.668, 369.926 973.673 C 373.972 962.919, 375.932 956.700, 375.497 955.996 C 375.212 955.534, 371.946 954.160, 368.239 952.942 C 364.533 951.725, 361.395 950.648, 361.267 950.548 C 360.779 950.170, 363.472 944, 364.126 944 C 364.504 944, 369.175 945.520, 374.506 947.377 L 384.200 950.755 385.510 947.637 C 387.082 943.899, 386.824 943.340, 383.148 942.533 L 380.319 941.911 383.741 933.389 C 385.623 928.702, 386.955 924.334, 386.702 923.683 C 386.327 922.719, 352.068 909.999, 349.848 910 C 349.489 910, 348.702 911.417, 348.098 913.149 M 264.015 918.591 C 261.723 922.766, 259.995 926.292, 260.174 926.426 C 261.842 927.677, 294.139 945, 294.802 945 C 295.964 945, 298.171 940.086, 297.498 938.997 C 297.208 938.528, 291.353 935.089, 284.486 931.354 C 277.619 927.619, 272.002 924.099, 272.004 923.531 C 272.006 922.964, 272.906 921.027, 274.004 919.226 C 275.102 917.425, 276 915.782, 276 915.575 C 276 915.187, 269.166 911, 268.533 911 C 268.339 911, 266.306 914.416, 264.015 918.591 M 650 914.419 C 647.072 915.479, 646.551 916.109, 646.812 918.272 C 647.374 922.924, 642.947 928.859, 634.976 934.141 L 632.500 935.782 634.903 938.369 L 637.307 940.956 641.241 938.744 C 645.001 936.631, 651.376 930.328, 653.500 926.625 C 654.427 925.009, 654.772 924.995, 658.218 926.441 C 661.919 927.993, 670.554 928.495, 674.651 927.396 C 676.219 926.975, 676.914 925.861, 677.214 923.289 L 677.627 919.759 672.414 920.297 C 665.100 921.052, 660.005 919.670, 656.764 916.053 C 655.259 914.374, 653.909 913.034, 653.764 913.076 C 653.619 913.118, 651.925 913.722, 650 914.419 M 657.222 935.460 C 644.419 940.005, 633.729 943.938, 633.467 944.199 C 633.076 944.590, 634.849 951.001, 635.348 951 C 635.432 951, 639.961 949.405, 645.414 947.456 C 653.098 944.709, 655.505 944.200, 656.118 945.192 C 656.692 946.120, 654.934 947.166, 649.705 949.005 C 643.205 951.290, 642.527 951.779, 642.779 953.998 C 642.932 955.351, 643.422 956.822, 643.867 957.267 C 644.312 957.712, 651.145 955.815, 659.051 953.051 C 668.172 949.863, 673.775 948.375, 674.380 948.980 C 674.986 949.586, 674.816 950.119, 673.917 950.439 C 673.138 950.717, 666.425 953.047, 659 955.616 C 651.575 958.186, 645.391 960.370, 645.257 960.471 C 644.839 960.784, 649.219 973.453, 650.069 974.388 C 650.527 974.892, 659.369 972.338, 670.489 968.491 C 686.696 962.884, 689.986 961.428, 689.437 960.103 C 689.072 959.221, 688.540 957.687, 688.255 956.693 C 687.915 955.505, 687.183 955.107, 686.119 955.529 C 683.826 956.438, 656.552 966, 656.250 966 C 656.112 966, 656.001 965.438, 656.002 964.750 C 656.004 964.039, 662.148 961.383, 670.252 958.590 C 678.089 955.889, 684.650 953.564, 684.834 953.422 C 685.636 952.805, 680.492 939, 679.460 939 C 678.829 939, 675.697 939.900, 672.500 941 C 665.685 943.345, 665 943.413, 665 941.750 C 665 941.063, 669.500 938.947, 675 937.049 C 680.500 935.152, 685 933.531, 685 933.449 C 685 931.776, 682.496 927.026, 681.652 927.098 C 681.018 927.152, 670.025 930.915, 657.222 935.460 M 598.500 928.727 C 596.850 928.962, 595.141 929.501, 594.701 929.926 C 594.262 930.350, 596.062 943.409, 598.701 958.946 L 603.500 987.196 607.333 986.682 C 609.441 986.399, 611.425 985.908, 611.742 985.591 C 612.638 984.695, 603.103 927.899, 602.099 928.150 C 601.770 928.232, 600.150 928.492, 598.500 928.727 M 412.515 936.772 C 412.161 938.660, 412.013 940.329, 412.186 940.481 C 412.358 940.633, 416.990 941.514, 422.477 942.439 C 427.964 943.364, 432.617 944.284, 432.817 944.484 C 433.017 944.684, 432.284 948.369, 431.188 952.674 C 430.092 956.978, 429.039 961.127, 428.848 961.894 C 428.478 963.375, 434.280 965.490, 436.439 964.662 C 437.576 964.226, 441.143 951.116, 442.480 942.460 L 443.105 938.421 428.132 935.880 L 413.159 933.339 412.515 936.772 M 446.614 943.137 C 445.699 948.287, 443.452 961.170, 441.620 971.767 L 438.289 991.035 440.895 991.578 C 447.972 993.053, 447.146 994.168, 449.471 980 C 451.991 964.647, 451.499 965.664, 456.049 966.392 C 459.392 966.926, 460.002 966.752, 460.014 965.262 C 460.021 964.293, 460.282 962.551, 460.594 961.391 C 461.086 959.558, 460.617 959.194, 457.019 958.619 C 453.713 958.090, 452.983 957.609, 453.395 956.228 C 454.469 952.637, 457.082 935.748, 456.633 935.300 C 456.376 935.043, 454.390 934.594, 452.221 934.303 L 448.277 933.774 446.614 943.137 M 572 939.378 C 560.082 941.427, 559.488 941.643, 559.241 944.014 C 558.749 948.739, 559.811 949.116, 569.052 947.490 C 573.698 946.672, 577.900 946.002, 578.390 946.001 C 579.863 945.999, 578.306 956.519, 576.093 961.522 C 574.907 964.204, 571.393 968.731, 567.840 972.154 L 561.653 978.115 564.679 981.141 L 567.706 984.167 573.824 978.502 C 584.301 968.803, 589.338 955.366, 587.502 942.017 C 587.110 939.167, 586.313 937.049, 585.656 937.114 C 585.020 937.177, 578.875 938.196, 572 939.378 M 495 940.500 C 495 942.910, 494.767 943, 488.500 943 L 482 943 482 946.500 L 482 950 499.500 950 L 517 950 517 946.500 L 517 943 510.500 943 C 504.233 943, 504 942.910, 504 940.500 C 504 938.204, 503.633 938, 499.500 938 C 495.367 938, 495 938.204, 495 940.500 M 520 956.500 L 520 975 524.500 975 L 529 975 529 968 L 529 961 532.500 961 C 535.917 961, 536 960.905, 536 957 C 536 953.095, 535.917 953, 532.500 953 L 529 953 529 945.500 L 529 938 524.500 938 L 520 938 520 956.500 M 416.061 959.474 C 415 966.610, 414.505 967.990, 413.142 967.620 C 412.239 967.375, 409.813 966.890, 407.750 966.542 L 404 965.909 404 969.775 L 404 973.641 411.750 974.862 C 416.012 975.534, 423.862 976.356, 429.194 976.689 L 438.888 977.295 439.538 974.704 C 439.896 973.280, 439.932 971.699, 439.619 971.193 C 439.306 970.687, 435.873 970.045, 431.989 969.767 C 428.106 969.489, 424.654 968.988, 424.319 968.652 C 423.984 968.317, 424.290 964.649, 425 960.500 C 425.710 956.351, 426.112 952.793, 425.895 952.593 C 425.678 952.392, 423.664 951.925, 421.420 951.555 L 417.340 950.882 416.061 959.474 M 495.500 951.929 C 489.285 953.429, 485 957.743, 485 962.500 C 485 968.420, 491.522 973, 499.951 973 C 508.687 973, 514 968.827, 514 961.965 C 514 957.475, 509.920 953.234, 504.362 951.944 C 499.993 950.930, 499.641 950.929, 495.500 951.929 M 497.005 958.989 C 494.190 959.664, 493.233 962.371, 495.040 964.548 C 496.944 966.842, 503.700 966.429, 505.034 963.936 C 506.994 960.273, 502.696 957.625, 497.005 958.989 M 489 980.500 L 489 984 504.500 984 L 520 984 520 990.557 L 520 997.115 524.250 996.807 L 528.500 996.500 528.786 986.750 L 529.072 977 509.036 977 L 489 977 489 980.500" stroke="none" fill="#1e4e9e" fill-rule="evenodd"/></svg>