<svg xmlns="http://www.w3.org/2000/svg" width="2116" height="2195" viewBox="0 0 2116 2195" version="1.1"><path d="" stroke="none" fill="#202c54" fill-rule="evenodd"/><path d="M 1675.693 0.750 C 1672.824 5.812, 1667.831 27.718, 1665.835 44 C 1664.101 58.152, 1664.104 97.281, 1665.840 107 C 1672.160 142.376, 1684.708 168.231, 1704.702 187.074 C 1717.268 198.918, 1731.863 206.718, 1750.706 211.663 C 1758.754 213.775, 1762.907 214.249, 1774 214.323 C 1792.638 214.447, 1804.489 211.712, 1821 203.478 C 1848.524 189.751, 1875.172 188.702, 1900.391 200.354 C 1910.709 205.121, 1917.751 209.981, 1927.141 218.815 C 1944.719 235.351, 1953.447 253.311, 1954.690 275.500 C 1955.333 286.982, 1953.802 303.316, 1951.432 310.257 C 1949.639 315.507, 1944.713 320.279, 1939.214 322.094 C 1936.413 323.019, 1935.562 322.914, 1933.937 321.443 C 1931.249 319.011, 1931.440 313.543, 1934.614 302 C 1936.983 293.390, 1937.183 291.282, 1936.753 279.500 C 1936.360 268.710, 1935.800 265.072, 1933.457 258.099 C 1924.117 230.296, 1899.369 212.750, 1867.420 211.280 C 1846.224 210.304, 1829.973 215.769, 1816.228 228.495 C 1798.365 245.033, 1790.691 264.543, 1790.563 293.744 L 1790.500 307.989 1748.789 266.288 C 1725.849 243.353, 1706.920 224.793, 1706.725 225.044 C 1706.530 225.295, 1707.300 241.814, 1708.436 261.754 L 1710.500 298.008 1804.998 392.504 L 1899.496 487 1934.493 487 L 1969.489 487 1935.615 453.115 L 1901.742 419.231 1912.861 422.094 C 1937.827 428.523, 1963.713 431.745, 1976.773 430.048 C 1996.619 427.469, 2017.328 419.618, 2030.601 409.641 C 2038.608 403.622, 2050.503 391.054, 2055.815 383 C 2065.607 368.156, 2071.148 353.693, 2076.124 330 C 2079.092 315.868, 2079.377 312.956, 2079.357 297 C 2079.339 282.897, 2078.914 277.527, 2077.166 269.336 C 2069.922 235.391, 2052.759 203.404, 2025.032 172.173 C 2005.395 150.056, 1979.715 133.023, 1945.832 119.645 C 1920.847 109.779, 1887.110 102.058, 1858 99.543 C 1815.590 95.879, 1767.132 79.129, 1734 56.681 C 1715.336 44.035, 1692.574 22.596, 1682.580 8.250 C 1676.662 -0.246, 1676.412 -0.518, 1675.693 0.750 M 941.642 110.536 C 868.713 125.172, 805.549 171.781, 759.921 244.626 C 751.854 257.505, 739.793 280.378, 736.017 289.956 C 734.020 295.024, 734.005 295.348, 735.682 297.201 C 737.395 299.094, 738.870 299.124, 796.968 298.458 C 829.711 298.082, 858.075 297.452, 860 297.056 C 863.466 296.344, 863.389 296.283, 852 290.761 C 834.375 282.216, 817.967 277.544, 796.528 274.967 C 791.593 274.374, 787.427 273.761, 787.271 273.604 C 787.115 273.448, 788.903 272.755, 791.244 272.063 C 799.375 269.661, 817.570 261.829, 829.761 255.483 C 877.222 230.777, 917.112 191.669, 944.553 142.941 C 950.381 132.591, 959.976 111.654, 959.992 109.250 C 960.004 107.459, 955.348 107.785, 941.642 110.536 M 1134 108.828 C 1134 110.620, 1139.516 123.121, 1145.564 135.033 C 1168.383 179.978, 1206.339 220.887, 1249.571 247.131 C 1256.132 251.114, 1266.900 256.933, 1273.500 260.062 C 1285.402 265.705, 1303.797 273, 1306.123 273 C 1309.991 273, 1304.948 274.035, 1294.389 275.409 C 1273.710 278.099, 1250.934 285.185, 1236.554 293.401 L 1230.607 296.799 1237.054 297.368 C 1240.599 297.682, 1268.759 298.214, 1299.630 298.552 C 1357.753 299.188, 1360 299.065, 1360 295.246 C 1360 292.795, 1350.160 272.022, 1342.981 259.320 C 1326.908 230.878, 1308.516 206.472, 1286.535 184.417 C 1263.230 161.033, 1241.967 145.487, 1214.926 132.064 C 1192.088 120.727, 1170.885 113.682, 1147 109.493 C 1137.367 107.804, 1134 107.632, 1134 108.828 M 1313 134.637 C 1313 138.984, 1322.873 169.170, 1328.982 183.500 C 1355.880 246.598, 1398.201 295.407, 1454.500 328.263 C 1460 331.473, 1463.375 333.856, 1462 333.559 C 1447.749 330.478, 1422.240 329.314, 1404.500 330.936 C 1389.144 332.339, 1375.818 334.800, 1360.299 339.098 L 1349 342.228 1349 373.614 L 1349 405 1355.039 405 C 1370.439 405, 1396.361 400.566, 1416.633 394.464 C 1434.603 389.054, 1461.760 377.873, 1486.364 365.754 C 1498.521 359.766, 1508.623 354.710, 1508.814 354.520 C 1509.366 353.967, 1504.284 336.015, 1500.395 324.781 C 1472.474 244.121, 1420.056 181.291, 1354.500 149.906 C 1339.090 142.529, 1313 132.930, 1313 134.637 M 766.500 144.379 C 707.130 166.007, 660.191 207.149, 624.987 268.415 C 610.592 293.467, 597.819 325.128, 590.569 353.728 C 589.156 359.302, 588 364.151, 588 364.504 C 588 365.652, 616.094 378.632, 633 385.294 C 676.401 402.398, 710.768 410.460, 752.681 413.369 L 758.862 413.798 759.407 407.649 C 759.707 404.267, 760.107 390.406, 760.296 376.847 L 760.640 352.195 749.570 349.590 C 725.079 343.827, 707.728 342, 677.500 342 C 657.659 342, 639.209 343.032, 632 344.544 C 630.625 344.833, 633.550 342.671, 638.500 339.740 C 696.620 305.329, 739.269 253.483, 765.789 185 C 769.995 174.141, 774.917 158.134, 777.398 147.250 C 779.129 139.657, 779.321 139.708, 766.500 144.379 M 132 159.440 C 112.388 162.280, 81.439 172.305, 82.209 175.569 C 82.571 177.104, 330.478 424, 331.658 424 C 332.129 424, 333.544 420.327, 334.802 415.838 C 342.648 387.836, 358.927 356.080, 375.371 336.695 L 381.134 329.903 320.817 268.823 C 287.643 235.229, 256.054 203.513, 250.621 198.342 C 230.282 178.988, 206.882 166.388, 181.244 160.985 C 168.459 158.291, 145.010 157.555, 132 159.440 M 60.487 198.086 C 33.103 224.372, 18.241 265.636, 20.341 309.550 C 21.690 337.750, 29.529 369.623, 42.266 398.702 L 46.558 408.500 164.779 408.754 C 229.801 408.894, 283 408.668, 283 408.252 C 283 407.837, 234.438 358.936, 175.084 299.584 L 67.169 191.672 60.487 198.086 M 1488.280 205.578 C 1489.352 226.779, 1493.752 251.102, 1500.623 273.816 C 1514.940 321.140, 1543.489 367.084, 1577.417 397.404 L 1585.143 404.308 1592.646 396.904 C 1596.773 392.832, 1605.943 383.392, 1613.023 375.926 L 1625.896 362.352 1621.542 349.426 C 1598.214 280.173, 1557.543 230.634, 1498.252 199.253 L 1487.677 193.656 1488.280 205.578 M 594.458 210.127 C 549.498 235.858, 515.513 272.766, 490.983 322.500 C 471.317 362.372, 460.340 403.781, 456.603 452.192 L 456.086 458.883 461.393 460.426 C 485.159 467.335, 515.472 473.660, 541.500 477.141 C 564.262 480.186, 609.762 480.460, 628.500 477.666 C 652.473 474.092, 673.798 468.019, 690.209 460.091 C 698.904 455.891, 710 449.049, 710 447.887 C 710 447.513, 706.737 445.186, 702.750 442.716 C 687.015 432.968, 671.032 426.275, 652 421.465 C 621.153 413.669, 582.119 412.992, 543.036 419.576 C 531.173 421.574, 505.100 427.700, 496.500 430.510 C 494.588 431.135, 494.580 431.098, 496.324 429.667 C 554.009 382.356, 590.671 315.759, 602.542 236.720 C 604.540 223.417, 605.596 205, 604.361 205 C 603.841 205, 599.385 207.307, 594.458 210.127 M 1039.115 212.501 C 1030.752 215.109, 1024.066 224.139, 1024.022 232.884 C 1023.933 250.563, 1041.005 261.283, 1056.751 253.437 C 1070.265 246.703, 1072.946 228.851, 1062.076 217.981 C 1055.496 211.401, 1048.216 209.663, 1039.115 212.501 M 1141.758 226.501 C 1136.950 227.279, 1127.500 229.342, 1120.758 231.085 C 1108.227 234.324, 1086.999 241.735, 1087.001 242.870 C 1087.003 243.883, 1109.607 256.520, 1120.451 261.569 C 1132.698 267.272, 1150.555 273.314, 1163.644 276.183 C 1175.727 278.831, 1203.662 279.361, 1213.500 277.129 C 1220.844 275.462, 1234.843 270.423, 1237.314 268.556 C 1239.050 267.245, 1239.022 266.978, 1236.666 262.328 C 1228.028 245.280, 1212.165 232.911, 1192 227.498 C 1183.115 225.113, 1153.917 224.533, 1141.758 226.501 M 915.250 230.066 C 888.228 233.579, 868.869 246.505, 857.784 268.435 C 854.918 274.107, 854.866 274.429, 856.618 275.710 C 860.392 278.469, 876.909 282.923, 887.283 283.978 C 906.156 285.898, 929.099 282.444, 950.728 274.427 C 968.943 267.676, 1007.625 246.161, 1005.385 244.027 C 1003.816 242.531, 982.055 236.085, 970.105 233.576 C 949.541 229.258, 930.725 228.054, 915.250 230.066 M 1375.020 292.250 C 1368.914 295.370, 1366.707 298.768, 1366.260 305.737 C 1365.661 315.067, 1370.797 321.933, 1379.612 323.587 C 1391.411 325.801, 1402.094 314.490, 1399.012 303.045 C 1396.040 292.009, 1385.114 287.092, 1375.020 292.250 M 434.891 305.877 C 389.826 343.493, 359.780 396.175, 346.992 460 C 342.009 484.871, 340.581 500.552, 340.619 530 C 340.647 551.934, 341.890 572.223, 343.292 573.625 C 344.087 574.420, 363.687 576.089, 384.708 577.152 C 409.834 578.422, 438.452 577.406, 461 574.443 C 502.959 568.930, 542.106 555.731, 568.500 538.198 C 578.314 531.679, 591.314 520.317, 590.488 518.981 C 589.624 517.583, 572.095 511.191, 562 508.594 C 544.557 504.105, 538.716 503.498, 513.500 503.548 C 493.395 503.587, 487.410 503.955, 476.625 505.814 C 446.083 511.079, 417.638 520.163, 388.405 533.989 L 376.310 539.710 384.841 529.105 C 422.941 481.744, 443.965 424.491, 447.960 357.220 C 449.250 335.491, 447.394 298, 445.028 298 C 444.644 298, 440.082 301.545, 434.891 305.877 M 709.001 300.069 C 705.737 301.441, 702.162 304.824, 700.405 308.200 C 698.559 311.748, 698.610 320.346, 700.499 323.998 C 704.558 331.847, 714.915 334.988, 722.992 330.819 C 729.314 327.555, 732 323.137, 732 316 C 732 309.757, 729.802 305.389, 724.791 301.678 C 721.656 299.356, 712.834 298.457, 709.001 300.069 M 784.280 608.750 C 784.575 879.166, 784.725 901.378, 786.331 912.500 C 795.969 979.266, 817.790 1028.209, 854.929 1066.359 C 875.023 1087.001, 893.349 1100.255, 919.500 1113.060 C 967.420 1136.524, 1023.524 1145.590, 1085.500 1139.885 C 1148.137 1134.120, 1202.950 1110.423, 1242.364 1072.071 C 1283.043 1032.489, 1306.373 982.819, 1316.203 914.867 L 1318.426 899.500 1318.733 608.250 L 1319.039 317 1051.500 317 L 783.961 317 784.280 608.750 M 1615.500 411.938 C 1572.050 459.184, 1536.500 498.457, 1536.500 499.210 C 1536.500 499.964, 1574.689 538.254, 1621.365 584.299 L 1706.230 668.018 1746.865 628.046 C 1769.214 606.061, 1806.625 569.193, 1830 546.116 L 1872.500 504.158 1783.500 415.096 L 1694.500 326.034 1615.500 411.938 M 913 436.500 L 913 476 992 476 L 1071 476 1071 662 C 1071 764.300, 1070.665 848, 1070.255 848 C 1069.845 848, 1052.856 831.351, 1032.501 811.001 L 995.492 774.002 923.499 846.001 L 851.505 918.001 882.751 949.247 L 913.998 980.494 957.753 936.747 L 1001.508 893 1049.500 941 L 1097.492 989 1131.246 989 L 1165 989 1165 854.500 L 1165 720 1205.500 720 L 1246 720 1246 675.500 L 1246 631 1205.500 631 L 1165 631 1165 612 L 1165 593 1205.500 593 L 1246 593 1246 552.500 L 1246 512 1204.500 512 L 1163 512 1163 454.500 L 1163 397 1038 397 L 913 397 913 436.500 M 1472 407.090 C 1452.424 409.610, 1431.748 415.617, 1415.500 423.505 C 1404.114 429.033, 1389 438.445, 1389 440.007 C 1389 441.685, 1401.788 450.027, 1411.148 454.454 C 1422.010 459.592, 1437.254 464.080, 1452.645 466.672 C 1461.535 468.169, 1469.094 468.500, 1494.398 468.500 L 1525.297 468.500 1550.627 442.500 C 1564.559 428.200, 1575.967 416.221, 1575.979 415.880 C 1576.023 414.593, 1544.972 408.902, 1527.789 407.048 C 1516.560 405.836, 1481.538 405.863, 1472 407.090 M 294.913 427.750 C 269.406 458.426, 251.492 495.202, 242.574 535.195 C 232.822 578.932, 233.215 631.171, 243.649 678 C 246.143 689.196, 250.740 706.074, 251.503 706.836 C 252.124 707.457, 286.440 704.054, 301 701.928 C 374.627 691.175, 435.134 665.279, 470.783 629.263 C 478.437 621.531, 486.363 610.955, 485.288 609.911 C 483.511 608.185, 461.577 604.848, 448.500 604.314 C 402.836 602.449, 351.650 618.923, 301.030 651.777 C 294.722 655.871, 286.917 661.256, 283.685 663.743 L 277.809 668.264 280.954 662.882 C 300.086 630.143, 312.339 593.255, 317.619 552.500 C 319.950 534.506, 319.963 497.474, 317.645 478 C 314.744 453.629, 306.625 418, 303.972 418 C 303.449 418, 299.372 422.387, 294.913 427.750 M 56 428.288 C 56 433.143, 92.601 471.077, 128.451 503.379 C 157.612 529.653, 209.085 574, 210.420 574 C 210.739 574, 211 569.095, 211 563.099 C 211 527.405, 228.582 479.276, 257.144 436.788 C 260.365 431.997, 263 427.834, 263 427.538 C 263 427.242, 216.425 427, 159.500 427 C 75.738 427, 56 427.246, 56 428.288 M 439.594 467.990 C 435.303 469.349, 430.110 474.877, 428.899 479.374 C 425.734 491.129, 434.889 501.938, 447.023 500.772 C 466.970 498.855, 466.844 469.648, 446.880 467.533 C 444.471 467.278, 441.192 467.484, 439.594 467.990 M 1478.047 529.830 C 1468.459 541.286, 1460.475 551.074, 1460.306 551.581 C 1460.137 552.088, 1503.539 596.041, 1556.755 649.255 L 1653.511 746.007 1673.500 726 L 1693.489 705.993 1594.996 607.496 C 1540.825 553.323, 1496.274 509, 1495.992 509 C 1495.711 509, 1487.635 518.373, 1478.047 529.830 M 1911.230 546.578 C 1902.214 564.589, 1892.345 595.183, 1887.614 619.784 C 1883.055 643.490, 1882.499 650.158, 1882.516 681 C 1882.533 712.540, 1883.231 719.759, 1888.613 744 C 1890.720 753.493, 1899.225 780.731, 1902.507 788.500 C 1902.972 789.600, 1898.657 786, 1892.917 780.500 C 1848.724 738.150, 1801.605 712.163, 1753 703.332 C 1743.183 701.548, 1708.939 700.728, 1707.427 702.240 C 1705.322 704.344, 1717.870 724.133, 1729.306 736.745 C 1766.666 777.946, 1825.743 809.314, 1902.016 828.450 C 1911.992 830.952, 1921.013 833, 1922.062 833 C 1924.459 833, 1928.275 825.621, 1935.620 806.782 C 1945.495 781.453, 1953.702 748.807, 1957.185 721 C 1959.233 704.647, 1958.929 662.514, 1956.648 646.500 C 1954.353 630.397, 1949.072 609.001, 1943.813 594.500 C 1938.920 581.012, 1927.847 558.395, 1920.593 547.078 L 1915.196 538.655 1911.230 546.578 M 583.437 551.102 C 572.799 562.337, 546.680 574.959, 520.247 581.640 C 514.058 583.204, 509.108 584.822, 509.247 585.236 C 509.663 586.474, 586.216 657, 587.144 657 C 587.615 657, 588 632.475, 588 602.500 C 588 572.525, 587.634 548, 587.187 548 C 586.740 548, 585.052 549.396, 583.437 551.102 M 1835.478 577.546 C 1819.540 592.765, 1805.895 605.789, 1805.156 606.488 C 1804.041 607.543, 1804.831 609.858, 1809.815 620.129 C 1813.117 626.933, 1818.066 636.212, 1820.813 640.750 C 1825.720 648.855, 1826.217 650.363, 1823.079 647.621 C 1817.951 643.143, 1788.884 625, 1786.837 625 C 1785.391 625, 1739.188 669.269, 1739.426 670.425 C 1740.388 675.092, 1821.287 688, 1849.576 688 L 1853.752 688 1856.817 675.750 C 1864.686 644.292, 1867.380 618.836, 1866.688 582.500 C 1866.404 567.650, 1865.787 554.235, 1865.315 552.688 C 1864.468 549.913, 1864.075 550.241, 1835.478 577.546 M 609 624.778 L 609 681.556 681.153 752.528 C 720.836 791.563, 753.686 823.650, 754.153 823.833 C 754.619 824.017, 755 799.041, 755 768.331 L 755 712.495 682.747 640.247 C 643.009 600.511, 610.159 568, 609.747 568 C 609.336 568, 609 593.550, 609 624.778 M 172.940 581.120 C 161.172 604.525, 152.229 635.835, 148.838 665.500 C 146.992 681.643, 147.285 717.536, 149.401 734.500 C 153.553 767.800, 161.961 800.783, 174.004 831.009 C 177.358 839.428, 183.431 852.596, 184.526 853.824 C 185.182 854.560, 213.881 846.397, 233 840.036 C 274.726 826.155, 309.549 808.878, 338.022 787.931 C 356.221 774.542, 376.603 755.029, 374.392 753.109 C 373.901 752.684, 366.244 745.517, 357.376 737.183 L 341.252 722.030 333.376 724.395 C 294.079 736.197, 254.845 760.728, 218.085 796.480 C 210.156 804.191, 204.017 809.600, 204.443 808.500 C 215.724 779.334, 221.678 749.139, 222.682 716 C 223.813 678.670, 218.691 643.680, 206.726 607 C 202.202 593.131, 202.955 594.124, 187.172 581.226 L 177.046 572.952 172.940 581.120 M 1399.717 650.829 L 1343.934 711.500 1344.169 813.500 L 1344.404 915.500 1341.660 929.447 C 1340.151 937.118, 1337.889 946.455, 1336.634 950.197 L 1334.353 957 1371.428 957 L 1408.504 957 1511.966 853.534 L 1615.428 750.068 1594.453 728.784 C 1582.917 717.078, 1547.420 681.063, 1515.572 648.750 C 1483.724 616.438, 1457.179 590.036, 1456.583 590.079 C 1455.987 590.123, 1430.398 617.461, 1399.717 650.829 M 496.735 630.250 C 481.931 648.108, 476.470 653.589, 464.500 662.606 C 435.148 684.715, 402.167 699.929, 370.446 705.992 C 351.500 709.614, 352.050 707.791, 365.965 720.852 L 378.059 732.204 502.530 731.462 C 570.988 731.053, 627 730.443, 627 730.106 C 627 729.285, 511.671 614, 510.850 614 C 510.496 614, 504.144 621.313, 496.735 630.250 M 2001.286 710.232 C 1979.431 743.303, 1963.353 781.572, 1955.094 820.177 C 1950.947 839.562, 1949.856 849.527, 1949.298 873.096 C 1948.702 898.315, 1949.653 912.632, 1953.135 930.859 C 1954.224 936.557, 1954.943 941.390, 1954.734 941.600 C 1954.525 941.809, 1951.999 938.609, 1949.123 934.489 C 1934.592 913.677, 1906.387 883.277, 1888 868.609 C 1867.861 852.543, 1842.595 838.005, 1822.921 831.161 C 1812.421 827.509, 1794.011 823.351, 1784.250 822.427 C 1775.674 821.616, 1775.761 821.432, 1779.626 832.190 C 1795.300 875.828, 1839.901 921.587, 1901 956.717 C 1923.810 969.832, 1967.547 990.216, 1968.864 988.345 C 2002.055 941.225, 2021.873 893.023, 2030.264 839.013 C 2031.949 828.164, 2032.371 820.768, 2032.404 801.500 C 2032.451 773.914, 2031.132 762.700, 2024.996 738.500 C 2021.105 723.153, 2012.338 698.937, 2010.447 698.312 C 2009.867 698.121, 2005.745 703.485, 2001.286 710.232 M 1850.914 699.956 C 1841.047 702.946, 1836.162 714.216, 1840.641 723.655 C 1845.972 734.891, 1863.434 736.163, 1869.815 725.781 C 1878.280 712.010, 1866.091 695.356, 1850.914 699.956 M 240.848 720.018 C 231.394 725.013, 229.328 737.929, 236.681 746.068 C 247.699 758.264, 267.352 749.420, 265.772 732.977 C 264.629 721.083, 251.627 714.323, 240.848 720.018 M 91.218 727.642 C 81.556 752.861, 76.653 775.657, 75.040 802.871 C 71.645 860.132, 87.900 921.155, 121.652 977.859 C 130.146 992.129, 142.601 1010, 144.053 1010 C 145.798 1010, 167.249 1000.015, 181.522 992.558 C 257.314 952.964, 309.709 902.170, 327.884 850.670 C 332.208 838.418, 332.276 838.663, 324.750 839.491 C 292.171 843.075, 257.585 858.738, 225.613 884.387 C 204.537 901.295, 178.932 929.622, 161.843 954.936 C 157.920 960.746, 154.988 964.600, 155.327 963.500 C 156.897 958.399, 159.122 940.947, 160.192 925.342 C 164.156 867.521, 148.316 805.334, 115.589 750.231 C 109.179 739.437, 99.364 725.095, 96.025 721.642 C 94.286 719.844, 94.132 720.037, 91.218 727.642 M 400.512 752.914 C 403.255 755.616, 435.379 785.091, 471.897 818.414 L 538.294 879 646.647 879 L 755 879 755 867.247 L 755 855.493 701.247 801.747 L 647.493 748 521.508 748 L 395.524 748 400.512 752.914 M 2067.885 878.765 C 2047.586 899.517, 2030.913 922.279, 2016.097 949.463 C 1992.313 993.103, 1980.016 1040.600, 1980.003 1088.869 L 1980 1102.237 1973.144 1088.369 C 1942.396 1026.166, 1899.117 980.570, 1852 960.737 C 1841.805 956.445, 1826.157 951.510, 1825.339 952.327 C 1825.017 952.650, 1825.493 957.290, 1826.396 962.639 C 1831.045 990.154, 1847.824 1023.750, 1872.025 1054 C 1876.646 1059.775, 1887.642 1071.737, 1896.463 1080.582 C 1919.048 1103.231, 1937.701 1118.438, 1968.463 1139.280 L 1984.500 1150.145 1995.010 1139.267 C 2041.599 1091.047, 2073.146 1029.184, 2082.601 967.500 C 2084.871 952.685, 2085.210 914.407, 2083.194 900.500 C 2081.494 888.777, 2078.009 871.701, 2077.124 870.765 C 2076.742 870.360, 2072.584 873.960, 2067.885 878.765 M 31.124 897.700 C 27.085 913.371, 24.894 942.283, 26.083 964.216 C 29.417 1025.685, 55.197 1085.927, 101.942 1141.483 C 111.100 1152.368, 129.425 1171, 130.972 1171 C 133.616 1171, 165.648 1147.588, 184.500 1131.877 C 198.141 1120.509, 223.778 1094.756, 234.155 1082 C 256.092 1055.031, 270.201 1030.591, 278.949 1004.405 C 282.747 993.034, 286.994 971.661, 285.710 970.376 C 284.969 969.635, 270.891 974.291, 260.623 978.672 C 229.380 992.003, 197.832 1019.555, 171.383 1056.610 C 160.210 1072.262, 142.401 1104.579, 136.220 1120.416 L 134.301 1125.332 133.705 1105.916 C 133.377 1095.237, 132.380 1081.775, 131.488 1076 C 123.769 1026.013, 104.043 980.058, 72.070 937.576 C 60.864 922.687, 44.811 904.540, 37.238 898.199 L 32.104 893.901 31.124 897.700 M 557.023 900.348 C 558.385 901.639, 572.864 914.464, 589.197 928.848 L 618.895 955 691.554 955 C 760.374 955, 764.174 954.908, 763.460 953.250 C 761.105 947.780, 759.842 937.479, 759.312 919.412 L 758.722 899.324 706.196 898.662 C 677.307 898.298, 631.368 898, 604.108 898 L 554.545 898 557.023 900.348 M 584 1361.995 L 584 1742 776.750 1742.022 C 962.371 1742.042, 969.814 1742.114, 978 1743.942 C 995.960 1747.953, 1019.725 1758.465, 1037.930 1770.450 C 1042.566 1773.503, 1046.504 1776, 1046.680 1776 C 1046.856 1776, 1047 1639.249, 1047 1472.109 L 1047 1168.219 1035.750 1167.536 C 982.946 1164.333, 942.818 1154.169, 902.796 1133.861 C 862.987 1113.662, 828.779 1083.037, 803.537 1045 C 794.526 1031.421, 781.271 1005.383, 776.558 992 L 773.213 982.500 678.606 982.245 L 584 981.990 584 1361.995 M 1326.235 988.250 C 1323.003 997.239, 1311.471 1019.797, 1303.954 1031.836 C 1264.633 1094.807, 1207.619 1137.482, 1140.237 1154.379 C 1122.328 1158.870, 1102.492 1161.832, 1084.750 1162.665 L 1071 1163.311 1071 1469.656 C 1071 1638.145, 1071.283 1776, 1071.629 1776 C 1071.975 1776, 1073.887 1774.528, 1075.879 1772.729 C 1086.435 1763.192, 1105.237 1752.416, 1119.758 1747.581 C 1137.404 1741.704, 1125.800 1742, 1338.588 1742 L 1534 1742 1534 1362 L 1534 982 1431.241 982 L 1328.482 982 1326.235 988.250 M 1555.046 1374.250 L 1555 1765 1353.565 1765 C 1178.070 1765, 1151.210 1765.194, 1144.978 1766.505 C 1116.526 1772.490, 1086.746 1789.609, 1065.503 1812.191 L 1058.030 1820.134 1049.339 1811.002 C 1029.343 1789.989, 1004.696 1776.464, 974.102 1769.714 C 964.525 1767.601, 963.968 1767.594, 763.750 1767.274 L 563 1766.953 563 1378.734 L 563 990.515 538.500 1015 L 514 1039.485 514 1429.732 L 514 1819.978 737.250 1820.239 C 987.678 1820.532, 963.824 1819.774, 980.563 1827.966 C 994.876 1834.970, 1002.678 1845.109, 1005.116 1859.874 L 1006.293 1867 1060.405 1867 L 1114.517 1867 1116.760 1858.320 C 1121.115 1841.474, 1129.804 1828.217, 1140 1822.863 L 1144.500 1820.500 1372.250 1820.241 L 1600 1819.983 1600 1425.361 L 1600 1030.739 1585.250 1015.232 C 1577.138 1006.703, 1567.033 996.074, 1562.796 991.612 L 1555.092 983.500 1555.046 1374.250 M 1955.914 998.956 C 1951.326 1000.346, 1948.145 1003.068, 1946.049 1007.399 C 1940.582 1018.693, 1947.236 1030.775, 1959.484 1031.790 C 1975.067 1033.082, 1983.795 1015.527, 1973.329 1003.942 C 1968.642 998.754, 1962.439 996.978, 1955.914 998.956 M 144.450 1021.351 C 140.814 1023.001, 136.244 1028.180, 135.378 1031.631 C 134.281 1036, 135.574 1043.593, 137.992 1046.989 C 140.598 1050.648, 146.988 1053.945, 151.538 1053.978 C 155.951 1054.010, 163.133 1050.027, 165.742 1046.102 C 167.425 1043.569, 168 1041.252, 168 1037 C 168 1030.757, 165.802 1026.389, 160.791 1022.678 C 157.373 1020.146, 148.665 1019.439, 144.450 1021.351 M 2098.793 1060.750 C 2041.089 1104.057, 1999.718 1164.357, 1983.702 1228.500 C 1981.779 1236.200, 1979.407 1247.413, 1978.429 1253.417 L 1976.652 1264.333 1974.305 1255.417 C 1956.519 1187.856, 1919.322 1130.098, 1875.233 1101.581 C 1866.975 1096.240, 1853.190 1089, 1851.278 1089 C 1849.464 1089, 1849.587 1109.904, 1851.468 1121.503 C 1858.445 1164.517, 1883.039 1212.673, 1920.886 1257.426 C 1933.414 1272.241, 1950.082 1289.900, 1961.865 1300.843 L 1973.003 1311.187 1982.751 1304.202 C 2015.708 1280.589, 2045.966 1249.116, 2068.586 1214.921 C 2089.981 1182.579, 2103.494 1148.969, 2110.167 1111.500 C 2112.774 1096.860, 2114.042 1052, 2111.849 1052 C 2111.081 1052, 2105.206 1055.938, 2098.793 1060.750 M 0.403 1080.758 C -0.593 1087.343, 1.540 1118.139, 3.953 1132 C 11.592 1175.892, 31.677 1218.865, 62.610 1257.500 C 73.614 1271.244, 99.102 1296.876, 113.115 1308.290 C 125.530 1318.403, 144.687 1332, 146.521 1332 C 148.114 1332, 173.118 1306.189, 185.696 1291.561 C 228.087 1242.259, 254.380 1192.615, 262.547 1146.460 C 264.318 1136.453, 265.203 1108.878, 263.799 1107.469 C 262.946 1106.612, 250.142 1113.525, 240.238 1120.190 C 196.607 1149.553, 162.494 1204.269, 144.673 1273.474 L 141.332 1286.448 140.733 1281.394 C 139.691 1272.598, 134.969 1252.944, 130.812 1240.102 C 116.614 1196.246, 92.458 1157.104, 57.893 1121.945 C 42.452 1106.239, 22.097 1089.382, 6.810 1079.641 L 1.120 1076.015 0.403 1080.758 M 1613 1152 L 1613 1196 1648 1196 L 1683 1196 1683 1152 L 1683 1108 1648 1108 L 1613 1108 1613 1152 M 425 1159 L 425 1203 460 1203 L 495 1203 495 1159 L 495 1115 460 1115 L 425 1115 425 1159 M 645 1192.078 C 645 1192.940, 682.909 1325.086, 694.105 1363.250 L 696.085 1370 710.292 1369.992 L 724.500 1369.985 748.905 1281.742 C 762.328 1233.209, 773.513 1192.938, 773.762 1192.250 C 774.113 1191.279, 770.175 1191, 756.146 1191 L 738.077 1191 737.097 1194.750 C 726.135 1236.691, 714.594 1284.373, 712.955 1294.491 C 710.090 1312.185, 709.902 1312.246, 706.985 1296.415 C 705.879 1290.412, 699.664 1264.350, 693.175 1238.500 L 681.377 1191.500 663.188 1191.227 C 650.236 1191.033, 645 1191.278, 645 1192.078 M 775 1280.500 L 775 1370 810.500 1370 L 846 1370 846 1354 L 846 1338 828 1338 L 810 1338 810 1317 L 810 1296 826 1296 L 842 1296 842 1280 L 842 1264 826 1264 L 810 1264 810 1243.500 L 810 1223 828 1223 L 846 1223 846 1207 L 846 1191 810.500 1191 L 775 1191 775 1280.500 M 854 1280.407 L 854 1370 871.500 1370 L 889 1370 889 1328.500 C 889 1305.675, 889.337 1287.001, 889.750 1287.003 C 890.163 1287.005, 897.475 1305.672, 906 1328.486 L 921.500 1369.966 939.809 1369.983 C 949.879 1369.992, 957.916 1369.662, 957.670 1369.250 C 957.029 1368.178, 927 1289.381, 927 1288.772 C 927 1288.493, 928.688 1287.139, 930.750 1285.761 C 940.120 1279.502, 947.397 1269.073, 950.527 1257.419 C 951.491 1253.833, 952.109 1247.558, 952.096 1241.500 C 952.060 1224.859, 948.055 1214.125, 938.512 1205.100 C 932.266 1199.192, 927.274 1196.544, 917.169 1193.776 C 910.473 1191.942, 905.980 1191.621, 881.750 1191.244 L 854 1190.813 854 1280.407 M 966 1280.500 L 966 1370 983.500 1370 L 1001 1370 1001 1280.500 L 1001 1191 983.500 1191 L 966 1191 966 1280.500 M 1118 1281.500 L 1118 1371 1154 1371 L 1190 1371 1190 1355 L 1190 1339 1171.500 1339 L 1153 1339 1153 1265.500 L 1153 1192 1135.500 1192 L 1118 1192 1118 1281.500 M 1218.230 1265.750 C 1218.522 1339.427, 1218.524 1339.506, 1220.771 1345.500 C 1225.417 1357.897, 1235.378 1367.168, 1248.479 1371.291 C 1254.460 1373.173, 1257.796 1373.500, 1271 1373.500 C 1284.204 1373.500, 1287.540 1373.173, 1293.521 1371.291 C 1306.315 1367.265, 1315.407 1359.073, 1320.166 1347.282 L 1322.500 1341.500 1322.786 1266.750 L 1323.072 1192 1306.081 1192 L 1289.089 1192 1288.795 1261.250 L 1288.500 1330.500 1286.237 1334.735 C 1282.860 1341.056, 1280.003 1342.500, 1270.872 1342.500 C 1262.328 1342.500, 1259.057 1340.950, 1255.774 1335.344 C 1252.528 1329.802, 1252.040 1319.394, 1252.020 1255.250 L 1252 1192 1234.969 1192 L 1217.938 1192 1218.230 1265.750 M 1354.441 1193.728 C 1354.810 1194.703, 1363.187 1213.962, 1373.056 1236.526 C 1382.925 1259.091, 1391 1278.160, 1391 1278.902 C 1391 1279.645, 1382.872 1300.031, 1372.938 1324.206 C 1363.004 1348.381, 1354.630 1368.799, 1354.331 1369.580 C 1353.872 1370.777, 1356.833 1370.999, 1373.143 1370.994 L 1392.500 1370.987 1398.744 1353.744 C 1402.179 1344.260, 1406.229 1331.890, 1407.744 1326.256 C 1409.260 1320.622, 1410.900 1316.143, 1411.389 1316.302 C 1411.878 1316.462, 1413.593 1321.297, 1415.199 1327.046 C 1416.806 1332.796, 1421.089 1345.037, 1424.718 1354.250 L 1431.316 1371 1451.158 1371 C 1462.071 1371, 1471 1370.826, 1471 1370.612 C 1471 1370.399, 1462 1350.065, 1451 1325.425 C 1440 1300.786, 1431 1279.874, 1431 1278.956 C 1431 1278.038, 1439.325 1258.452, 1449.500 1235.433 C 1459.675 1212.413, 1468 1193.223, 1468 1192.789 C 1468 1192.355, 1459.787 1192.006, 1449.750 1192.013 L 1431.500 1192.026 1425.742 1205.763 C 1419.274 1221.196, 1415.784 1231.138, 1413.936 1239.396 C 1413.246 1242.478, 1412.372 1245, 1411.992 1245 C 1411.613 1245, 1410.318 1241.287, 1409.113 1236.750 C 1407.909 1232.213, 1403.678 1220.400, 1399.712 1210.500 L 1392.500 1192.500 1373.135 1192.228 C 1354.952 1191.973, 1353.810 1192.064, 1354.441 1193.728 M 889 1243.338 L 889 1267.962 891.656 1268.628 C 895.322 1269.548, 905.413 1267.526, 909.376 1265.077 C 911.179 1263.962, 913.968 1260.676, 915.573 1257.775 C 918.222 1252.988, 918.492 1251.621, 918.496 1243 C 918.500 1234.518, 918.216 1233.017, 915.848 1228.989 C 912.103 1222.619, 906.899 1219.941, 896.938 1219.258 L 889 1218.714 889 1243.338 M 1850.605 1228.586 C 1848.753 1233.414, 1847.010 1250.161, 1847.024 1263 C 1847.084 1319.305, 1871.473 1381.803, 1919.676 1449.175 C 1933.744 1468.836, 1932.503 1467.906, 1940.232 1464.579 C 1959.176 1456.425, 1990.457 1436.804, 2011.969 1419.582 C 2026.677 1407.807, 2048.332 1386.438, 2059.174 1373 C 2090.279 1334.446, 2110.508 1287.538, 2115.561 1242.247 L 2116.259 1235.994 2112.380 1237.614 C 2098.578 1243.376, 2074.981 1256.868, 2060 1267.563 C 2006.688 1305.621, 1969.250 1353.989, 1949.493 1410.330 L 1945.345 1422.160 1944.116 1409.480 C 1936.740 1333.411, 1906.294 1268.399, 1862.286 1234.748 C 1852.423 1227.206, 1851.352 1226.641, 1850.605 1228.586 M 258.848 1250.751 C 249.984 1257.384, 235.555 1271.957, 228.127 1281.780 C 199.182 1320.053, 182.974 1368.529, 177.242 1433.969 L 176.500 1442.438 172.687 1431.969 C 170.590 1426.211, 165.558 1414.750, 161.506 1406.500 C 137.247 1357.108, 96.320 1313.524, 45.120 1282.558 C 34.862 1276.354, 14.811 1266.079, 6.802 1262.922 L 1.733 1260.924 2.419 1267.212 C 3.430 1276.472, 7.696 1294.991, 11.647 1307.268 C 20.624 1335.166, 32.956 1358.745, 51.734 1383.919 C 62.642 1398.542, 92.324 1428.345, 107.981 1440.396 C 129.865 1457.240, 155.384 1472.752, 177.978 1482.946 C 187.170 1487.093, 189.583 1487.830, 190.558 1486.789 C 193.417 1483.736, 209.688 1459.656, 217.683 1446.647 C 255.881 1384.491, 275.012 1322.102, 270.985 1272.818 C 269.993 1260.678, 267.491 1247.421, 266.020 1246.512 C 265.566 1246.232, 262.339 1248.139, 258.848 1250.751 M 1947.990 1319.250 C 1942.177 1323.206, 1940.500 1326.397, 1940.500 1333.500 C 1940.500 1340.629, 1942.164 1343.772, 1948.092 1347.838 C 1950.978 1349.817, 1952.456 1350.116, 1957.739 1349.791 C 1961.933 1349.533, 1964.883 1348.747, 1966.739 1347.395 C 1970.182 1344.886, 1974 1337.579, 1974 1333.500 C 1974 1329.031, 1970.026 1321.866, 1966.102 1319.258 C 1961.363 1316.109, 1952.611 1316.105, 1947.990 1319.250 M 157.500 1338.457 C 139.022 1345.199, 145.095 1372.401, 164.716 1370.774 C 173.564 1370.040, 179.040 1364.564, 179.774 1355.716 C 180.825 1343.037, 169.340 1334.137, 157.500 1338.457 M 1826.105 1368.255 C 1822.748 1376.086, 1819.293 1388.053, 1817.371 1398.500 C 1814.460 1414.326, 1814.706 1455.515, 1817.828 1474.959 C 1824.062 1513.794, 1837.744 1554.856, 1859.097 1598.814 C 1865.474 1611.942, 1867.361 1615.035, 1868.761 1614.651 C 1887.240 1609.579, 1895.456 1607.014, 1905.924 1603.050 C 1983.113 1573.820, 2041.829 1523.405, 2071.942 1460.500 C 2079.225 1445.287, 2088.058 1420.725, 2086.725 1419.392 C 2085.721 1418.388, 2062.029 1425.515, 2047.645 1431.149 C 1979.564 1457.816, 1924.696 1504.171, 1892.485 1562.236 C 1889.819 1567.041, 1887.487 1570.820, 1887.302 1570.635 C 1887.117 1570.450, 1887.419 1565.169, 1887.974 1558.899 C 1891.339 1520.877, 1886.521 1474.196, 1875.866 1441.590 C 1866.451 1412.778, 1850.450 1385.437, 1833.135 1368.576 L 1828.078 1363.652 1826.105 1368.255 M 285.136 1389.561 C 262.041 1414.292, 245.791 1451.818, 238.831 1496.500 C 235.320 1519.033, 235.222 1574.284, 238.664 1590 C 238.965 1591.375, 236.857 1588.450, 233.979 1583.500 C 221.518 1562.067, 208.810 1545.707, 190.052 1526.946 C 175.568 1512.461, 167.100 1505.250, 151.988 1494.531 C 120.302 1472.058, 78.008 1452.773, 42.188 1444.464 C 38.716 1443.659, 35.679 1443, 35.438 1443 C 33.155 1443, 42.965 1468.380, 51.897 1485.581 C 75.223 1530.500, 110.415 1566.149, 160.376 1595.469 C 186.201 1610.624, 224.880 1626.115, 252.357 1632.306 L 259.214 1633.851 265.045 1621.568 C 301.256 1545.299, 314.922 1473.335, 303.971 1416.589 C 301.889 1405.797, 297.589 1392.004, 294.322 1385.636 L 292.365 1381.821 285.136 1389.561 M 934.338 1410.005 C 930.949 1411.112, 925.786 1413.814, 922.864 1416.010 C 909.648 1425.940, 903 1440.663, 903 1460 C 903 1483.390, 910.661 1495.462, 937.677 1514.644 C 947.899 1521.902, 951.576 1525.127, 953.637 1528.643 C 960.054 1539.592, 956.645 1552.569, 945.914 1558.044 C 938.048 1562.057, 922.529 1559.925, 912.816 1553.497 L 909 1550.972 909 1567.327 L 909 1583.682 913.750 1586.253 C 924.588 1592.118, 940.646 1594.099, 953 1591.095 C 966.653 1587.775, 978.456 1578.237, 984.327 1565.781 C 995.335 1542.424, 992.194 1517.763, 976.110 1501.274 C 972.788 1497.869, 964.942 1491.250, 958.673 1486.565 C 940.609 1473.065, 937 1468.103, 937 1456.767 C 937 1448.949, 939.268 1444.326, 944.604 1441.266 C 952.288 1436.861, 966.153 1438.982, 975.919 1446.056 L 980.049 1449.048 979.774 1432.274 L 979.500 1415.500 971 1412.079 C 963.455 1409.043, 961.265 1408.621, 951.500 1408.325 C 942.541 1408.053, 939.357 1408.365, 934.338 1410.005 M 671 1427 L 671 1443 685 1443 L 699 1443 699 1516.500 L 699 1590 716 1590 L 733 1590 733 1516.500 L 733 1443 747.500 1443 L 762 1443 762 1427 L 762 1411 716.500 1411 L 671 1411 671 1427 M 810.597 1412.750 C 810.301 1413.713, 801.036 1453.425, 790.008 1501 C 778.980 1548.575, 769.755 1588.063, 769.510 1588.750 C 769.163 1589.719, 772.941 1590, 786.314 1590 L 803.565 1590 806.436 1576.250 C 808.016 1568.688, 809.516 1561.928, 809.769 1561.228 C 810.125 1560.248, 814.486 1560.019, 828.795 1560.228 L 847.360 1560.500 850.009 1572.500 C 851.466 1579.100, 852.968 1585.737, 853.348 1587.250 L 854.038 1590 872.019 1590 C 885.735 1590, 890.001 1589.704, 890.004 1588.750 C 890.005 1588.063, 880.472 1547.787, 868.818 1499.250 L 847.629 1411 829.382 1411 C 812.875 1411, 811.083 1411.167, 810.597 1412.750 M 1123.998 1412.750 C 1123.996 1413.162, 1120.624 1451.975, 1116.503 1499 C 1112.382 1546.025, 1109.008 1585.963, 1109.005 1587.750 L 1109 1591 1127.500 1591 L 1146 1591 1146.002 1585.750 C 1146.009 1570.426, 1150.915 1460.582, 1151.563 1461.230 C 1151.760 1461.427, 1153.490 1471.918, 1155.408 1484.544 C 1158.219 1503.054, 1173.490 1582.190, 1175.619 1589.278 C 1176.101 1590.885, 1177.425 1591.030, 1189.302 1590.778 L 1202.451 1590.500 1209.660 1550.500 C 1213.625 1528.500, 1218.337 1499.362, 1220.131 1485.750 C 1221.925 1472.138, 1223.689 1461, 1224.053 1461 C 1224.949 1461, 1225.323 1465.784, 1229.661 1532.750 L 1233.434 1591 1251.331 1591 L 1269.227 1591 1268.625 1586.750 C 1268.295 1584.412, 1264.195 1545.600, 1259.515 1500.500 C 1254.835 1455.400, 1250.760 1417.037, 1250.458 1415.250 L 1249.909 1412 1226.455 1412 C 1208.360 1412, 1202.999 1412.286, 1202.996 1413.250 C 1202.987 1416.289, 1189.010 1517.323, 1188.533 1517.800 C 1188.240 1518.093, 1187.849 1518.146, 1187.664 1517.917 C 1187.479 1517.687, 1183.615 1494.550, 1179.077 1466.500 C 1174.540 1438.450, 1170.610 1414.713, 1170.346 1413.750 C 1169.906 1412.148, 1167.923 1412, 1146.933 1412 C 1134.320 1412, 1123.999 1412.338, 1123.998 1412.750 M 1291 1501.500 L 1291 1591 1326.500 1591 L 1362 1591 1362 1575 L 1362 1559 1344 1559 L 1326 1559 1326 1538 L 1326 1517 1342 1517 L 1358 1517 1358 1500.500 L 1358 1484 1342 1484 L 1326 1484 1326 1464 L 1326 1444 1344 1444 L 1362 1444 1362 1428 L 1362 1412 1326.500 1412 L 1291 1412 1291 1501.500 M 1418.525 1413.250 C 1418.298 1413.938, 1409.071 1453.650, 1398.021 1501.500 C 1386.971 1549.350, 1377.735 1589.063, 1377.496 1589.750 C 1377.160 1590.718, 1380.944 1591, 1394.292 1591 L 1411.521 1591 1414.548 1576.250 L 1417.575 1561.500 1436.263 1561.228 L 1454.951 1560.956 1455.487 1563.228 C 1455.782 1564.478, 1457.271 1571.125, 1458.796 1578 L 1461.567 1590.500 1479.784 1590.773 C 1489.803 1590.922, 1498.013 1590.697, 1498.028 1590.273 C 1498.044 1589.848, 1488.482 1549.563, 1476.778 1500.751 L 1455.500 1412.001 1437.219 1412.001 C 1423.480 1412, 1418.835 1412.311, 1418.525 1413.250 M 827 1456.907 C 827 1458.565, 822.130 1491.228, 819.043 1510.276 C 817.369 1520.603, 816 1529.715, 816 1530.526 C 816 1531.750, 818.226 1532, 829.108 1532 C 842.195 1532, 842.216 1531.996, 841.678 1529.750 C 839.006 1518.597, 829 1461.153, 829 1456.970 C 829 1456.436, 828.550 1456, 828 1456 C 827.450 1456, 827 1456.408, 827 1456.907 M 1435 1457.279 C 1435 1458.522, 1430.499 1488.975, 1427.462 1508.277 C 1425.405 1521.355, 1423.948 1532.281, 1424.225 1532.558 C 1424.502 1532.835, 1430.340 1532.935, 1437.199 1532.781 L 1449.669 1532.500 1444.956 1507.500 C 1442.364 1493.750, 1439.424 1476.763, 1438.421 1469.750 C 1437.419 1462.737, 1436.239 1457, 1435.799 1457 C 1435.360 1457, 1435 1457.125, 1435 1457.279 M 1778.046 1499.929 C 1756.653 1533.267, 1748.078 1587.355, 1754.572 1648 C 1757.385 1674.264, 1765.529 1713.037, 1773.779 1739.442 L 1776.573 1748.384 1782.536 1748.143 C 1801.958 1747.356, 1837.872 1739.969, 1863.607 1731.468 C 1927.834 1710.251, 1978.691 1672.890, 2011.191 1623.048 C 2018.938 1611.167, 2027.480 1595.147, 2026.559 1594.226 C 2025.392 1593.058, 2001.234 1596.063, 1984.881 1599.409 C 1913.532 1614.007, 1851.640 1650.078, 1810.804 1700.862 C 1807.426 1705.063, 1804.367 1708.848, 1804.007 1709.274 C 1803.647 1709.700, 1804.841 1704.300, 1806.662 1697.274 C 1814.429 1667.299, 1817.487 1639.928, 1816.722 1607.244 C 1815.858 1570.283, 1809.708 1543.562, 1796.036 1517.359 C 1790.863 1507.445, 1782.991 1495, 1781.892 1495 C 1781.516 1495, 1779.785 1497.218, 1778.046 1499.929 M 337.199 1518.303 C 323.895 1539.367, 314.877 1565.263, 310.836 1594 C 308.879 1607.913, 309.173 1648.133, 311.346 1664 C 313.592 1680.395, 318.343 1703.534, 321.965 1715.718 C 323.560 1721.081, 324.747 1725.586, 324.605 1725.729 C 324.462 1725.872, 321.145 1722.261, 317.234 1717.705 C 276.083 1669.769, 216.172 1635.929, 148 1622.115 C 129.952 1618.458, 99 1615.286, 99 1617.093 C 99 1618.749, 107.929 1633.978, 115.069 1644.500 C 154.555 1702.688, 219.614 1742.834, 300.500 1758.923 C 316.385 1762.082, 339.029 1764.997, 347.708 1764.999 L 352.915 1765 354.925 1758.250 C 361.459 1736.304, 368.112 1703.768, 371.640 1676.500 C 373.921 1658.873, 374.233 1610.733, 372.161 1596 C 368.867 1572.570, 362.805 1550.104, 355.524 1534.346 C 351.425 1525.475, 343.282 1512, 342.019 1512 C 341.557 1512, 339.388 1514.836, 337.199 1518.303 M 427 1572 L 427 1616 462 1616 L 497 1616 497 1572 L 497 1528 462 1528 L 427 1528 427 1572 M 1616 1580 L 1616 1624 1651 1624 L 1686 1624 1686 1580 L 1686 1536 1651 1536 L 1616 1536 1616 1580 M 1838.500 1614.496 C 1822.572 1620.105, 1825.462 1644.832, 1842.267 1646.727 C 1861.671 1648.914, 1869.271 1622.932, 1851.579 1614.896 C 1846.727 1612.693, 1843.869 1612.606, 1838.500 1614.496 M 1710.300 1621.250 C 1706.173 1627.020, 1701.560 1636.370, 1699.627 1642.884 L 1698.028 1648.268 1705.942 1656.884 C 1710.295 1661.623, 1718.423 1670, 1724.003 1675.500 L 1734.150 1685.500 1733.472 1679.500 C 1732.246 1668.646, 1728.959 1653.056, 1725.923 1643.701 C 1722.827 1634.159, 1715.167 1617, 1714.004 1617 C 1713.638 1617, 1711.971 1618.912, 1710.300 1621.250 M 411.150 1634.731 C 410.099 1636.804, 407.829 1642.623, 406.105 1647.662 C 396.190 1676.642, 394.275 1711.416, 400.553 1748.500 C 405.224 1776.092, 416.451 1810.019, 429.528 1836.057 C 432.051 1841.080, 433.527 1844.828, 432.808 1844.386 C 432.088 1843.945, 427.675 1840.452, 423 1836.625 C 378.857 1800.489, 321.320 1778.881, 256 1773.906 C 235.569 1772.351, 194.735 1773.931, 192.294 1776.373 C 190.901 1777.766, 213.332 1802.478, 225.812 1813.301 C 270.125 1851.727, 323.274 1873.403, 389.500 1880.059 C 404.912 1881.608, 443.444 1881.602, 456.994 1880.049 C 462.765 1879.387, 467.588 1878.746, 467.710 1878.623 C 468.425 1877.908, 470.137 1857.361, 471.148 1837.375 C 472.924 1802.234, 470.590 1766.858, 464.488 1736.452 C 456.578 1697.037, 441.800 1663.295, 422 1639.445 C 414.525 1630.441, 413.541 1630.013, 411.150 1634.731 M 275.500 1633.417 C 264.350 1638.394, 261.981 1653.233, 271.032 1661.410 C 279.204 1668.792, 291.938 1666.647, 297.209 1657 C 299.839 1652.187, 299.284 1643.612, 296.048 1639.068 C 291.755 1633.039, 282.221 1630.417, 275.500 1633.417 M 1616.007 1713.250 L 1616.014 1757.500 1811.659 1919.750 L 2007.304 2082 2046.735 2082 C 2072.189 2082, 2086.049 2081.651, 2085.833 2081.015 C 2085.650 2080.473, 1996.175 1987.576, 1887 1874.578 L 1688.500 1669.126 1652.250 1669.063 L 1616 1669 1616.007 1713.250 M 488.666 1684.041 L 479.832 1693.985 481.872 1700.242 C 486.911 1715.701, 490.788 1736.472, 493.494 1762.500 C 495.721 1783.919, 496.026 1786, 496.945 1786 C 497.397 1786, 498.038 1784.987, 498.370 1783.750 C 499.252 1780.459, 499.136 1673.991, 498.250 1674.048 C 497.837 1674.075, 493.525 1678.571, 488.666 1684.041 M 1889.500 1750.658 C 1879.093 1751.621, 1855.395 1755.324, 1845.500 1757.534 C 1831.545 1760.649, 1813 1766.038, 1813 1766.977 C 1813 1768.237, 1866.252 1823, 1867.477 1823 C 1869.305 1823, 1885.714 1811.376, 1896.693 1802.304 C 1902.148 1797.795, 1910.416 1790.145, 1915.066 1785.304 C 1928.570 1771.241, 1943.020 1752.688, 1941.587 1751.252 C 1940.823 1750.486, 1896.782 1749.983, 1889.500 1750.658 M 1666.536 1825.151 C 1667.731 1836.670, 1671.009 1862.188, 1671.595 1864.521 C 1671.911 1865.780, 1673.144 1867.072, 1674.335 1867.392 C 1677.605 1868.269, 1723.810 1868.116, 1724.361 1867.226 C 1724.744 1866.606, 1675.092 1825.283, 1667.796 1820.151 C 1665.948 1818.850, 1665.902 1819.032, 1666.536 1825.151 M 1552.027 1837.978 C 1546.118 1858.031, 1541.705 1878.537, 1538.571 1900.500 C 1536.287 1916.512, 1534 1942.060, 1534 1951.570 L 1534 1959.818 1546.750 1962.866 C 1562.315 1966.586, 1572.518 1968.450, 1589.500 1970.676 C 1607.903 1973.088, 1653.589 1973.083, 1671 1970.668 C 1703.845 1966.110, 1732.145 1957.737, 1757.833 1944.976 C 1772.321 1937.779, 1794.073 1924.625, 1793.945 1923.139 C 1793.914 1922.788, 1784.005 1914.625, 1771.925 1905 L 1749.960 1887.500 1741.230 1886.874 C 1728.973 1885.995, 1699.192 1887.643, 1683.083 1890.092 C 1647.290 1895.533, 1610.395 1908.628, 1581.241 1926.237 L 1571.982 1931.829 1577.355 1924.165 C 1594.708 1899.407, 1609.449 1870.483, 1618.498 1843.438 C 1620.466 1837.555, 1621.946 1832.624, 1621.788 1832.479 C 1621.630 1832.333, 1606.301 1832.044, 1587.724 1831.835 L 1553.949 1831.456 1552.027 1837.978 M 1489.564 1833.950 C 1484.916 1834.593, 1484.067 1835.219, 1475.048 1844.650 C 1437.443 1883.975, 1409.993 1939.533, 1391.923 2012.893 C 1389.631 2022.197, 1388.262 2029.662, 1388.756 2030.156 C 1390.576 2031.976, 1415.799 2042.290, 1430.158 2047.085 C 1469.468 2060.213, 1506.680 2065.875, 1545.866 2064.689 C 1579.313 2063.677, 1605.535 2058.416, 1635 2046.803 C 1650.574 2040.665, 1682 2023.441, 1682 2021.043 C 1682 2019.298, 1657.937 2009.321, 1639 2003.213 C 1602.783 1991.531, 1573.923 1987.436, 1533.629 1988.262 C 1512.742 1988.690, 1506.027 1989.209, 1493.853 1991.341 C 1473.029 1994.986, 1456.584 1999.457, 1438.693 2006.336 L 1431.886 2008.953 1441.864 1998.227 C 1468.447 1969.652, 1486.878 1943.380, 1500.612 1914.486 C 1510.477 1893.732, 1518.139 1867.167, 1519.505 1848.984 C 1519.814 1844.868, 1520.268 1839.588, 1520.514 1837.250 L 1520.962 1833 1507.731 1833.134 C 1500.454 1833.207, 1492.279 1833.575, 1489.564 1833.950 M 507.180 1839.737 C 514.371 1866.112, 538.434 1912.601, 558.915 1939.688 L 562.082 1943.876 552.291 1938.239 C 490.314 1902.559, 406.777 1892.428, 330.991 1911.399 C 316.165 1915.111, 312 1916.515, 312 1917.804 C 312 1919.089, 329.923 1933.646, 340.332 1940.814 C 376.704 1965.862, 419.228 1980.573, 468.317 1985.087 C 484.525 1986.578, 523.046 1985.755, 540 1983.556 C 562.119 1980.687, 597.643 1972.710, 600.395 1969.993 C 601.351 1969.050, 598.939 1940.664, 596.444 1923.500 C 592.723 1897.891, 584.741 1865.015, 577.264 1844.500 L 574.348 1836.500 540.251 1836.237 L 506.154 1835.974 507.180 1839.737 M 611 1842.449 C 611 1851.718, 613.606 1870.266, 616.435 1881.140 C 627.424 1923.362, 652.967 1965.521, 691.041 2004.272 C 698.488 2011.852, 703.888 2017.768, 703.041 2017.419 C 689.148 2011.695, 661.166 2004.277, 642.500 2001.370 C 627.584 1999.047, 577.159 1998.685, 562.500 2000.796 C 536.648 2004.519, 509.494 2011.373, 487.500 2019.727 C 473.379 2025.091, 455.567 2033.273, 454.598 2034.841 C 453.731 2036.245, 459.996 2040.218, 476.016 2048.424 C 511.704 2066.704, 543.890 2074.643, 586.500 2075.675 C 632.329 2076.785, 676.256 2068.340, 721.678 2049.688 C 730.961 2045.876, 746.600 2038.571, 747.824 2037.476 C 748.471 2036.896, 739.967 2005.871, 735.187 1991.374 C 727.652 1968.524, 720.569 1951.337, 709.894 1930 C 691.520 1893.276, 669.771 1864.362, 645.078 1843.833 L 635.656 1836 623.328 1836 L 611 1836 611 1842.449 M 1628.848 1856.961 C 1621.754 1860.819, 1618.515 1869.822, 1621.452 1877.515 C 1628.525 1896.034, 1655.410 1890.019, 1653.774 1870.284 C 1653.018 1861.171, 1647.484 1855.826, 1638.263 1855.302 C 1633.944 1855.057, 1631.585 1855.473, 1628.848 1856.961 M 488.481 1870.394 C 486.821 1871.117, 484.054 1873.313, 482.333 1875.274 C 476.318 1882.124, 477.015 1892.071, 483.950 1898.336 C 495.554 1908.819, 513.085 1900.096, 511.790 1884.484 C 511.256 1878.041, 508.124 1873.415, 502.599 1870.905 C 497.809 1868.730, 492.722 1868.546, 488.481 1870.394 M 219.023 1979.555 C 122.465 2081.325, 123.874 2079.706, 120.491 2092.697 C 116.472 2108.125, 121.004 2122.919, 131.272 2127.890 C 141.247 2132.719, 153.318 2132.499, 164.447 2127.286 C 169.135 2125.090, 189.255 2108.018, 259.447 2046.676 C 308.426 2003.873, 348.500 1968.465, 348.500 1967.991 C 348.500 1967.517, 344.675 1964.576, 340 1961.456 C 329.852 1954.682, 316.202 1943.803, 306.297 1934.596 C 299.661 1928.426, 290 1916.834, 290 1915.040 C 290 1914.016, 304.382 1907.499, 315.500 1903.485 C 324.299 1900.309, 335.639 1897.276, 347.329 1894.974 C 350.535 1894.342, 352.996 1893.663, 352.798 1893.464 C 352.599 1893.266, 343.676 1891.045, 332.968 1888.529 C 322.261 1886.013, 312.825 1883.771, 312 1883.547 C 311.039 1883.287, 277.607 1917.809, 219.023 1979.555 M 1389.537 1885.499 C 1380.391 1888.726, 1366.895 1895.673, 1357.253 1902.117 C 1311.838 1932.467, 1271.801 1985.015, 1240.698 2055.093 C 1232.406 2073.773, 1232.392 2073.820, 1234.659 2075.558 C 1239.354 2079.156, 1254.070 2088.710, 1261.871 2093.224 C 1340.529 2138.739, 1425.164 2150.652, 1498.500 2126.531 C 1505.650 2124.179, 1514.425 2120.931, 1518 2119.314 L 1524.500 2116.372 1518.122 2111.673 C 1504.285 2101.477, 1477.127 2086.612, 1457.283 2078.370 C 1433.740 2068.592, 1407.552 2061.338, 1381.870 2057.480 C 1353.056 2053.153, 1314.331 2054.015, 1287.685 2059.577 C 1283.936 2060.360, 1280.391 2061, 1279.807 2061 C 1279.222 2061, 1282.514 2058.314, 1287.122 2055.031 C 1343.215 2015.069, 1382.248 1964.047, 1394.998 1914.022 C 1396.692 1907.376, 1399.868 1888.081, 1399.980 1883.750 C 1400.015 1882.423, 1396.667 1882.983, 1389.537 1885.499 M 733.004 1892.622 C 733.012 1896.688, 735.926 1912.144, 738.387 1921.179 C 747.707 1955.388, 767.085 1986.282, 799.432 2018.500 C 816.636 2035.636, 829.325 2046.217, 848.217 2059.180 C 856.033 2064.542, 857.763 2066.102, 855.429 2065.678 C 835.791 2062.117, 828.417 2061.531, 803 2061.516 C 775.226 2061.499, 767.452 2062.189, 745.243 2066.637 C 702.690 2075.161, 655.828 2095.748, 621.475 2121.010 C 617.368 2124.029, 614.007 2126.785, 614.004 2127.133 C 614.002 2127.482, 614.788 2128.012, 615.750 2128.311 C 616.712 2128.610, 622.570 2130.681, 628.766 2132.914 C 653.108 2141.685, 675.763 2145.860, 703.590 2146.704 C 752.486 2148.188, 797.007 2137.857, 846.500 2113.543 C 872.551 2100.745, 903.946 2080.781, 903.968 2077 C 903.980 2074.957, 883.683 2033.883, 876.542 2021.500 C 869.138 2008.662, 855.427 1987.772, 847.673 1977.516 C 827.595 1950.962, 803.001 1926.918, 780.688 1912.027 C 766.090 1902.286, 746.100 1892.839, 737.006 1891.385 C 733.525 1890.828, 733 1890.991, 733.004 1892.622 M 1251.622 1944.555 C 1220.623 1950.714, 1188.630 1970.321, 1155.480 2003.477 C 1133.543 2025.419, 1116.183 2046.934, 1096.250 2076.886 L 1086 2092.288 1086 2069.144 L 1086 2046 1065.021 2046 L 1044.042 2046 1043.771 2065.658 L 1043.500 2085.315 1038.601 2077.908 C 1035.907 2073.833, 1029.349 2064.639, 1024.027 2057.475 C 977.328 1994.613, 927.207 1954.971, 883.795 1946.561 C 872.146 1944.304, 868 1943.886, 868 1944.965 C 868 1947.136, 873.189 1959.538, 878.082 1969.065 C 889.920 1992.110, 908.190 2016.263, 929.114 2036.527 C 952.490 2059.167, 975.957 2075.747, 1007.240 2091.724 C 1017.831 2097.133, 1018.292 2097.493, 1015 2097.768 C 995.156 2099.431, 956.488 2106.886, 933.520 2113.479 C 889.228 2126.191, 849.335 2146.170, 823.794 2168.432 C 815.624 2175.552, 801 2191.359, 801 2193.068 C 801 2195.685, 834.484 2194.726, 858.263 2191.428 C 925.357 2182.123, 990.897 2151.452, 1036.250 2108.137 L 1044 2100.735 1044 2133.867 L 1044 2167 1065 2167 L 1086 2167 1086 2131.891 L 1086 2096.782 1094.750 2105.074 C 1144.925 2152.624, 1212.775 2183.166, 1285.500 2190.936 C 1307.574 2193.295, 1334 2193.420, 1334 2191.165 C 1334 2190.785, 1330.900 2186.942, 1327.111 2182.626 C 1295.286 2146.374, 1240.581 2119.513, 1169 2104.990 C 1153.877 2101.922, 1122.155 2097.025, 1117.212 2096.996 C 1116.820 2096.993, 1122.575 2093.698, 1130 2089.672 C 1179.265 2062.962, 1213.927 2032.377, 1241.014 1991.714 C 1251.606 1975.815, 1265 1949.157, 1265 1943.977 C 1265 1942.673, 1260.010 1942.888, 1251.622 1944.555 M 1353.450 2012.351 C 1349.814 2014.001, 1345.244 2019.180, 1344.378 2022.631 C 1343.349 2026.729, 1344.592 2034.973, 1346.669 2037.824 C 1349.121 2041.192, 1356.461 2045, 1360.500 2045 C 1364.493 2045, 1371.870 2041.205, 1374.258 2037.923 C 1379.768 2030.348, 1377.773 2019.653, 1369.730 2013.648 C 1366.378 2011.145, 1357.642 2010.449, 1353.450 2012.351 M 769.500 2018.835 C 751.958 2027.171, 758.441 2052.372, 777.716 2050.774 C 786.564 2050.040, 792.040 2044.564, 792.774 2035.716 C 793.860 2022.611, 781.073 2013.336, 769.500 2018.835" stroke="none" fill="#1c2c54" fill-rule="evenodd"/></svg>