<?xml version="1.0" encoding="UTF-8"?>
<!DOCTYPE svg PUBLIC "-//W3C//DTD SVG 1.1//EN" "http://www.w3.org/Graphics/SVG/1.1/DTD/svg11.dtd">
<svg xmlns="http://www.w3.org/2000/svg" version="1.1" width="376px" height="118px" style="shape-rendering:geometricPrecision; text-rendering:geometricPrecision; image-rendering:optimizeQuality; fill-rule:evenodd; clip-rule:evenodd" xmlns:xlink="http://www.w3.org/1999/xlink">
<g><path style="opacity:1" fill="#fcfcfd" d="M -0.5,-0.5 C 124.833,-0.5 250.167,-0.5 375.5,-0.5C 375.5,38.8333 375.5,78.1667 375.5,117.5C 250.167,117.5 124.833,117.5 -0.5,117.5C -0.5,78.1667 -0.5,38.8333 -0.5,-0.5 Z"/></g>
<g><path style="opacity:1" fill="#6986b6" d="M 209.5,19.5 C 226.325,18.5034 243.325,18.1701 260.5,18.5C 260.5,22.5 260.5,26.5 260.5,30.5C 254.5,30.5 248.5,30.5 242.5,30.5C 247.975,29.5111 253.642,29.1778 259.5,29.5C 259.5,26.1667 259.5,22.8333 259.5,19.5C 242.833,19.5 226.167,19.5 209.5,19.5 Z"/></g>
<g><path style="opacity:1" fill="#234d94" d="M 126.5,71.5 C 115.679,72.4946 104.679,72.8279 93.5,72.5C 92.461,69.2182 91.1276,66.0516 89.5,63C 95.8594,62.8306 102.193,62.3306 108.5,61.5C 104.667,51.8333 100.833,42.1667 97,32.5C 90.8146,45.8891 85.3146,59.5558 80.5,73.5C 72.16,73.6664 63.8267,73.4997 55.5,73C 48.1176,64.4061 40.6176,55.9061 33,47.5C 32.5002,56.1603 32.3336,64.8269 32.5,73.5C 27.8333,73.5 23.1667,73.5 18.5,73.5C 18.5,55.5 18.5,37.5 18.5,19.5C 23.1667,19.5 27.8333,19.5 32.5,19.5C 32.3336,27.84 32.5003,36.1733 33,44.5C 33.7172,43.9558 34.2172,43.2891 34.5,42.5C 41.8347,35.0219 48.8347,27.1886 55.5,19C 61.1667,18.3333 66.8333,18.3333 72.5,19C 63.9407,27.7228 55.9407,36.8894 48.5,46.5C 54.4921,53.8246 60.8254,60.8246 67.5,67.5C 74.5645,51.3012 81.2312,34.9678 87.5,18.5C 93.5368,18.1707 99.5368,18.5041 105.5,19.5C 112.901,36.7092 119.901,54.0425 126.5,71.5 Z"/></g>
<g><path style="opacity:1" fill="#abbbd6" d="M 18.5,19.5 C 23.3054,18.5128 28.3054,18.1795 33.5,18.5C 33.1743,26.6841 33.5076,34.6841 34.5,42.5C 34.2172,43.2891 33.7172,43.9558 33,44.5C 32.5003,36.1733 32.3336,27.84 32.5,19.5C 27.8333,19.5 23.1667,19.5 18.5,19.5 Z"/></g>
<g><path style="opacity:1" fill="#a4b5d3" d="M 146.5,19.5 C 141.833,19.5 137.167,19.5 132.5,19.5C 132.5,37.5 132.5,55.5 132.5,73.5C 131.503,55.3409 131.17,37.0076 131.5,18.5C 136.695,18.1795 141.695,18.5128 146.5,19.5 Z"/></g>
<g><path style="opacity:1" fill="#1e4b93" d="M 146.5,19.5 C 146.5,37.5 146.5,55.5 146.5,73.5C 141.833,73.5 137.167,73.5 132.5,73.5C 132.5,55.5 132.5,37.5 132.5,19.5C 137.167,19.5 141.833,19.5 146.5,19.5 Z"/></g>
<g><path style="opacity:1" fill="#204c93" d="M 170.5,19.5 C 181.167,19.5 191.833,19.5 202.5,19.5C 202.5,22.8333 202.5,26.1667 202.5,29.5C 193.318,29.1734 184.318,29.5067 175.5,30.5C 171.854,31.4615 170.687,33.7949 172,37.5C 172.308,38.3081 172.808,38.9747 173.5,39.5C 181.512,40.1065 189.512,40.9398 197.5,42C 207.91,47.5351 210.41,55.7017 205,66.5C 201.79,69.6883 197.957,71.6883 193.5,72.5C 182.167,72.5 170.833,72.5 159.5,72.5C 159.5,69.1667 159.5,65.8333 159.5,62.5C 169.681,62.8274 179.681,62.494 189.5,61.5C 191.017,61.4894 192.184,60.8228 193,59.5C 193.758,57.2305 193.591,55.0639 192.5,53C 183.876,51.9332 175.209,50.9332 166.5,50C 156.683,44.5265 154.183,36.6931 159,26.5C 161.851,22.4936 165.685,20.1602 170.5,19.5 Z"/></g>
<g><path style="opacity:1" fill="#1f4b93" d="M 209.5,19.5 C 226.167,19.5 242.833,19.5 259.5,19.5C 259.5,22.8333 259.5,26.1667 259.5,29.5C 253.642,29.1778 247.975,29.5111 242.5,30.5C 241.504,44.3234 241.171,58.3234 241.5,72.5C 237.167,72.5 232.833,72.5 228.5,72.5C 228.829,58.3234 228.496,44.3234 227.5,30.5C 221.5,30.5 215.5,30.5 209.5,30.5C 209.5,26.8333 209.5,23.1667 209.5,19.5 Z"/></g>
<g><path style="opacity:1" fill="#224d94" d="M 298.5,19.5 C 304.537,19.1707 310.537,19.5041 316.5,20.5C 323.833,37.8333 331.167,55.1667 338.5,72.5C 332.833,72.8333 327.167,73.1667 321.5,73.5C 315.423,73.4755 309.59,72.8088 304,71.5C 303.108,68.7163 301.942,66.0496 300.5,63.5C 306.463,62.5041 312.463,62.1707 318.5,62.5C 315.691,52.5415 312.024,42.8749 307.5,33.5C 301.187,46.437 295.854,59.7703 291.5,73.5C 286.456,73.8275 281.456,73.4941 276.5,72.5C 283.841,54.8044 291.174,37.1377 298.5,19.5 Z"/></g>
<g><path style="opacity:1" fill="#1e4a93" d="M 342.5,19.5 C 347.167,19.5 351.833,19.5 356.5,19.5C 356.5,37.5 356.5,55.5 356.5,73.5C 351.833,73.5 347.167,73.5 342.5,73.5C 342.5,55.5 342.5,37.5 342.5,19.5 Z"/></g>
<g><path style="opacity:1" fill="#6684b5" d="M 170.5,19.5 C 181.321,18.5054 192.321,18.1721 203.5,18.5C 203.5,22.5 203.5,26.5 203.5,30.5C 194.167,30.5 184.833,30.5 175.5,30.5C 184.318,29.5067 193.318,29.1734 202.5,29.5C 202.5,26.1667 202.5,22.8333 202.5,19.5C 191.833,19.5 181.167,19.5 170.5,19.5 Z"/></g>
<g><path style="opacity:1" fill="#6382b4" d="M 227.5,30.5 C 228.496,44.3234 228.829,58.3234 228.5,72.5C 232.833,72.5 237.167,72.5 241.5,72.5C 241.171,58.3234 241.504,44.3234 242.5,30.5C 242.5,44.8333 242.5,59.1667 242.5,73.5C 237.5,73.5 232.5,73.5 227.5,73.5C 227.5,59.1667 227.5,44.8333 227.5,30.5 Z"/></g>
<g><path style="opacity:1" fill="#486ca7" d="M 126.5,71.5 C 127.043,71.56 127.376,71.8933 127.5,72.5C 116.007,73.824 104.674,73.824 93.5,72.5C 104.679,72.8279 115.679,72.4946 126.5,71.5 Z"/></g>
<g><path style="opacity:1" fill="#6c89b8" d="M 189.5,61.5 C 179.681,62.494 169.681,62.8274 159.5,62.5C 159.5,65.8333 159.5,69.1667 159.5,72.5C 170.833,72.5 182.167,72.5 193.5,72.5C 182.012,73.4949 170.345,73.8283 158.5,73.5C 158.5,69.5 158.5,65.5 158.5,61.5C 168.833,61.5 179.167,61.5 189.5,61.5 Z"/></g>
<g><path style="opacity:1" fill="#151718" d="M 127.5,92.5 C 127.217,93.2891 126.717,93.9558 126,94.5C 125.667,98.5 125.333,102.5 125,106.5C 124.333,99.5 124.333,92.5 125,85.5C 124.97,88.3615 125.803,90.6948 127.5,92.5 Z"/></g>
<g><path style="opacity:1" fill="#37393a" d="M 154.5,84.5 C 155.822,87.7681 156.489,91.4348 156.5,95.5C 156.167,99.1667 155.833,102.833 155.5,106.5C 154.503,99.1968 154.169,91.8635 154.5,84.5 Z"/></g>
<g><path style="opacity:1" fill="#292c2d" d="M 215.5,84.5 C 216.821,87.5982 217.488,91.0982 217.5,95C 217.167,98.5 216.833,102 216.5,105.5C 213.667,105.418 210.667,105.252 207.5,105C 204.538,100.01 204.872,95.3438 208.5,91C 210.568,90.3131 212.568,90.4798 214.5,91.5C 215.474,89.2573 215.808,86.924 215.5,84.5 Z"/></g>
<g><path style="opacity:1" fill="#161819" d="M 310.5,85.5 C 309.99,88.3878 310.656,90.7211 312.5,92.5C 310.862,96.9502 310.029,101.617 310,106.5C 309.179,99.3209 309.345,92.3209 310.5,85.5 Z"/></g>
<g><path style="opacity:1" fill="#838485" d="M 310.5,85.5 C 311.167,87.5 311.833,89.5 312.5,91.5C 312.5,91.8333 312.5,92.1667 312.5,92.5C 310.656,90.7211 309.99,88.3878 310.5,85.5 Z"/></g>
<g><path style="opacity:1" fill="#4b4e4e" d="M 354.5,84.5 C 355.822,87.7681 356.489,91.4348 356.5,95.5C 356.167,99.1667 355.833,102.833 355.5,106.5C 354.503,99.1968 354.169,91.8635 354.5,84.5 Z"/></g>
<g><path style="opacity:1" fill="#515454" d="M 35.5,86.5 C 37.337,86.6395 37.6704,87.3061 36.5,88.5C 35.7025,88.0431 35.3691,87.3764 35.5,86.5 Z"/></g>
<g><path style="opacity:1" fill="#2c2f30" d="M 251.5,86.5 C 253.176,87.1834 253.843,88.5168 253.5,90.5C 258.833,91.1667 258.833,91.8333 253.5,92.5C 253.335,96.1817 253.501,99.8484 254,103.5C 255.067,104.191 256.234,104.691 257.5,105C 255.559,105.743 253.726,105.576 252,104.5C 252.018,99.9308 251.185,95.5975 249.5,91.5C 251.005,90.1585 251.672,88.4918 251.5,86.5 Z"/></g>
<g><path style="opacity:1" fill="#565859" d="M 35.5,90.5 C 36.8117,92.7432 37.4783,95.4098 37.5,98.5C 37.1667,101.167 36.8333,103.833 36.5,106.5C 35.5052,101.208 35.1718,95.8746 35.5,90.5 Z"/></g>
<g><path style="opacity:1" fill="#9c9d9e" d="M 41.5,91.5 C 41.3342,96.1785 41.5008,100.845 42,105.5C 42.1773,101.644 42.6773,97.977 43.5,94.5C 43.5,98.5 43.5,102.5 43.5,106.5C 42.5,106.5 41.5,106.5 40.5,106.5C 40.1795,101.305 40.5128,96.3054 41.5,91.5 Z"/></g>
<g><path style="opacity:1" fill="#292c2d" d="M 113.5,90.5 C 116.157,90.162 118.49,90.8287 120.5,92.5C 111.783,91.4233 109.283,95.09 113,103.5C 115.812,104.498 118.646,104.664 121.5,104C 117.775,107.487 114.275,107.32 111,103.5C 109.743,98.6169 110.576,94.2835 113.5,90.5 Z"/></g>
<g><path style="opacity:1" fill="#a4a6a6" d="M 141.5,102.5 C 140.677,99.023 140.177,95.3563 140,91.5C 139.501,95.1516 139.335,98.8183 139.5,102.5C 138.517,98.7016 138.183,94.7016 138.5,90.5C 139.5,90.5 140.5,90.5 141.5,90.5C 141.5,94.5 141.5,98.5 141.5,102.5 Z"/></g>
<g><path style="opacity:1" fill="#2c2e2f" d="M 139.5,102.5 C 139.335,98.8183 139.501,95.1516 140,91.5C 140.177,95.3563 140.677,99.023 141.5,102.5C 143.54,105.134 145.707,105.134 148,102.5C 148.173,98.4592 148.673,94.4592 149.5,90.5C 150.833,95.5 150.833,100.5 149.5,105.5C 146.667,105.418 143.667,105.252 140.5,105C 139.748,104.329 139.414,103.496 139.5,102.5 Z"/></g>
<g><path style="opacity:1" fill="#282b2c" d="M 182.5,90.5 C 185.149,90.8521 187.815,91.1854 190.5,91.5C 188.659,92.2304 186.825,92.8971 185,93.5C 184.827,97.5408 184.327,101.541 183.5,105.5C 182.506,100.544 182.173,95.544 182.5,90.5 Z"/></g>
<g><path style="opacity:1" fill="#a0a2a2" d="M 223.5,102.5 C 222.677,99.023 222.177,95.3563 222,91.5C 221.501,95.1516 221.335,98.8183 221.5,102.5C 220.517,98.7016 220.183,94.7016 220.5,90.5C 221.5,90.5 222.5,90.5 223.5,90.5C 223.5,94.5 223.5,98.5 223.5,102.5 Z"/></g>
<g><path style="opacity:1" fill="#2a2c2d" d="M 221.5,102.5 C 221.335,98.8183 221.501,95.1516 222,91.5C 222.177,95.3563 222.677,99.023 223.5,102.5C 225.54,105.134 227.707,105.134 230,102.5C 230.173,98.4592 230.673,94.4592 231.5,90.5C 232.833,95.5 232.833,100.5 231.5,105.5C 228.667,105.418 225.667,105.252 222.5,105C 221.748,104.329 221.414,103.496 221.5,102.5 Z"/></g>
<g><path style="opacity:1" fill="#303334" d="M 312.5,92.5 C 312.5,92.1667 312.5,91.8333 312.5,91.5C 319.27,89.6003 321.937,92.2669 320.5,99.5C 320.167,101.833 319.833,104.167 319.5,106.5C 318.672,102.204 318.172,97.8711 318,93.5C 316.301,92.5939 314.467,92.2606 312.5,92.5 Z"/></g>
<g><path style="opacity:1" fill="#2a2d2e" d="M 327.5,90.5 C 335.421,90.635 338.255,94.635 336,102.5C 332.829,107.414 329.163,107.747 325,103.5C 323.743,98.6169 324.576,94.2835 327.5,90.5 Z"/></g>
<g><path style="opacity:1" fill="#1f2223" d="M 59.5,92.5 C 59.8182,97.0323 59.4849,101.366 58.5,105.5C 58.6655,101.486 58.4988,97.4862 58,93.5C 56.3005,92.5939 54.4672,92.2606 52.5,92.5C 54.7504,89.9659 57.0837,89.9659 59.5,92.5 Z"/></g>
<g><path style="opacity:1" fill="#f9f9f9" d="M 209.5,92.5 C 213.821,91.8244 215.821,93.6577 215.5,98C 215.596,104.268 213.096,105.768 208,102.5C 207.037,98.8513 207.537,95.518 209.5,92.5 Z"/></g>
<g><path style="opacity:1" fill="#f6f6f6" d="M 327.5,92.5 C 330.044,92.1043 332.211,92.771 334,94.5C 335.004,97.9926 334.504,101.159 332.5,104C 329.472,105.14 327.305,104.306 326,101.5C 325.068,98.1769 325.568,95.1769 327.5,92.5 Z"/></g>
<g><path style="opacity:1" fill="#222526" d="M 52.5,92.5 C 51.1686,110.031 50.0019,110.365 49,93.5C 46.7655,92.0198 44.9321,92.3531 43.5,94.5C 42.6773,97.977 42.1773,101.644 42,105.5C 41.5008,100.845 41.3342,96.1785 41.5,91.5C 42.1174,91.6107 42.6174,91.944 43,92.5C 43.804,91.1955 44.9707,90.5288 46.5,90.5C 48.516,91.1776 50.516,91.8443 52.5,92.5 Z"/></g>
<g><path style="opacity:1" fill="#2a2d2e" d="M 20.5,98.5 C 19.8333,100.833 19.1667,103.167 18.5,105.5C 18.17,98.8002 18.5033,92.1335 19.5,85.5C 20.1667,88.5 20.8333,91.5 21.5,94.5C 24.688,92.1457 27.3547,89.3124 29.5,86C 30.5,85.3333 31.5,85.3333 32.5,86C 29.6503,88.6824 26.9836,91.5157 24.5,94.5C 26.9749,98.1421 29.6415,101.642 32.5,105C 31.365,105.749 30.365,105.583 29.5,104.5C 27.6201,101.909 25.6201,99.4087 23.5,97C 22.0024,96.4153 21.0024,96.9153 20.5,98.5 Z"/></g>
<g><path style="opacity:1" fill="#1b1e1f" d="M 238.5,90.5 C 241.652,89.9586 244.152,90.9586 246,93.5C 246.667,97.8333 246.667,102.167 246,106.5C 242.832,106.887 239.665,106.387 236.5,105C 235.018,102.408 235.352,100.075 237.5,98C 240.146,97.5026 242.813,97.3359 245.5,97.5C 245.703,95.6096 245.037,94.1096 243.5,93C 241.102,92.6256 238.769,92.6256 236.5,93C 237.381,92.2917 238.047,91.4584 238.5,90.5 Z"/></g>
<g><path style="opacity:1" fill="#2a2c2d" d="M 283.5,85.5 C 286.734,85.2046 289.734,85.8713 292.5,87.5C 289.667,87.5815 286.667,87.7482 283.5,88C 282.167,90 282.167,92 283.5,94C 286.903,94.5783 290.07,95.7449 293,97.5C 294.033,104.76 290.867,107.593 283.5,106C 281.385,105.576 280.552,104.409 281,102.5C 283.579,104.347 286.412,104.847 289.5,104C 291.602,102.267 291.935,100.267 290.5,98C 286.81,97.4642 283.644,95.9642 281,93.5C 280.018,90.2253 280.851,87.5586 283.5,85.5 Z"/></g>
<g><path style="opacity:1" fill="#6a6c6d" d="M 59.5,92.5 C 60.8124,97.0152 60.8124,101.682 59.5,106.5C 58.8933,106.376 58.56,106.043 58.5,105.5C 59.4849,101.366 59.8182,97.0323 59.5,92.5 Z"/></g>
<g><path style="opacity:1" fill="#252728" d="M 84.5,90.5 C 87.6516,89.9586 90.1516,90.9586 92,93.5C 92.6667,97.8333 92.6667,102.167 92,106.5C 90.0885,105.555 88.0885,105.555 86,106.5C 81.9177,105.841 80.5844,103.508 82,99.5C 84.4815,97.6863 87.3148,97.0196 90.5,97.5C 90.7135,95.8561 90.3802,94.3561 89.5,93C 87.0049,92.8425 84.6716,92.6759 82.5,92.5C 83.2427,91.8182 83.9094,91.1515 84.5,90.5 Z"/></g>
<g><path style="opacity:1" fill="#252728" d="M 99.5,90.5 C 105.215,90.2151 107.882,92.8818 107.5,98.5C 104.167,98.5 100.833,98.5 97.5,98.5C 97.178,100.722 97.8446,102.556 99.5,104C 101.995,104.157 104.328,104.324 106.5,104.5C 103.297,107.122 100.13,107.122 97,104.5C 94.4246,99.034 95.258,94.3673 99.5,90.5 Z"/></g>
<g><path style="opacity:1" fill="#edeeee" d="M 99.5,92.5 C 103.938,91.4251 105.938,93.0917 105.5,97.5C 102.833,97.5 100.167,97.5 97.5,97.5C 97.3915,95.4862 98.0582,93.8195 99.5,92.5 Z"/></g>
<g><path style="opacity:1" fill="#252829" d="M 263.5,90.5 C 269.215,90.2151 271.882,92.8818 271.5,98.5C 268.167,98.5 264.833,98.5 261.5,98.5C 261.178,100.722 261.845,102.556 263.5,104C 266.2,104.253 268.867,104.253 271.5,104C 261.889,108.409 258.056,105.242 260,94.5C 260.69,92.6498 261.856,91.3164 263.5,90.5 Z"/></g>
<g><path style="opacity:1" fill="#f3f3f3" d="M 263.5,92.5 C 267.349,92.0193 269.349,93.686 269.5,97.5C 266.833,97.5 264.167,97.5 261.5,97.5C 261.392,95.4862 262.058,93.8195 263.5,92.5 Z"/></g>
<g><path style="opacity:1" fill="#2b2d2e" d="M 127.5,92.5 C 129.669,89.932 132.002,89.932 134.5,92.5C 135.833,97.1667 135.833,101.833 134.5,106.5C 133.672,102.204 133.172,97.8711 133,93.5C 131.301,92.5939 129.467,92.2606 127.5,92.5 Z"/></g>
<g><path style="opacity:1" fill="#232626" d="M 194.5,90.5 C 197.652,89.9586 200.152,90.9586 202,93.5C 202.828,97.8713 202.661,102.205 201.5,106.5C 198.933,106.222 196.267,106.056 193.5,106C 190.833,103.333 190.833,100.667 193.5,98C 195.81,97.5034 198.143,97.3367 200.5,97.5C 200.714,95.8561 200.38,94.3561 199.5,93C 197.005,92.8425 194.672,92.6759 192.5,92.5C 193.243,91.8182 193.909,91.1515 194.5,90.5 Z"/></g>
<g><path style="opacity:1" fill="#6f7172" d="M 20.5,98.5 C 20.8134,101.247 20.48,103.914 19.5,106.5C 18.8933,106.376 18.56,106.043 18.5,105.5C 19.1667,103.167 19.8333,100.833 20.5,98.5 Z"/></g>
<g><path style="opacity:1" fill="#f0f0f0" d="M 84.5,98.5 C 86.5,98.5 88.5,98.5 90.5,98.5C 90.6951,103.486 88.5284,105.152 84,103.5C 83.3603,101.735 83.5269,100.068 84.5,98.5 Z"/></g>
<g><path style="opacity:1" fill="#e8e9e9" d="M 194.5,98.5 C 196.5,98.5 198.5,98.5 200.5,98.5C 201.127,101.864 199.794,103.864 196.5,104.5C 192.319,103.495 191.653,101.495 194.5,98.5 Z"/></g>
<g><path style="opacity:1" fill="#e0e1e1" d="M 238.5,98.5 C 240.833,98.5 243.167,98.5 245.5,98.5C 245.519,103.984 243.019,105.65 238,103.5C 237.36,101.735 237.527,100.068 238.5,98.5 Z"/></g>
<g><path style="opacity:1" fill="#2b2d2e" d="M 342.5,90.5 C 350.421,90.635 353.255,94.635 351,102.5C 347.74,107.285 344.073,107.619 340,103.5C 338.743,98.6169 339.576,94.2835 342.5,90.5 Z"/></g>
<g><path style="opacity:1" fill="#f3f4f4" d="M 342.5,92.5 C 345.044,92.1043 347.211,92.771 349,94.5C 350.004,97.9926 349.504,101.159 347.5,104C 344.472,105.14 342.305,104.306 341,101.5C 340.068,98.1769 340.568,95.1769 342.5,92.5 Z"/></g>
<g><path style="opacity:1" fill="#313334" d="M 76.5,86.5 C 77.8142,88.9151 78.4809,91.7485 78.5,95C 80.5607,102.567 77.894,106.234 70.5,106C 68.7295,105.465 68.3961,104.631 69.5,103.5C 71.9686,105.007 74.1353,104.673 76,102.5C 76.4994,97.1771 76.666,91.8437 76.5,86.5 Z"/></g>
<g><path style="opacity:1" fill="#27292a" d="M 168.5,85.5 C 172.064,85.1506 175.398,85.8173 178.5,87.5C 175.031,87.4256 171.531,87.7589 168,88.5C 166.466,92.7109 166.133,97.0442 167,101.5C 169.21,104.29 172.044,105.123 175.5,104C 177.291,101.894 177.958,99.3938 177.5,96.5C 175.801,96.6602 174.134,96.4935 172.5,96C 174.473,95.5045 176.473,95.3379 178.5,95.5C 180.688,105.722 177.021,108.889 167.5,105C 165.138,102.129 164.138,98.7957 164.5,95C 164.667,93.1667 164.833,91.3333 165,89.5C 166.376,88.2949 167.542,86.9616 168.5,85.5 Z"/></g>
<g><path style="opacity:1" fill="#2e3132" d="M 299.5,90.5 C 301.527,90.3379 303.527,90.5045 305.5,91C 305.957,91.414 306.291,91.914 306.5,92.5C 304.43,92.5523 302.097,92.719 299.5,93C 297.496,95.8408 296.996,99.0074 298,102.5C 298.956,103.894 300.289,104.561 302,104.5C 303.841,103.875 305.674,103.708 307.5,104C 302.623,107.891 298.789,107.058 296,101.5C 294.662,96.9597 295.829,93.293 299.5,90.5 Z"/></g>
</svg>
