<?xml version="1.0" encoding="UTF-8"?>
<!DOCTYPE svg PUBLIC "-//W3C//DTD SVG 1.1//EN" "http://www.w3.org/Graphics/SVG/1.1/DTD/svg11.dtd">
<svg xmlns="http://www.w3.org/2000/svg" version="1.1" width="1024px" height="1024px" style="shape-rendering:geometricPrecision; text-rendering:geometricPrecision; image-rendering:optimizeQuality; fill-rule:evenodd; clip-rule:evenodd" xmlns:xlink="http://www.w3.org/1999/xlink">
<g><path style="opacity:0.894" fill="#1f4899" d="M 495.5,7.5 C 669.936,7.14122 810.102,75.4746 916,212.5C 996.204,324.654 1026.87,449.32 1008,586.5C 984.707,723.643 917.873,833.81 807.5,917C 683.309,1004.37 546.643,1032.37 397.5,1001C 264.463,968.122 160.629,894.622 86,780.5C 9.57733,655.552 -10.756,521.886 25,379.5C 68.844,229.663 161.011,120.829 301.5,53C 363.327,25.2714 427.993,10.1047 495.5,7.5 Z M 487.5,13.5 C 640.835,10.1914 770.335,63.5248 876,173.5C 981.09,291.761 1023.09,429.761 1002,587.5C 977.127,727.848 906.961,839.015 791.5,921C 662.751,1005.62 523.751,1028.29 374.5,989C 248.051,950.565 150.551,875.065 82,762.5C 17.0924,648.716 -1.57427,527.716 26,399.5C 65.2793,244.914 156.113,132.081 298.5,61C 358.566,33.0669 421.566,17.2336 487.5,13.5 Z M 520.5,37.5 C 527.231,36.4476 531.731,39.1142 534,45.5C 534.839,50.9212 534.506,56.2545 533,61.5C 528.128,69.6898 522.462,70.3565 516,63.5C 513.083,57.3252 512.75,50.9918 515,44.5C 515.967,41.3794 517.8,39.046 520.5,37.5 Z M 492.5,100.5 C 623.338,98.1926 732.505,145.193 820,241.5C 900.721,337.663 932.721,448.329 916,573.5C 893.155,701.593 826.322,799.093 715.5,866C 607.973,925.502 495.639,936.502 378.5,899C 254.424,853.257 169.257,768.424 123,644.5C 84.9327,527.175 95.5994,414.509 155,306.5C 232.049,180.685 344.549,112.018 492.5,100.5 Z M 899.5,248.5 C 900.239,248.369 900.906,248.536 901.5,249C 898.016,253.451 894.183,257.618 890,261.5C 888.533,258.734 886.7,256.234 884.5,254C 889.714,252.432 894.714,250.599 899.5,248.5 Z M 117.5,251.5 C 125.424,250.751 131.924,253.418 137,259.5C 140.377,265.139 139.877,270.473 135.5,275.5C 126.997,270.416 118.664,265.083 110.5,259.5C 112.169,256.17 114.502,253.503 117.5,251.5 Z M 946.5,334.5 C 947.496,334.414 948.329,334.748 949,335.5C 951.991,342.243 950.491,347.743 944.5,352C 933.885,358.529 925.885,356.363 920.5,345.5C 929.07,341.427 937.737,337.76 946.5,334.5 Z M 59.5,435.5 C 60.8333,435.5 62.1667,435.5 63.5,435.5C 62.8413,438.455 62.5079,441.455 62.5,444.5C 56.7517,442.638 51.085,440.471 45.5,438C 50.336,437.32 55.0027,436.486 59.5,435.5 Z M 49.5,520.5 C 58.068,518.622 64.568,521.289 69,528.5C 69.4966,530.81 69.6633,533.143 69.5,535.5C 59.521,536.296 49.521,536.629 39.5,536.5C 38.4256,528.269 41.7589,522.936 49.5,520.5 Z M 59.5,573.5 C 60.5,573.5 61.5,573.5 62.5,573.5C 62.5079,576.545 62.8413,579.545 63.5,582.5C 57.8055,581.913 52.1388,581.08 46.5,580C 51.1565,578.294 55.4898,576.127 59.5,573.5 Z M 74.5,637.5 C 75.4972,637.47 76.1639,637.97 76.5,639C 77.0903,641.196 77.7569,643.362 78.5,645.5C 72.8625,646.663 67.1959,646.83 61.5,646C 65.8984,643.143 70.2317,640.309 74.5,637.5 Z M 936.5,639.5 C 944.845,639.114 952.012,641.78 958,647.5C 960.905,656.359 957.738,661.359 948.5,662.5C 941.595,662.13 935.761,659.463 931,654.5C 927.816,647.551 929.65,642.551 936.5,639.5 Z M 483.5,710.5 C 490.059,711.058 493.726,714.725 494.5,721.5C 492.173,726.829 488.173,728.662 482.5,727C 478.325,721.231 478.658,715.731 483.5,710.5 Z M 100.5,723.5 C 105.456,725.122 108.789,728.455 110.5,733.5C 107.065,735.633 103.565,737.633 100,739.5C 97.5408,736.755 95.7074,733.589 94.5,730C 95.3643,726.64 97.3643,724.474 100.5,723.5 Z M 897.5,724.5 C 906.21,724.437 913.376,727.771 919,734.5C 921.736,746.751 916.902,751.251 904.5,748C 895.925,745.121 891.758,739.288 892,730.5C 893.36,727.977 895.193,725.977 897.5,724.5 Z M 137.5,758.5 C 145.154,756.988 149.82,759.988 151.5,767.5C 148.201,776.748 141.701,782.414 132,784.5C 120.76,779.566 119.594,772.732 128.5,764C 131.564,762.141 134.564,760.308 137.5,758.5 Z M 289.5,892.5 C 291.027,892.427 292.027,893.094 292.5,894.5C 290.973,894.573 289.973,893.906 289.5,892.5 Z M 712.5,895.5 C 718.555,894.942 719.888,897.109 716.5,902C 714.726,902.97 712.893,903.804 711,904.5C 709.167,904 708,902.833 707.5,901C 708.679,898.657 710.346,896.824 712.5,895.5 Z M 279.5,897.5 C 283.715,897.768 286.715,899.768 288.5,903.5C 285.544,908.439 282.044,908.772 278,904.5C 277.167,901.829 277.667,899.496 279.5,897.5 Z M 495.5,958.5 C 498.187,958.336 500.854,958.503 503.5,959C 506.158,961.386 505.825,963.386 502.5,965C 500.167,965.667 497.833,965.667 495.5,965C 492.939,962.844 492.939,960.677 495.5,958.5 Z"/></g>
<g><path style="opacity:0.94" fill="#1f4899" d="M 518.5,28.5 C 538.711,27.5236 547.545,37.1903 545,57.5C 541.831,73.3381 532.331,79.5047 516.5,76C 509.903,73.3331 505.737,68.4997 504,61.5C 502.912,53.652 503.579,45.9853 506,38.5C 508.887,33.4341 513.054,30.1008 518.5,28.5 Z M 520.5,37.5 C 517.8,39.046 515.967,41.3794 515,44.5C 512.75,50.9918 513.083,57.3252 516,63.5C 522.462,70.3565 528.128,69.6898 533,61.5C 534.506,56.2545 534.839,50.9212 534,45.5C 531.731,39.1142 527.231,36.4476 520.5,37.5 Z"/></g>
<g><path style="opacity:0.932" fill="#1f4898" d="M 464.5,30.5 C 465.5,30.5 466.5,30.5 467.5,30.5C 467.963,33.4824 468.296,36.4824 468.5,39.5C 462.148,40.0206 455.815,40.6873 449.5,41.5C 450.045,44.8131 450.545,48.1464 451,51.5C 456.063,50.1385 461.23,49.6385 466.5,50C 467.833,52.6667 467.833,55.3333 466.5,58C 461.426,58.4257 456.426,59.259 451.5,60.5C 452.244,63.443 452.744,66.443 453,69.5C 459.177,70.5395 465.343,70.2062 471.5,68.5C 473.27,71.1934 473.937,74.1934 473.5,77.5C 463.536,78.8288 453.536,79.8288 443.5,80.5C 441.83,65.1495 440.33,49.8161 439,34.5C 447.602,33.1967 456.102,31.8634 464.5,30.5 Z"/></g>
<g><path style="opacity:0.938" fill="#1f4899" d="M 561.5,31.5 C 571.672,32.4282 581.672,34.0949 591.5,36.5C 590.626,38.7466 590.292,41.0799 590.5,43.5C 584.107,43.0735 577.774,42.5735 571.5,42C 570.604,45.4277 569.938,48.9277 569.5,52.5C 574.847,53.0733 580.18,53.74 585.5,54.5C 585.937,57.8066 585.27,60.8066 583.5,63.5C 578.585,62.2741 573.585,61.6074 568.5,61.5C 567.506,67.4564 566.839,73.4564 566.5,79.5C 562.694,79.5879 559.027,78.9213 555.5,77.5C 558.153,62.2615 560.153,46.9281 561.5,31.5 Z"/></g>
<g><path style="opacity:0.927" fill="#1f4899" d="M 420.5,36.5 C 421.978,36.238 423.311,36.5713 424.5,37.5C 425.106,39.7094 425.773,41.876 426.5,44C 422.216,45.5605 417.883,47.0605 413.5,48.5C 416.642,60.7339 419.309,73.0672 421.5,85.5C 418.447,85.9107 415.447,86.5774 412.5,87.5C 409.028,74.9442 405.861,62.2776 403,49.5C 398.959,50.9423 394.792,51.9423 390.5,52.5C 389.841,49.5448 389.508,46.5448 389.5,43.5C 400.09,41.785 410.423,39.4516 420.5,36.5 Z"/></g>
<g><path style="opacity:0.934" fill="#1f4899" d="M 631.5,45.5 C 641.707,44.105 649.374,47.7717 654.5,56.5C 652.476,58.3581 650.309,60.0248 648,61.5C 644.653,56.742 640.153,54.5754 634.5,55C 632.675,56.4659 632.175,58.2992 633,60.5C 636.408,63.4532 639.908,66.2865 643.5,69C 648.654,74.344 649.82,80.5107 647,87.5C 640.559,93.6736 633.059,95.1736 624.5,92C 619.091,90.0896 615.091,86.5896 612.5,81.5C 614.759,79.4552 617.259,77.7885 620,76.5C 624.184,82.7671 629.85,85.1004 637,83.5C 639,81.5 639,79.5 637,77.5C 632.667,73.8333 628.333,70.1667 624,66.5C 619.501,56.8199 622.001,49.8199 631.5,45.5 Z"/></g>
<g><path style="opacity:0.941" fill="#1f4899" d="M 371.5,48.5 C 373.451,48.2267 374.951,48.8934 376,50.5C 380.086,61.2557 383.253,72.2557 385.5,83.5C 382.959,96.6233 374.959,102.123 361.5,100C 357.291,98.813 354.124,96.313 352,92.5C 347.576,82.23 343.743,71.73 340.5,61C 340.645,60.228 340.978,59.5613 341.5,59C 344.432,57.8551 347.432,57.0218 350.5,56.5C 353.297,67.0582 356.797,77.3915 361,87.5C 366.021,92.9172 370.688,92.5839 375,86.5C 375.167,85.3333 375.333,84.1667 375.5,83C 372.673,72.3514 369.34,61.8514 365.5,51.5C 367.594,50.4824 369.594,49.4824 371.5,48.5 Z"/></g>
<g><path style="opacity:0.936" fill="#1f4899" d="M 677.5,61.5 C 688.401,60.0058 696.401,64.0058 701.5,73.5C 699.772,75.4521 697.605,76.7854 695,77.5C 685.175,67.2485 677.175,68.5819 671,81.5C 666.738,95.8647 671.905,102.031 686.5,100C 690.156,103.94 689.823,106.94 685.5,109C 671.188,111.271 662.355,105.438 659,91.5C 658.336,77.1408 664.503,67.1408 677.5,61.5 Z"/></g>
<g><path style="opacity:0.926" fill="#1f4899" d="M 324.5,65.5 C 325.675,65.281 326.675,65.6143 327.5,66.5C 328.5,68.5 329.5,70.5 330.5,72.5C 326.455,74.5716 322.455,76.7383 318.5,79C 323.962,90.0905 329.295,101.257 334.5,112.5C 331.987,114.926 328.987,116.592 325.5,117.5C 319.525,106.082 314.025,94.4151 309,82.5C 305.587,84.7064 301.92,86.373 298,87.5C 296.013,85.5362 294.513,83.2029 293.5,80.5C 304.013,75.674 314.346,70.674 324.5,65.5 Z"/></g>
<g><path style="opacity:0.937" fill="#1f4899" d="M 715.5,75.5 C 719.187,76.176 722.52,77.676 725.5,80C 718.973,94.2223 711.806,108.056 704,121.5C 700.945,120.389 698.112,118.889 695.5,117C 702.457,103.289 709.124,89.4555 715.5,75.5 Z"/></g>
<g><path style="opacity:0.926" fill="#1f4799" d="M 740.5,87.5 C 748.611,91.7718 756.611,96.2718 764.5,101C 765.433,104.341 764.433,107.174 761.5,109.5C 756.167,106.5 750.833,103.5 745.5,100.5C 743.957,103.086 742.291,105.586 740.5,108C 745.167,111 749.833,114 754.5,117C 752.623,119.251 751.123,121.751 750,124.5C 745.582,121.707 741.082,119.041 736.5,116.5C 734.265,119.291 732.265,122.291 730.5,125.5C 735.334,128.752 740.334,131.752 745.5,134.5C 746.228,137.877 745.228,140.877 742.5,143.5C 734.833,139 727.167,134.5 719.5,130C 718.643,129.311 717.977,128.478 717.5,127.5C 725.178,114.139 732.845,100.806 740.5,87.5 Z"/></g>
<g><path style="opacity:0.931" fill="#1f4899" d="M 281.5,86.5 C 289.319,99.8425 296.986,113.342 304.5,127C 302.448,129.542 299.781,131.375 296.5,132.5C 288.209,119.425 280.542,105.925 273.5,92C 276.029,89.9073 278.696,88.074 281.5,86.5 Z"/></g>
<g><path style="opacity:0.892" fill="#1f4899" d="M 503.5,94.5 C 654.21,96.6339 772.377,158.967 858,281.5C 927.894,392.637 944.227,511.303 907,637.5C 863.828,763.006 780.661,850.506 657.5,900C 538.678,941.99 423.345,933.99 311.5,876C 203.774,814.556 134.941,723.39 105,602.5C 76.9829,461.546 109.983,337.213 204,229.5C 285.306,143.878 385.139,98.8784 503.5,94.5 Z M 492.5,100.5 C 344.549,112.018 232.049,180.685 155,306.5C 95.5994,414.509 84.9327,527.175 123,644.5C 169.257,768.424 254.424,853.257 378.5,899C 495.639,936.502 607.973,925.502 715.5,866C 826.322,799.093 893.155,701.593 916,573.5C 932.721,448.329 900.721,337.663 820,241.5C 732.505,145.193 623.338,98.1926 492.5,100.5 Z M 483.5,710.5 C 478.658,715.731 478.325,721.231 482.5,727C 488.173,728.662 492.173,726.829 494.5,721.5C 493.726,714.725 490.059,711.058 483.5,710.5 Z"/></g>
<g><path style="opacity:0.938" fill="#1f4899" d="M 259.5,98.5 C 262.622,99.461 264.622,101.628 265.5,105C 262.263,107.64 258.93,110.307 255.5,113C 262.624,123.414 269.624,133.914 276.5,144.5C 273.754,146.623 270.921,148.623 268,150.5C 260.667,139.833 253.333,129.167 246,118.5C 242.842,121.08 239.508,123.413 236,125.5C 234.303,123.301 232.803,120.968 231.5,118.5C 240.863,111.824 250.196,105.157 259.5,98.5 Z"/></g>
<g><path style="opacity:0.932" fill="#1f4899" d="M 777.5,131.5 C 772.233,139.68 766.233,147.347 759.5,154.5C 755.94,153.121 753.773,150.787 753,147.5C 761.936,135.281 771.102,123.281 780.5,111.5C 783.382,113.436 786.049,115.602 788.5,118C 786.625,129.171 785.125,140.338 784,151.5C 789.131,143.404 794.631,135.571 800.5,128C 803.894,128.676 806.894,130.342 809.5,133C 800.359,145.803 790.859,158.303 781,170.5C 778.677,168.848 776.344,167.181 774,165.5C 773.833,164.333 773.667,163.167 773.5,162C 775.068,151.855 776.402,141.688 777.5,131.5 Z"/></g>
<g><path style="opacity:0.94" fill="#1f4799" d="M 215.5,130.5 C 218.167,130.5 220.833,130.5 223.5,130.5C 223.5,133.167 223.5,135.833 223.5,138.5C 217.406,138.867 213.072,141.7 210.5,147C 211.476,149.142 213.143,150.308 215.5,150.5C 222.276,147.735 229.276,146.568 236.5,147C 243.981,150.464 246.815,156.297 245,164.5C 239.986,174.433 231.819,179.433 220.5,179.5C 220.5,176.167 220.5,172.833 220.5,169.5C 226.584,170.311 231.417,168.311 235,163.5C 236.206,160.153 235.206,157.82 232,156.5C 224.836,159.776 217.336,160.942 209.5,160C 202.567,156.628 200.067,151.128 202,143.5C 204.442,136.888 208.942,132.555 215.5,130.5 Z"/></g>
<g><path style="opacity:0.933" fill="#1f4899" d="M 821.5,151.5 C 833.792,151.127 841.459,156.793 844.5,168.5C 844.43,169.772 844.097,170.938 843.5,172C 841.098,172.814 838.765,172.647 836.5,171.5C 832.593,161.053 825.926,158.886 816.5,165C 810.811,169.537 808.311,175.37 809,182.5C 811.487,187.827 815.653,190.16 821.5,189.5C 821.5,192.5 821.5,195.5 821.5,198.5C 807.368,198.866 799.701,192.033 798.5,178C 800.323,164.015 807.99,155.182 821.5,151.5 Z"/></g>
<g><path style="opacity:0.925" fill="#1f4899" d="M 177.5,188.5 C 183.797,195.298 190.297,201.965 197,208.5C 196.209,211.643 194.209,213.976 191,215.5C 179.541,205.042 168.375,194.209 157.5,183C 160.016,180.317 162.683,177.817 165.5,175.5C 175.711,178.969 186.045,181.969 196.5,184.5C 190.036,177.535 183.369,170.702 176.5,164C 178.683,161.65 181.016,159.483 183.5,157.5C 194.833,168.167 205.833,179.167 216.5,190.5C 214.424,193.581 211.757,195.914 208.5,197.5C 198.207,194.29 187.874,191.29 177.5,188.5 Z"/></g>
<g><path style="opacity:0.929" fill="#1f479a" d="M 858.5,178.5 C 865.3,185.47 871.967,192.636 878.5,200C 876.487,203.069 873.82,204.735 870.5,205C 867.035,200.533 863.202,196.367 859,192.5C 856.697,194.393 854.53,196.393 852.5,198.5C 856.21,202.208 859.543,206.208 862.5,210.5C 860.81,213.024 858.643,215.024 856,216.5C 852.666,211.832 848.832,207.998 844.5,205C 842.167,207.333 839.833,209.667 837.5,212C 841.466,216.967 845.799,221.634 850.5,226C 848.333,228.167 846.167,230.333 844,232.5C 837.167,225 830.333,217.5 823.5,210C 835.362,199.634 847.028,189.134 858.5,178.5 Z"/></g>
<g><path style="opacity:0.934" fill="#1f4899" d="M 145.5,196.5 C 158.375,205.695 170.708,215.695 182.5,226.5C 180.144,229.022 177.977,231.688 176,234.5C 164.333,224.833 152.667,215.167 141,205.5C 141.384,202.064 142.884,199.064 145.5,196.5 Z"/></g>
<g><path style="opacity:0.937" fill="#1f4799" d="M 903.5,238.5 C 904.873,238.343 906.207,238.51 907.5,239C 909.5,242 911.5,245 913.5,248C 903.356,260.978 893.023,273.811 882.5,286.5C 880.252,283.672 878.252,280.672 876.5,277.5C 879.355,274.48 882.021,271.313 884.5,268C 881.789,264.078 878.955,260.244 876,256.5C 872.556,257.927 869.056,259.26 865.5,260.5C 863.147,258.14 861.147,255.473 859.5,252.5C 874.158,247.613 888.825,242.946 903.5,238.5 Z M 899.5,248.5 C 894.714,250.599 889.714,252.432 884.5,254C 886.7,256.234 888.533,258.734 890,261.5C 894.183,257.618 898.016,253.451 901.5,249C 900.906,248.536 900.239,248.369 899.5,248.5 Z"/></g>
<g><path style="opacity:0.938" fill="#1f4799" d="M 121.5,240.5 C 133.662,241.66 142.495,247.66 148,258.5C 148.826,263.589 148.492,268.589 147,273.5C 143.667,278.833 140.333,284.167 137,289.5C 123.698,281.03 110.531,272.363 97.5,263.5C 100.914,257.255 104.914,251.421 109.5,246C 113.227,243.299 117.227,241.465 121.5,240.5 Z M 117.5,251.5 C 114.502,253.503 112.169,256.17 110.5,259.5C 118.664,265.083 126.997,270.416 135.5,275.5C 139.877,270.473 140.377,265.139 137,259.5C 131.924,253.418 125.424,250.751 117.5,251.5 Z"/></g>
<g><path style="opacity:0.933" fill="#1f4899" d="M 914.5,309.5 C 923.053,304.973 931.553,300.306 940,295.5C 943.232,298.262 944.399,301.595 943.5,305.5C 930.24,312.047 917.073,318.713 904,325.5C 901.93,323.037 900.097,320.371 898.5,317.5C 904.605,307.605 910.939,297.939 917.5,288.5C 908.86,293.154 900.194,297.821 891.5,302.5C 889.707,299.749 888.041,296.916 886.5,294C 900.27,286.698 914.104,279.532 928,272.5C 930.196,275.048 932.029,277.882 933.5,281C 926.774,290.299 920.441,299.799 914.5,309.5 Z"/></g>
<g><path style="opacity:0.929" fill="#1f4899" d="M 88.5,278.5 C 91.9682,278.73 94.6348,280.23 96.5,283C 94.097,288.473 91.4303,293.806 88.5,299C 91.4125,300.373 94.2458,301.873 97,303.5C 99.1732,298.479 101.84,293.812 105,289.5C 106.893,290.196 108.726,291.03 110.5,292C 111.517,293.049 111.684,294.216 111,295.5C 109.167,299.167 107.333,302.833 105.5,306.5C 107.894,309.051 110.727,311.051 114,312.5C 117.546,307.245 120.712,301.745 123.5,296C 126.269,295.79 128.769,296.623 131,298.5C 127.568,307.538 123.401,316.371 118.5,325C 104.704,319.105 91.0374,312.605 77.5,305.5C 76.3861,304.277 76.2195,302.944 77,301.5C 81.3716,294.09 85.2049,286.423 88.5,278.5 Z"/></g>
<g><path style="opacity:0.927" fill="#1f4799" d="M 72.5,320.5 C 75.9335,321.115 77.9335,323.281 78.5,327C 68.4525,336.006 69.4525,343.673 81.5,350C 87.7237,353.584 93.5571,353.084 99,348.5C 101.538,344.064 102.205,339.398 101,334.5C 103.557,332.686 106.224,332.352 109,333.5C 112.794,347.413 107.96,356.913 94.5,362C 83.1545,363.441 73.6545,359.941 66,351.5C 59.5924,339.153 61.7591,328.82 72.5,320.5 Z"/></g>
<g><path style="opacity:0.938" fill="#1f4899" d="M 950.5,321.5 C 951.5,321.5 952.5,321.5 953.5,321.5C 955.226,327.179 957.06,332.846 959,338.5C 960.781,352.74 954.614,361.573 940.5,365C 931.945,367.036 924.445,365.202 918,359.5C 914.302,352.768 911.135,345.768 908.5,338.5C 922.59,332.809 936.59,327.143 950.5,321.5 Z M 946.5,334.5 C 937.737,337.76 929.07,341.427 920.5,345.5C 925.885,356.363 933.885,358.529 944.5,352C 950.491,347.743 951.991,342.243 949,335.5C 948.329,334.748 947.496,334.414 946.5,334.5 Z"/></g>
<g><path style="opacity:0.934" fill="#1f4899" d="M 51.5,367.5 C 66.2338,371.017 80.9004,374.85 95.5,379C 96.4426,381.8 96.2759,384.634 95,387.5C 94.6121,388.428 93.9454,389.095 93,389.5C 82.2205,392.237 71.3871,394.737 60.5,397C 70.0768,399.645 79.7435,402.145 89.5,404.5C 89.7182,408.315 88.7182,411.648 86.5,414.5C 72.1667,410.5 57.8333,406.5 43.5,402.5C 42.5598,398.915 43.2265,395.582 45.5,392.5C 56.7556,389.353 68.0889,386.519 79.5,384C 69.6426,382.452 59.9759,380.119 50.5,377C 49.5878,373.776 49.9211,370.609 51.5,367.5 Z"/></g>
<g><path style="opacity:0.981" fill="#1f4899" d="M 220.5,377.5 C 232.5,377.5 244.5,377.5 256.5,377.5C 256.333,397.836 256.5,418.169 257,438.5C 274.716,418.239 292.549,398.073 310.5,378C 324.5,377.333 338.5,377.333 352.5,378C 332.463,399.702 312.796,421.702 293.5,444C 309.046,460.709 324.38,477.543 339.5,494.5C 355.828,455.842 372.162,417.175 388.5,378.5C 402.488,377.334 416.488,377.167 430.5,378C 449.122,421.361 467.455,464.861 485.5,508.5C 457.833,509.833 430.167,509.833 402.5,508.5C 398.592,500.023 395.258,491.357 392.5,482.5C 407.515,482.833 422.515,482.499 437.5,481.5C 428.333,458.5 419.167,435.5 410,412.5C 396.575,444.356 383.408,476.356 370.5,508.5C 350.508,509.666 330.508,509.833 310.5,509C 292.667,489.167 274.833,469.333 257,449.5C 256.5,469.497 256.333,489.497 256.5,509.5C 244.5,509.5 232.5,509.5 220.5,509.5C 220.5,465.5 220.5,421.5 220.5,377.5 Z"/></g>
<g><path style="opacity:0.992" fill="#1e4898" d="M 494.5,377.5 C 506.5,377.5 518.5,377.5 530.5,377.5C 530.5,421.5 530.5,465.5 530.5,509.5C 518.5,509.5 506.5,509.5 494.5,509.5C 494.5,465.5 494.5,421.5 494.5,377.5 Z"/></g>
<g><path style="opacity:0.985" fill="#1f4899" d="M 592.5,377.5 C 617.5,377.5 642.5,377.5 667.5,377.5C 667.5,386.833 667.5,396.167 667.5,405.5C 645.497,405.333 623.497,405.5 601.5,406C 590.937,409.004 588.103,415.504 593,425.5C 594.935,427.102 597.101,428.269 599.5,429C 615.539,429.096 631.539,429.763 647.5,431C 674.496,439.82 683.996,457.986 676,485.5C 669.429,499.051 658.595,506.884 643.5,509C 615.502,509.5 587.502,509.667 559.5,509.5C 559.5,500.167 559.5,490.833 559.5,481.5C 584.502,481.667 609.502,481.5 634.5,481C 642.842,477.806 645.342,471.973 642,463.5C 640.457,461.622 638.624,460.122 636.5,459C 620.887,457.729 605.22,457.063 589.5,457C 561.895,450.639 550.728,433.472 556,405.5C 560.076,393.757 567.909,385.59 579.5,381C 583.919,379.648 588.252,378.481 592.5,377.5 Z"/></g>
<g><path style="opacity:0.983" fill="#1f4899" d="M 681.5,377.5 C 722.833,377.5 764.167,377.5 805.5,377.5C 805.5,386.833 805.5,396.167 805.5,405.5C 790.833,405.5 776.167,405.5 761.5,405.5C 761.5,440.167 761.5,474.833 761.5,509.5C 749.5,509.5 737.5,509.5 725.5,509.5C 725.5,474.833 725.5,440.167 725.5,405.5C 710.833,405.5 696.167,405.5 681.5,405.5C 681.5,396.167 681.5,386.833 681.5,377.5 Z"/></g>
<g><path style="opacity:0.94" fill="#1f4899" d="M 970.5,388.5 C 972.766,388.141 974.599,388.808 976,390.5C 978.379,401.398 980.879,412.232 983.5,423C 980.635,423.837 977.802,424.67 975,425.5C 973.874,421.535 972.874,417.535 972,413.5C 971.586,413.043 971.086,412.709 970.5,412.5C 959.026,415.243 947.526,417.91 936,420.5C 935.228,420.355 934.561,420.022 934,419.5C 933.421,417.351 932.921,415.185 932.5,413C 932.755,411.674 933.422,410.674 934.5,410C 946.195,407.561 957.862,405.061 969.5,402.5C 968.575,398.21 967.909,393.876 967.5,389.5C 968.791,389.737 969.791,389.404 970.5,388.5 Z"/></g>
<g><path style="opacity:0.929" fill="#1f4799" d="M 82.5,422.5 C 83.5,422.5 84.5,422.5 85.5,422.5C 85.0578,426.154 84.7244,429.821 84.5,433.5C 80.1578,433.739 75.8244,434.073 71.5,434.5C 71.3414,439.111 70.6748,443.611 69.5,448C 73.0474,449.691 76.5474,451.524 80,453.5C 80.8498,457.052 80.3498,460.385 78.5,463.5C 64.5,456.5 50.5,449.5 36.5,442.5C 35.6329,438.535 35.6329,434.535 36.5,430.5C 52.0308,428.246 67.3641,425.579 82.5,422.5 Z M 59.5,435.5 C 55.0027,436.486 50.336,437.32 45.5,438C 51.085,440.471 56.7517,442.638 62.5,444.5C 62.5079,441.455 62.8413,438.455 63.5,435.5C 62.1667,435.5 60.8333,435.5 59.5,435.5 Z"/></g>
<g><path style="opacity:0.929" fill="#1f4899" d="M 979.5,437.5 C 981.5,437.5 983.5,437.5 985.5,437.5C 986.719,447.142 987.719,456.809 988.5,466.5C 985.756,467.205 983.089,467.205 980.5,466.5C 979.539,460.632 978.539,454.799 977.5,449C 974.553,449.152 971.553,449.319 968.5,449.5C 968.876,454.55 969.542,459.55 970.5,464.5C 967.807,466.27 964.807,466.937 961.5,466.5C 961.224,460.989 960.224,455.656 958.5,450.5C 955.557,451.244 952.557,451.744 949.5,452C 949.601,458.455 949.601,464.955 949.5,471.5C 946.916,472.393 944.249,472.726 941.5,472.5C 940.829,462.466 939.829,452.466 938.5,442.5C 952.383,441.477 966.05,439.811 979.5,437.5 Z"/></g>
<g><path style="opacity:0.925" fill="#1f4899" d="M 32.5,461.5 C 47.77,467.034 63.1033,472.368 78.5,477.5C 78.5,481.833 78.5,486.167 78.5,490.5C 62.4436,493.911 46.4436,497.578 30.5,501.5C 30.5,497.833 30.5,494.167 30.5,490.5C 42.6261,488.575 54.6261,486.075 66.5,483C 55.1781,479.335 43.8448,475.669 32.5,472C 31.966,468.602 31.966,465.102 32.5,461.5 Z"/></g>
<g><path style="opacity:0.937" fill="#1f4799" d="M 959.5,480.5 C 970.127,478.469 979.293,481.136 987,488.5C 993.157,497.53 992.99,506.363 986.5,515C 985.5,515.667 984.5,515.667 983.5,515C 981.792,513.49 980.126,511.99 978.5,510.5C 984.935,498.39 981.101,491.723 967,490.5C 961.484,490.593 956.817,492.593 953,496.5C 950.365,502.522 951.532,507.689 956.5,512C 954.65,514.018 952.65,515.851 950.5,517.5C 942.559,511.235 940.392,503.235 944,493.5C 947.258,486.73 952.425,482.397 959.5,480.5 Z"/></g>
<g><path style="opacity:0.943" fill="#1f4799" d="M 46.5,510.5 C 52.1764,510.334 57.8431,510.501 63.5,511C 71.9658,513.737 76.7992,519.57 78,528.5C 78.4994,534.157 78.6661,539.824 78.5,545.5C 62.8364,546.225 47.1697,546.891 31.5,547.5C 31.0901,538.75 31.5901,530.084 33,521.5C 36.1622,516.169 40.6622,512.503 46.5,510.5 Z M 49.5,520.5 C 41.7589,522.936 38.4256,528.269 39.5,536.5C 49.521,536.629 59.521,536.296 69.5,535.5C 69.6633,533.143 69.4966,530.81 69,528.5C 64.568,521.289 58.068,518.622 49.5,520.5 Z"/></g>
<g><path style="opacity:0.935" fill="#1f4898" d="M 943.5,527.5 C 959.163,528.555 974.83,529.555 990.5,530.5C 990.058,534.154 989.724,537.821 989.5,541.5C 983.511,540.774 977.511,540.107 971.5,539.5C 970.78,545.138 970.447,550.804 970.5,556.5C 976.535,556.537 982.535,557.037 988.5,558C 987.549,561.057 987.216,564.223 987.5,567.5C 972.109,566.606 956.775,565.273 941.5,563.5C 940.213,560.291 940.213,557.125 941.5,554C 947.151,554.11 952.818,554.61 958.5,555.5C 959.442,555.392 960.275,555.059 961,554.5C 961.391,549.146 961.891,543.812 962.5,538.5C 955.826,538.287 949.159,537.954 942.5,537.5C 942.46,534.119 942.793,530.786 943.5,527.5 Z"/></g>
<g><path style="opacity:0.991" fill="#3f88d0" d="M 531.5,537.5 C 532.486,555.423 532.819,573.423 532.5,591.5C 486.479,591.289 440.479,590.289 394.5,588.5C 394.5,572.5 394.5,556.5 394.5,540.5C 440.14,538.538 485.806,537.538 531.5,537.5 Z"/></g>
<g><path style="opacity:0.989" fill="#3b80ca" d="M 531.5,537.5 C 542.175,537.623 552.841,537.957 563.5,538.5C 563.5,555.5 563.5,572.5 563.5,589.5C 564.791,589.263 565.791,589.596 566.5,590.5C 555.15,590.407 543.817,590.741 532.5,591.5C 532.819,573.423 532.486,555.423 531.5,537.5 Z"/></g>
<g><path style="opacity:0.994" fill="#3675c3" d="M 563.5,538.5 C 581.505,538.625 599.505,538.958 617.5,539.5C 616.833,556.167 616.167,572.833 615.5,589.5C 599.167,589.86 582.834,590.193 566.5,590.5C 565.791,589.596 564.791,589.263 563.5,589.5C 563.5,572.5 563.5,555.5 563.5,538.5 Z"/></g>
<g><path style="opacity:0.983" fill="#3069ba" d="M 617.5,539.5 C 637.157,540.605 656.824,541.605 676.5,542.5C 674.544,556.589 673.877,570.923 674.5,585.5C 675.791,585.263 676.791,585.596 677.5,586.5C 656.813,587.22 636.146,588.22 615.5,589.5C 616.167,572.833 616.833,556.167 617.5,539.5 Z"/></g>
<g><path style="opacity:0.987" fill="#4997d8" d="M 394.5,540.5 C 394.5,556.5 394.5,572.5 394.5,588.5C 377.137,587.849 359.804,586.849 342.5,585.5C 341.518,571.579 341.185,557.579 341.5,543.5C 359.126,542.046 376.792,541.046 394.5,540.5 Z"/></g>
<g><path style="opacity:0.98" fill="#2c61b5" d="M 676.5,542.5 C 746.493,546.866 816.159,554.199 885.5,564.5C 816.447,574.605 747.114,581.939 677.5,586.5C 676.791,585.596 675.791,585.263 674.5,585.5C 673.877,570.923 674.544,556.589 676.5,542.5 Z"/></g>
<g><path style="opacity:0.986" fill="#51a2de" d="M 341.5,543.5 C 341.185,557.579 341.518,571.579 342.5,585.5C 327.483,584.737 312.483,583.737 297.5,582.5C 297.5,570.5 297.5,558.5 297.5,546.5C 312.138,545.146 326.805,544.146 341.5,543.5 Z"/></g>
<g><path style="opacity:0.98" fill="#5aafe4" d="M 297.5,546.5 C 297.5,558.5 297.5,570.5 297.5,582.5C 277.632,581.08 257.965,579.08 238.5,576.5C 240.199,568.485 241.199,560.152 241.5,551.5C 260.143,549.593 278.81,547.926 297.5,546.5 Z"/></g>
<g><path style="opacity:0.93" fill="#1f4899" d="M 76.5,554.5 C 77.5,554.5 78.5,554.5 79.5,554.5C 80.2436,558.119 80.577,561.785 80.5,565.5C 76.6379,566.428 72.9712,567.928 69.5,570C 70.8615,574.362 71.5281,578.862 71.5,583.5C 75.81,584.08 80.1434,584.414 84.5,584.5C 84.8954,588.185 85.0621,591.852 85,595.5C 68.9283,592.46 52.7616,589.794 36.5,587.5C 35.576,583.265 35.576,579.099 36.5,575C 50.0508,568.392 63.3842,561.559 76.5,554.5 Z M 59.5,573.5 C 55.4898,576.127 51.1565,578.294 46.5,580C 52.1388,581.08 57.8055,581.913 63.5,582.5C 62.8413,579.545 62.5079,576.545 62.5,573.5C 61.5,573.5 60.5,573.5 59.5,573.5 Z"/></g>
<g><path style="opacity:0.967" fill="#64beec" d="M 241.5,551.5 C 241.199,560.152 240.199,568.485 238.5,576.5C 205.219,573.882 172.219,569.715 139.5,564C 173.43,559.175 207.43,555.009 241.5,551.5 Z"/></g>
<g><path style="opacity:0.928" fill="#1f4899" d="M 938.5,577.5 C 953.804,579.928 968.971,582.928 984,586.5C 984.247,590.095 983.414,593.429 981.5,596.5C 970.525,600.103 959.525,603.603 948.5,607C 959.162,607.965 969.496,610.132 979.5,613.5C 978.833,615.833 978.167,618.167 977.5,620.5C 976.667,620.833 975.833,621.167 975,621.5C 960.575,618.749 946.242,615.749 932,612.5C 931.722,609.222 932.222,606.055 933.5,603C 944.771,599.132 956.105,595.465 967.5,592C 957.749,590.85 948.082,589.183 938.5,587C 937.572,586.612 936.905,585.945 936.5,585C 937.108,582.447 937.775,579.947 938.5,577.5 Z"/></g>
<g><path style="opacity:0.934" fill="#1f4799" d="M 89.5,615.5 C 91.2955,618.362 92.6289,621.529 93.5,625C 90.8841,627.647 87.8841,629.813 84.5,631.5C 84.1024,636.181 85.1024,640.681 87.5,645C 91.5,645.333 95.5,645.667 99.5,646C 100.42,648.835 101.42,651.668 102.5,654.5C 85.8403,655.425 69.1736,655.425 52.5,654.5C 51.5296,650.781 50.6962,647.114 50,643.5C 63.347,634.304 76.5136,624.97 89.5,615.5 Z M 74.5,637.5 C 70.2317,640.309 65.8984,643.143 61.5,646C 67.1959,646.83 72.8625,646.663 78.5,645.5C 77.7569,643.362 77.0903,641.196 76.5,639C 76.1639,637.97 75.4972,637.47 74.5,637.5 Z"/></g>
<g><path style="opacity:0.942" fill="#1f4899" d="M 934.5,629.5 C 946.341,627.996 956.508,631.33 965,639.5C 971.037,651.131 969.203,661.297 959.5,670C 944.433,675.419 931.933,671.919 922,659.5C 917.337,645.624 921.504,635.624 934.5,629.5 Z M 936.5,639.5 C 929.65,642.551 927.816,647.551 931,654.5C 935.761,659.463 941.595,662.13 948.5,662.5C 957.738,661.359 960.905,656.359 958,647.5C 952.012,641.78 944.845,639.114 936.5,639.5 Z"/></g>
<g><path style="opacity:0.926" fill="#1f4899" d="M 103.5,662.5 C 104.496,662.414 105.329,662.748 106,663.5C 109.638,671.943 113.138,680.443 116.5,689C 114.874,690.819 112.874,692.152 110.5,693C 98.2604,698.038 86.0937,703.204 74,708.5C 69.7712,699.872 65.9379,691.039 62.5,682C 64.6506,679.617 67.3173,678.617 70.5,679C 73.0038,684.517 75.5038,690.017 78,695.5C 80.0223,694.214 82.1889,693.214 84.5,692.5C 84.8333,691.833 85.1667,691.167 85.5,690.5C 84.1285,686.219 82.4618,682.053 80.5,678C 80.6448,677.228 80.9781,676.561 81.5,676C 83.6147,675.443 85.6147,674.609 87.5,673.5C 90.1169,677.849 92.4502,682.349 94.5,687C 98.0823,686.749 101.416,685.583 104.5,683.5C 102.362,677.753 100.029,672.086 97.5,666.5C 99.2187,664.648 101.219,663.314 103.5,662.5 Z"/></g>
<g><path style="opacity:0.94" fill="#1f4799" d="M 910.5,674.5 C 925.365,679.934 939.698,686.434 953.5,694C 952.554,697.206 951.054,700.039 949,702.5C 937.875,697.403 926.708,692.403 915.5,687.5C 912.467,692.397 909.8,697.564 907.5,703C 904.826,702.847 902.16,702.347 899.5,701.5C 902.578,692.266 906.245,683.266 910.5,674.5 Z"/></g>
<g><path style="opacity:0.94" fill="#234e99" d="M 480.5,698.5 C 496.004,697.171 505.171,704.171 508,719.5C 509.104,728.989 508.438,738.323 506,747.5C 500.424,759.872 490.924,764.705 477.5,762C 472.876,760.69 468.876,758.356 465.5,755C 467.963,751.535 470.796,748.369 474,745.5C 485.566,752.974 492.4,749.807 494.5,736C 494.333,735.5 494.167,735 494,734.5C 485.468,741.253 477.134,740.919 469,733.5C 465.153,725.814 464.487,717.814 467,709.5C 470.213,704.107 474.713,700.441 480.5,698.5 Z M 483.5,710.5 C 478.658,715.731 478.325,721.231 482.5,727C 488.173,728.662 492.173,726.829 494.5,721.5C 493.726,714.725 490.059,711.058 483.5,710.5 Z"/></g>
<g><path style="opacity:0.94" fill="#1f4899" d="M 119.5,698.5 C 122.468,701.078 124.468,704.412 125.5,708.5C 122.011,714.484 118.845,720.484 116,726.5C 116.833,727.5 117.667,728.5 118.5,729.5C 123.46,727.034 128.294,724.367 133,721.5C 134.709,724.418 136.542,727.252 138.5,730C 124.748,737.96 110.914,745.793 97,753.5C 92.7905,746.414 89.1238,739.081 86,731.5C 84.404,723.186 87.5706,717.686 95.5,715C 100.356,714.289 105.022,714.622 109.5,716C 113.489,710.519 116.822,704.685 119.5,698.5 Z M 100.5,723.5 C 97.3643,724.474 95.3643,726.64 94.5,730C 95.7074,733.589 97.5408,736.755 100,739.5C 103.565,737.633 107.065,735.633 110.5,733.5C 108.789,728.455 105.456,725.122 100.5,723.5 Z"/></g>
<g><path style="opacity:0.949" fill="#234e99" d="M 432.5,699.5 C 436.5,699.5 440.5,699.5 444.5,699.5C 444.5,715.833 444.5,732.167 444.5,748.5C 448.167,748.5 451.833,748.5 455.5,748.5C 455.5,752.833 455.5,757.167 455.5,761.5C 442.5,761.5 429.5,761.5 416.5,761.5C 416.5,757.167 416.5,752.833 416.5,748.5C 420.833,748.5 425.167,748.5 429.5,748.5C 429.5,737.5 429.5,726.5 429.5,715.5C 425.5,715.5 421.5,715.5 417.5,715.5C 417.335,712.15 417.502,708.817 418,705.5C 423.189,704.165 428.022,702.165 432.5,699.5 Z"/></g>
<g><path style="opacity:0.925" fill="#234e99" d="M 514.5,699.5 C 528.833,699.5 543.167,699.5 557.5,699.5C 557.665,703.182 557.499,706.848 557,710.5C 551.478,716.204 547.478,722.871 545,730.5C 542.359,740.319 541.026,750.319 541,760.5C 535.928,761.471 530.762,761.805 525.5,761.5C 525.02,743.575 530.02,727.409 540.5,713C 531.84,712.5 523.173,712.334 514.5,712.5C 514.5,708.167 514.5,703.833 514.5,699.5 Z"/></g>
<g><path style="opacity:0.912" fill="#224f99" d="M 581.5,699.5 C 585.833,699.5 590.167,699.5 594.5,699.5C 594.5,715.833 594.5,732.167 594.5,748.5C 598.167,748.5 601.833,748.5 605.5,748.5C 605.5,752.833 605.5,757.167 605.5,761.5C 592.167,761.5 578.833,761.5 565.5,761.5C 565.5,757.167 565.5,752.833 565.5,748.5C 569.833,748.5 574.167,748.5 578.5,748.5C 578.5,737.5 578.5,726.5 578.5,715.5C 574.833,715.5 571.167,715.5 567.5,715.5C 567.5,711.833 567.5,708.167 567.5,704.5C 572.836,704.39 577.503,702.724 581.5,699.5 Z"/></g>
<g><path style="opacity:0.937" fill="#1f4899" d="M 896.5,714.5 C 909.015,713.512 919.182,717.845 927,727.5C 932.418,738.339 930.584,747.839 921.5,756C 907.706,761.855 895.872,759.022 886,747.5C 878.576,732.941 882.076,721.941 896.5,714.5 Z M 897.5,724.5 C 895.193,725.977 893.36,727.977 892,730.5C 891.758,739.288 895.925,745.121 904.5,748C 916.902,751.251 921.736,746.751 919,734.5C 913.376,727.771 906.21,724.437 897.5,724.5 Z"/></g>
<g><path style="opacity:0.937" fill="#1f4899" d="M 134.5,748.5 C 150.148,746.66 158.815,753.494 160.5,769C 159.745,779.163 154.745,786.497 145.5,791C 127.736,797.786 116.736,791.952 112.5,773.5C 114.888,760.78 122.222,752.447 134.5,748.5 Z M 137.5,758.5 C 134.564,760.308 131.564,762.141 128.5,764C 119.594,772.732 120.76,779.566 132,784.5C 141.701,782.414 148.201,776.748 151.5,767.5C 149.82,759.988 145.154,756.988 137.5,758.5 Z"/></g>
<g><path style="opacity:0.936" fill="#1f4899" d="M 867.5,759.5 C 883.102,758.289 893.602,764.955 899,779.5C 900.66,791.351 896.16,799.851 885.5,805C 883.866,805.494 882.199,805.66 880.5,805.5C 879.737,802.859 879.57,800.192 880,797.5C 887.676,794.818 890.676,789.485 889,781.5C 884.234,771.864 876.734,768.364 866.5,771C 863.716,773.112 861.716,775.779 860.5,779C 862.353,781.185 864.52,783.018 867,784.5C 868.61,782.269 870.443,780.269 872.5,778.5C 874.54,780.177 876.54,781.844 878.5,783.5C 875.577,788.591 872.077,793.258 868,797.5C 862.924,793.379 857.757,789.379 852.5,785.5C 850.737,772.93 855.737,764.263 867.5,759.5 Z"/></g>
<g><path style="opacity:0.936" fill="#1f4899" d="M 169.5,777.5 C 172.679,779.846 175.346,782.679 177.5,786C 175.265,792.871 172.932,799.704 170.5,806.5C 173.446,807.655 176.446,807.821 179.5,807C 182.23,803.892 185.397,801.392 189,799.5C 191.281,801.619 193.448,803.952 195.5,806.5C 184.156,817.176 172.489,827.509 160.5,837.5C 157.644,835.478 155.311,832.978 153.5,830C 157.643,825.767 161.977,821.767 166.5,818C 158.504,818.102 150.504,818.102 142.5,818C 140.874,815.372 138.874,813.039 136.5,811C 144.442,810.185 152.276,809.019 160,807.5C 163.476,797.573 166.643,787.573 169.5,777.5 Z"/></g>
<g><path style="opacity:0.934" fill="#1f479a" d="M 832.5,797.5 C 833.552,797.351 834.552,797.517 835.5,798C 839.277,802.379 843.61,806.046 848.5,809C 858.337,811.708 868.004,814.875 877.5,818.5C 875.138,821.192 872.804,823.859 870.5,826.5C 863.928,823.963 857.428,821.296 851,818.5C 852.942,825.402 855.775,832.069 859.5,838.5C 857.183,841.317 854.683,843.984 852,846.5C 847.943,836.052 843.609,825.718 839,815.5C 835.034,812.536 831.367,809.203 828,805.5C 827.333,804.5 827.333,803.5 828,802.5C 829.707,800.963 831.207,799.296 832.5,797.5 Z"/></g>
<g><path style="opacity:0.931" fill="#1f479a" d="M 214.5,852.5 C 226.841,852.617 229.841,857.951 223.5,868.5C 212.462,872.049 207.962,868.049 210,856.5C 211.397,854.93 212.897,853.596 214.5,852.5 Z"/></g>
<g><path style="opacity:0.939" fill="#1f4899" d="M 792.5,852.5 C 802.295,851.786 806.128,856.12 804,865.5C 798.804,872.054 793.471,872.054 788,865.5C 786.379,859.923 787.879,855.589 792.5,852.5 Z"/></g>
<g><path style="opacity:0.922" fill="#1f4899" d="M 731.5,874.5 C 734.292,874.452 736.125,875.785 737,878.5C 742.913,889.993 749.079,901.327 755.5,912.5C 753.206,914.653 750.54,916.32 747.5,917.5C 746.416,916.335 745.583,915.002 745,913.5C 742.414,915.545 739.58,917.211 736.5,918.5C 734.457,917.421 733.124,915.754 732.5,913.5C 735.291,911.265 738.291,909.265 741.5,907.5C 736.365,898.063 731.365,888.563 726.5,879C 728.043,877.287 729.709,875.787 731.5,874.5 Z"/></g>
<g><path style="opacity:0.912" fill="#1f4899" d="M 292.5,894.5 C 292.027,893.094 291.027,892.427 289.5,892.5C 289.158,891.662 288.492,891.328 287.5,891.5C 287.158,890.662 286.492,890.328 285.5,890.5C 281.98,887.816 278.147,885.482 274,883.5C 274.052,880.728 275.219,878.394 277.5,876.5C 280.919,878.626 284.419,880.626 288,882.5C 288.972,880.695 290.139,879.028 291.5,877.5C 294.329,878.747 296.995,880.247 299.5,882C 298.5,883.667 297.5,885.333 296.5,887C 300.167,889.167 303.833,891.333 307.5,893.5C 306.7,896.133 305.2,898.133 303,899.5C 299.691,897.429 296.191,895.762 292.5,894.5 Z"/></g>
<g><path style="opacity:0.924" fill="#1f4799" d="M 714.5,887.5 C 725.111,887.407 728.944,892.407 726,902.5C 720.782,910.021 713.616,912.855 704.5,911C 696.828,905.573 696.494,899.573 703.5,893C 706.99,890.588 710.657,888.755 714.5,887.5 Z M 712.5,895.5 C 710.346,896.824 708.679,898.657 707.5,901C 708,902.833 709.167,904 711,904.5C 712.893,903.804 714.726,902.97 716.5,902C 719.888,897.109 718.555,894.942 712.5,895.5 Z"/></g>
<g><path style="opacity:0.922" fill="#1f479a" d="M 285.5,890.5 C 285.842,891.338 286.508,891.672 287.5,891.5C 287.842,892.338 288.508,892.672 289.5,892.5C 289.973,893.906 290.973,894.573 292.5,894.5C 298.161,901.359 297.828,907.859 291.5,914C 285.099,915.906 279.099,914.906 273.5,911C 268.477,906.318 267.311,900.818 270,894.5C 271.214,892.951 272.714,891.785 274.5,891C 278.152,890.501 281.818,890.335 285.5,890.5 Z M 279.5,897.5 C 277.667,899.496 277.167,901.829 278,904.5C 282.044,908.772 285.544,908.439 288.5,903.5C 286.715,899.768 283.715,897.768 279.5,897.5 Z"/></g>
<g><path style="opacity:0.925" fill="#1f4899" d="M 311.5,889.5 C 315.226,889.899 318.226,891.566 320.5,894.5C 317.833,899.167 315.167,903.833 312.5,908.5C 314.54,910.177 316.54,911.844 318.5,913.5C 317.649,915.882 316.316,917.882 314.5,919.5C 312.5,918.5 310.5,917.5 308.5,916.5C 305.532,921.964 302.366,927.297 299,932.5C 296.913,931.206 294.746,930.039 292.5,929C 291.978,928.439 291.645,927.772 291.5,927C 298.312,914.541 304.978,902.041 311.5,889.5 Z"/></g>
<g><path style="opacity:0.926" fill="#1f4899" d="M 733.5,900.5 C 735.619,901.791 737.285,903.625 738.5,906C 734.833,909 731.167,912 727.5,915C 729.041,917.916 730.707,920.749 732.5,923.5C 730.543,925.485 728.21,926.985 725.5,928C 726.64,929.973 727.973,931.807 729.5,933.5C 739.167,928.167 748.833,922.833 758.5,917.5C 760.316,919.118 761.649,921.118 762.5,923.5C 750.262,930.872 737.762,937.872 725,944.5C 721.218,939.78 718.051,934.613 715.5,929C 717.996,927.92 720.33,926.586 722.5,925C 721.458,923.082 720.292,921.249 719,919.5C 715.25,921.959 711.417,924.292 707.5,926.5C 705.844,924.54 704.177,922.54 702.5,920.5C 713.408,914.557 723.742,907.89 733.5,900.5 Z"/></g>
<g><path style="opacity:0.92" fill="#1f4899" d="M 348.5,909.5 C 361.835,913.111 374.835,917.611 387.5,923C 385.176,928.652 382.842,934.318 380.5,940C 382.232,941.695 384.232,943.028 386.5,944C 385.598,946.202 384.598,948.368 383.5,950.5C 376.539,947.957 369.539,945.624 362.5,943.5C 362.007,945.806 361.674,948.139 361.5,950.5C 366.097,952.032 370.764,953.365 375.5,954.5C 373.506,961.483 371.506,968.483 369.5,975.5C 366.5,974.833 363.5,974.167 360.5,973.5C 361.126,968.789 362.459,964.289 364.5,960C 354.279,955.813 343.946,951.813 333.5,948C 334.669,945.993 335.335,943.827 335.5,941.5C 341.237,942.968 346.903,944.635 352.5,946.5C 352.993,944.194 353.326,941.861 353.5,939.5C 346.708,937.569 340.042,935.236 333.5,932.5C 334.308,930.075 335.308,927.742 336.5,925.5C 347.629,929.598 358.795,933.598 370,937.5C 372.459,934.755 374.293,931.589 375.5,928C 374.556,926.523 373.223,925.523 371.5,925C 362.67,922.619 354.337,919.286 346.5,915C 347.32,913.2 347.986,911.366 348.5,909.5 Z"/></g>
<g><path style="opacity:0.918" fill="#1f4899" d="M 267.5,910.5 C 270.82,911.158 273.487,912.825 275.5,915.5C 274.294,918.079 272.961,920.579 271.5,923C 279.506,928.338 287.839,933.172 296.5,937.5C 297.78,939.724 297.447,941.724 295.5,943.5C 294.635,944.583 293.635,944.749 292.5,944C 281.673,938.421 271.006,932.587 260.5,926.5C 259.417,925.635 259.251,924.635 260,923.5C 262.512,919.139 265.012,914.806 267.5,910.5 Z"/></g>
<g><path style="opacity:0.918" fill="#1f4898" d="M 651.5,912.5 C 652.552,912.351 653.552,912.517 654.5,913C 657.729,917.7 662.229,920.2 668,920.5C 670.796,919.789 673.63,919.122 676.5,918.5C 678.222,926.264 675.055,929.264 667,927.5C 662.306,927.904 657.972,926.904 654,924.5C 650.581,931.963 645.081,937.296 637.5,940.5C 635.35,938.851 633.35,937.018 631.5,935C 638.937,931.898 643.937,926.565 646.5,919C 645.852,917.56 645.519,916.06 645.5,914.5C 647.786,914.405 649.786,913.738 651.5,912.5 Z"/></g>
<g><path style="opacity:0.909" fill="#1f4899" d="M 679.5,926.5 C 682.77,926.679 684.437,928.512 684.5,932C 684.167,932.5 683.833,933 683.5,933.5C 676.735,935.413 670.402,938.08 664.5,941.5C 665,941.833 665.5,942.167 666,942.5C 670.35,940.829 674.683,939.162 679,937.5C 681.925,942.441 683.758,947.775 684.5,953.5C 676.832,955.889 669.165,958.389 661.5,961C 659.153,961.712 657.153,962.879 655.5,964.5C 665.78,962.077 676.114,958.744 686.5,954.5C 688.455,956.668 689.121,959.002 688.5,961.5C 675.612,966.073 662.778,970.74 650,975.5C 647.111,970.363 645.611,965.03 645.5,959.5C 655.254,956.588 664.588,952.922 673.5,948.5C 673.333,948.167 673.167,947.833 673,947.5C 663.789,951.102 654.456,954.436 645,957.5C 642.272,956.046 641.106,953.712 641.5,950.5C 646.236,949.365 650.903,948.032 655.5,946.5C 655.719,945.325 655.386,944.325 654.5,943.5C 648.244,946.03 641.91,948.363 635.5,950.5C 633.08,948.414 632.413,945.914 633.5,943C 649.046,937.765 664.379,932.265 679.5,926.5 Z"/></g>
<g><path style="opacity:0.925" fill="#1f4899" d="M 599.5,927.5 C 600.5,927.5 601.5,927.5 602.5,927.5C 605.568,946.744 608.902,965.911 612.5,985C 609.274,986.199 605.941,986.699 602.5,986.5C 599.283,967.201 596.283,947.867 593.5,928.5C 595.735,928.795 597.735,928.461 599.5,927.5 Z"/></g>
<g><path style="opacity:0.917" fill="#1f4899" d="M 412.5,932.5 C 422.449,934.423 432.449,936.089 442.5,937.5C 441.835,946.659 439.835,955.493 436.5,964C 433.181,964.736 430.181,964.07 427.5,962C 429.71,955.996 431.376,949.829 432.5,943.5C 425.484,942.608 418.484,941.608 411.5,940.5C 411.575,937.794 411.908,935.127 412.5,932.5 Z"/></g>
<g><path style="opacity:0.928" fill="#1f4898" d="M 447.5,933.5 C 450.249,933.274 452.916,933.607 455.5,934.5C 455.763,942.102 454.763,949.602 452.5,957C 455.117,957.822 457.784,958.322 460.5,958.5C 460.167,961.167 459.833,963.833 459.5,966.5C 456.833,966.167 454.167,965.833 451.5,965.5C 450.11,974.173 448.61,982.839 447,991.5C 446.586,991.957 446.086,992.291 445.5,992.5C 443.224,991.787 440.891,991.287 438.5,991C 440.875,971.908 443.875,952.741 447.5,933.5 Z"/></g>
<g><path style="opacity:0.923" fill="#1f4799" d="M 582.5,936.5 C 583.833,936.5 585.167,936.5 586.5,936.5C 590.234,956.474 583.734,972.141 567,983.5C 564.778,981.615 562.944,979.449 561.5,977C 565.312,973.188 569.145,969.355 573,965.5C 576.706,959.341 578.54,952.674 578.5,945.5C 572.826,946.39 567.159,947.39 561.5,948.5C 558.747,946.957 557.913,944.624 559,941.5C 566.917,939.768 574.751,938.101 582.5,936.5 Z"/></g>
<g><path style="opacity:0.973" fill="#1f4899" d="M 494.5,937.5 C 497.5,937.5 500.5,937.5 503.5,937.5C 503.5,939.167 503.5,940.833 503.5,942.5C 507.833,942.5 512.167,942.5 516.5,942.5C 516.5,944.833 516.5,947.167 516.5,949.5C 504.833,949.5 493.167,949.5 481.5,949.5C 481.5,947.167 481.5,944.833 481.5,942.5C 485.833,942.5 490.167,942.5 494.5,942.5C 494.5,940.833 494.5,939.167 494.5,937.5 Z"/></g>
<g><path style="opacity:0.948" fill="#1f4899" d="M 519.5,937.5 C 522.5,937.5 525.5,937.5 528.5,937.5C 528.5,942.5 528.5,947.5 528.5,952.5C 530.833,952.5 533.167,952.5 535.5,952.5C 535.5,955.167 535.5,957.833 535.5,960.5C 533.167,960.5 530.833,960.5 528.5,960.5C 528.5,965.167 528.5,969.833 528.5,974.5C 525.167,974.5 521.833,974.5 518.5,974.5C 519.253,962.181 519.586,949.848 519.5,937.5 Z"/></g>
<g><path style="opacity:0.904" fill="#1e4898" d="M 416.5,950.5 C 419.518,950.704 422.518,951.037 425.5,951.5C 424.942,957.18 424.275,962.847 423.5,968.5C 428.805,969.194 434.138,969.528 439.5,969.5C 439.5,971.833 439.5,974.167 439.5,976.5C 427.414,976.489 415.414,975.489 403.5,973.5C 403.5,970.833 403.5,968.167 403.5,965.5C 407.1,965.794 410.6,966.46 414,967.5C 415.052,961.856 415.885,956.189 416.5,950.5 Z"/></g>
<g><path style="opacity:0.922" fill="#1f4899" d="M 495.5,950.5 C 501.676,950.084 507.176,951.75 512,955.5C 515.897,967.285 511.563,973.285 499,973.5C 493.929,973.132 489.595,971.132 486,967.5C 482.97,958.365 486.137,952.698 495.5,950.5 Z M 495.5,958.5 C 492.939,960.677 492.939,962.844 495.5,965C 497.833,965.667 500.167,965.667 502.5,965C 505.825,963.386 506.158,961.386 503.5,959C 500.854,958.503 498.187,958.336 495.5,958.5 Z"/></g>
<g><path style="opacity:0.941" fill="#1e4898" d="M 488.5,975.5 C 501.853,975.309 515.187,975.642 528.5,976.5C 528.5,983.167 528.5,989.833 528.5,996.5C 525.167,996.5 521.833,996.5 518.5,996.5C 518.5,992.167 518.5,987.833 518.5,983.5C 508.5,983.5 498.5,983.5 488.5,983.5C 488.5,980.833 488.5,978.167 488.5,975.5 Z"/></g>
</svg>
