<?xml version="1.0" encoding="utf-8"?>
<!-- Generator: Adobe Illustrator 25.0.1, SVG Export Plug-In . SVG Version: 6.00 Build 0)  -->
<svg version="1.0" id="katman_1" xmlns="http://www.w3.org/2000/svg" xmlns:xlink="http://www.w3.org/1999/xlink" x="0px" y="0px"
	 viewBox="0 0 560 400" style="enable-background:new 0 0 560 400;" xml:space="preserve">
<style type="text/css">
	.st0{fill:#003380;}
</style>
<path class="st0" d="M206.4,202.4h-9v11.4h9V202.4z M167,288.7c13,17.2,35.9,13.3,35.9,13.3c2.8-24.3-7.1-32.2-7.1-32.2
	c-6.1,12.9,3.1,28.5,3.1,28.5C185.1,285.4,167,288.7,167,288.7 M190.8,155.2l-4.4-4.1c-10.6,2.7-18.2,12.1-18.2,12.1
	c5-11.9,2.3-23,0.1-28.9l-3.2-2.6c-9.2,17.4,1,36.5,1,36.5C180.1,164.8,187.3,159.2,190.8,155.2 M220.3,313.9
	c-0.5-7.5-1.8-13.1-3.5-17.5l-8.7,0c2.4,8.3,7.7,14.5,7.7,14.5c-15.9-10.2-33.1-3.9-33.1-3.9C198.4,321.7,220.3,313.9,220.3,313.9
	 M218.1,185v99h49.1c5.5,0.1,11.3,4.5,11.3,4.5v-79.2c-29.7-0.6-35.7-24.3-35.7-24.3H218.1z M241.4,245.2h-3.7v19.2H233v-19.2h-3.6
	v-4.4h12V245.2z M264.5,264.7c-1.3,0-2.9-0.4-4-1.2v-4.4c1.1,0.8,2.2,1.3,3.5,1.3c1.5,0,2.7-1,2.7-2.6c0-1.8-1.5-2.5-2.8-3.4
	c-2.7-1.8-4.3-3.6-4.3-7c0-3.7,2.2-6.9,6.1-6.9c1.5,0,2.8,0.4,4.1,1.2v4.5c-0.9-0.8-2.1-1.5-3.4-1.5c-1.5,0-2.4,0.9-2.4,2.3
	c0,3.9,7.1,4.1,7.1,10.5C271.3,261.6,268.9,264.7,264.5,264.7 M268,212.2h4.7v23.5H268V212.2z M253.3,212.2h4.7c3,0,8.3,0.3,8.3,6.7
	c0,2.6-1,4.8-3.3,6.1l4.1,10.7h-4.9l-4.1-10.9H258v10.9h-4.7L253.3,212.2L253.3,212.2z M258.2,264.4h-5l-0.9-4h-4.7l-0.8,4h-4.6
	l5.5-23.5h4.9L258.2,264.4z M252.4,212.2v4.4h-4.7v5.1h4.1v4.4h-4.1v5.3h4.8v4.4H243v-23.5l-6.5,23.5h-3.8l-6.8-23.5h5l2.8,11.3
	c0.4,1.3,0.6,2.7,0.8,4h0.1c0.3-1.4,0.3-2.7,0.7-4.1l2.8-11.2H252.4z M332,133.8l-14.7,16l0.1,25.6c0,0-0.5,4.2-1.4,6.3h9.5l27-27
	L332,133.8L332,133.8z M206.7,256.3h-9v11.4h9V256.3z M221.4,145.7l18.9,18.6v-14.4L221.4,131V145.7z M206.5,305.1
	c1.2,0,2.1-1,2.1-2.1c0-1.2-1-2.1-2.1-2.1c-1.2,0-2.1,1-2.1,2.1C204.4,304.1,205.3,305.1,206.5,305.1 M172.3,152.7
	c0,1.2,1,2.1,2.1,2.1c1.2,0,2.1-1,2.1-2.1c0-1.2-0.9-2.1-2.1-2.1S172.3,151.5,172.3,152.7 M206.6,289.5c0.1,1,0.3-0.2,0.3-0.2v-13.9
	l-2.3,2.6C205.9,281.4,206.4,286.4,206.6,289.5 M240.3,171.4v-2.9l-14-14h-32.7l18.5,16.9H240.3z M169.4,131.7c0,0-1.2-7.6,6.7-19
	h-26.9C149.3,112.6,150.4,115.8,169.4,131.7 M146.1,173.6c-4.8,21,12.9,36,12.9,36c20.4-13.5,20.1-26.1,20.1-26.1
	c-13.8,3.6-19.8,20.7-19.8,20.7C160.2,185.3,146.1,173.6,146.1,173.6 M161.9,183.3c4.2-18.5-7.7-32.4-7.7-32.4
	c-8.4,19.8,6.4,37.7,6.4,37.7c22.4-9.8,24.3-22.2,24.3-22.2C170.8,167.5,161.9,183.3,161.9,183.3 M163.8,192.1c0-1.2-1-2.1-2.1-2.1
	c-1.2,0-2.1,1-2.1,2.1c0,1.2,1,2.1,2.1,2.1C162.9,194.2,163.8,193.3,163.8,192.1 M273.2,300.4h14.1c0,0,0.9-6.1,4.9-6.1h58.5V191.4
	l-5.8-6.1v101.9h-52.4c0,0-7,0.6-12.6,7.3c0,0-4.3-6.4-13.5-7h-51.1V186.2l-6.3,6.3v101.8h57.1C266.2,294.3,273.2,294.6,273.2,300.4
	 M181.6,111.4c-14.7,15.8-6.8,37.6-6.8,37.6c24.4-1.5,30.5-12.5,30.5-12.5c-13.8-3.8-27.5,8-27.5,8
	C188,128.5,181.6,111.4,181.6,111.4 M250.5,250.4l-0.5-3.6h-0.1l-0.5,3.6l-1,6.3h3.3L250.5,250.4z M385.6,294.7
	c3.6-2.2,6.9-5.2,9.8-9.3c0,0-7.7-1-16.8,2L385.6,294.7z M400.5,201.4c0,0-6.4-17-20.3-20.2c0,0,0,12.6,20.7,25.6
	c0,0,17.3-15.4,12.1-36.3C412.9,170.4,399.1,182.5,400.5,201.4 M374.5,252c0,0-8.1,9.7-0.6,33c0,0,23.2-0.7,32.6-20.1
	c0,0-18.3,0.3-29.4,15.7C377,280.5,383,263.4,374.5,252 M399.9,222.4c0,0-3.4-17.8-16.5-23.5c0,0-2.2,12.4,16,28.8
	c0,0,19.8-12.2,18.2-33.7C417.6,194.1,401.9,203.6,399.9,222.4 M383.6,217c0,0-4.3,11.9,10.7,31.2c0,0,21.6-8.6,23.7-30
	c0,0-17.1,6.6-22.3,24.8C395.7,243,395.5,224.9,383.6,217 M397.3,233c1.2,0,2.1-1,2.1-2.2c0-1.2-1-2.1-2.1-2.1c-1.2,0-2.1,1-2.1,2.1
	C395.1,232,396.1,233,397.3,233 M384.8,269.5c0-1.2-0.9-2.1-2.1-2.1c-1.2,0-2.1,1-2.1,2.1c0,1.2,1,2.1,2.1,2.1
	C383.8,271.7,384.8,270.7,384.8,269.5 M204,142.2L204,142.2c-0.8,0.7-6.8,6.1-15.8,7.2l3.1,2.9l32.4-0.1l-10.1-10h0l-5.1-5.1
	C208.5,137,204.9,141.6,204,142.2 M329.3,247L329.3,247l-0.6,3.6l-1,6.3h3.3l-1.2-6.3L329.3,247z M261.7,218.9
	c0-1.7-0.8-3.1-3.1-2.9H258v6.3l0.8,0C260.9,222.3,261.7,220.9,261.7,218.9 M281.8,208.7v79.8c0,0,4.5-4.5,10.8-4.5h49.5v-99h-26.7
	C315.4,185,307.8,208.3,281.8,208.7 M287.7,212.3h4.7v19.2h4.9v4.4h-9.5V212.3z M302.8,264.5l-1.1-17h-0.1l-0.7,5.8l-2,11.2h-3.6
	l-2.3-11.3l-0.8-5.2v-0.4h-0.1l-0.7,17h-5l2.1-23.5h6.1l2.3,13.9h0.1l1.9-13.9h6.3l2.5,23.5H302.8z M332.6,264.5l-0.9-4H327l-0.8,4
	h-4.6L327,241h4.9l5.6,23.5H332.6z M318.4,212.3h5.2l1.3,3.3c0.4,1.2,0.9,2.4,1.1,3.6h0.1c0.3-1.2,0.6-2.4,1.1-3.6l1.4-3.3h5
	l-5,11.4l5.4,12.1h-5.4l-1.5-3.7c-0.4-1.2-0.7-2.3-1.1-3.5h-0.1c-0.3,1.2-0.6,2.3-1,3.5l-1.4,3.7h-5.2l5-12.1L318.4,212.3z
	 M319.7,241v4.4H315v5.1h4.2v4.4H315v5.3h4.8v4.4h-9.4V241H319.7z M307.7,232c2.3,0,2.3-1.7,2.3-3.5v-16.2h4.7v17.2
	c0,2.5-0.3,6.7-7,6.7c-4.3,0-6.9-2-6.9-6.4v-17.5h4.7v15.2C305.4,229.3,305.2,232,307.7,232 M218.5,128.3c0,0-2.1,3.1-10.1,4.8
	l10.1,9.4V128.3z M244.2,169.3c0,24.9,15.6,36.4,34.9,36.4c19.3,0,34.9-11.5,34.9-36.4v-71h-69.8
	C244.2,98.3,244.2,144.4,244.2,169.3 M261,119v-10.5h32.7v15h10.8v10.8h-10.5v4.8h10.5v11.7h-10.5v35.1h-9l-12.5-12.5l-11.4,11.4
	l-8.3-8.2l18.9-18.9l9.8,9.8V119L261,119z M214.4,174l8.3,7.3h18.8c-0.9-1.5-0.6-7.2-0.6-7.2L214.4,174z M365.6,267.9
	c0,0-1.5,1.6-2,4l4.5,4.7C367.9,273.7,367.1,270.7,365.6,267.9 M187.9,287.1c7-23.5-1.4-32.9-1.4-32.9c-8.3,11.6-1.9,28.6-1.9,28.6
	c-11.5-15.1-29.8-15-29.8-15C164.7,287,187.9,287.1,187.9,287.1 M186.7,131.6c24.3,2.8,32.2-7.1,32.2-7.1
	c-12.9-6.1-28.5,3.1-28.5,3.1c12.9-13.9,9.6-31.9,9.6-31.9C182.8,108.8,186.7,131.6,186.7,131.6 M237.6,303.6
	c1.2,14.2,16.9,23.1,16.9,23.1c-18.4-4.2-32.4,7.7-32.4,7.7c19.9,8.4,37.7-6.4,37.7-6.4C250.1,305.5,237.6,303.6,237.6,303.6
	 M175.7,269.9c10.9-21.9,4.4-32.6,4.4-32.6c-10.2,10-6.8,27.8-6.8,27.8c-8.7-16.8-26.7-19.9-26.7-19.9
	C152.8,265.8,175.7,269.9,175.7,269.9 M224.7,296.5l-3,0c-0.2,13.5,12.8,24,12.8,24c-17.5-7.3-33.3,1.9-33.3,1.9
	c18.1,11.7,38.3,0.2,38.3,0.2C235.5,306.3,228.6,299.3,224.7,296.5 M179.7,306.6c0,0,3.3-2,8.2-2.7l-5.4-1.3l-0.5,0.7
	c0.3-0.4,0.5-0.7,0.5-0.7l-23.8,25c0,0-2.7,3.9-0.1,6.5c0,0,2.4,2,5.7-0.3l23.1-20.2C185.1,312.4,180,308.1,179.7,306.6
	 M166.6,250.9c14.6-19.7,10-31.4,10-31.4c-11.7,8.1-11.5,26.2-11.5,26.2c-5.6-18.1-22.9-24.3-22.9-24.3
	C144.8,242.9,166.6,250.9,166.6,250.9 M178.8,110.1L150.7,82c0,0-11.8,8.4-2.6,28.1H178.8z M191.5,99.9L175,83.1
	c-10.2-10.2-22.4-3.5-22.4-3.5l32.6,32.4C187.4,103.8,191.5,99.9,191.5,99.9 M161.1,233.5c0,1.2,1,2.1,2.1,2.1c1.2,0,2.1-1,2.1-2.1
	c0-1.2-0.9-2.1-2.1-2.1C162,231.4,161.1,232.4,161.1,233.5 M161,230.6c17.7-16.9,15.3-29.2,15.3-29.2c-13,5.9-15.9,23.8-15.9,23.8
	c-2.4-18.8-18.3-27.9-18.3-27.9C141,218.9,161,230.6,161,230.6 M176.6,272c0,1.2,1,2.1,2.1,2.1c1.2,0,2.1-1,2.1-2.1
	c0-1.2-1-2.1-2.1-2.1C177.6,269.9,176.6,270.8,176.6,272 M355.6,303.2c1.2,0,2.1-1,2.1-2.1c0-1.2-1-2.1-2.1-2.1
	c-1.2,0-2.1,1-2.1,2.1C353.4,302.3,354.4,303.2,355.6,303.2 M366.9,300.4l-7.5-6.1c0.2,1.9,0.4,3.9,0.8,6.1
	C360.2,300.4,362.9,300.7,366.9,300.4 M388,262.6c0,0,2.9-17.9-7.5-27.7c0,0-6.3,10.9,5.1,32.5c0,0,22.7-4.7,28.6-25.4
	C414.3,242.1,396.3,245.6,388,262.6 M245.3,322.3c0-1.2-1-2.1-2.1-2.1c-1.2,0-2.1,1-2.1,2.1c0,1.2,1,2.1,2.1,2.1
	C244.4,324.4,245.3,323.5,245.3,322.3 M346.6,309.4c0,0,4.6-5.6,6.9-13.4l-8.7-0.1c-1.4,4.3-2.4,9.7-2.7,16.6c0,0,18.8,6.2,33.8-4.7
	l-5.8-4.7C363.7,302.8,354.9,303.7,346.6,309.4 M352.9,274.7v11.4l51,42.3h10.2l-51.9-53.7H352.9z M278.2,323.9v5.3
	c-2.5-3.9-12.1-17.9-22.9-18.6c0,0,3.7,12.6,20,20c0,0-20.4,1.3-28.7,12.5c0,0,17.8,1.6,31.7-12.2v8.7h5.4v-15.6H278.2z
	 M287.2,330.5c16.2-7.5,19.8-20.1,19.8-20.1c-12.6,0.9-23.4,19.8-23.4,19.8c14.1,14.4,32.4,12.6,32.4,12.6
	C307.6,331.7,287.2,330.5,287.2,330.5 M308.1,326.1c0,0,15.6-9.3,16.4-23.5c0,0-12.4,2.2-21.6,24.9c0,0,18.2,14.4,37.8,5.6
	C340.7,333,326.5,321.5,308.1,326.1 M328.1,319.4c0,0,12.1-10.4,12.2-23.4l-4.3,0.2c-3.9,3.4-9.6,10.7-12.8,25.5
	c0,0,20.4,11,38.2-1.1C361.4,320.6,345.3,311.7,328.1,319.4 M317.3,321.5c0,1.2,1,2.1,2.1,2.1c1.2,0,2.1-1,2.1-2.1
	c0-1.2-1-2.1-2.1-2.1C318.3,319.3,317.3,320.3,317.3,321.5 M392.9,165.5c0,0,11-20.4-1.1-38.2c0,0-8.9,16-1.2,33.3
	c0,0-11.8-13.7-26-12.1C364.7,148.5,369,160.4,392.9,165.5 M341,117.8l6.5-6.7c-5.5-1.3-15.9-3.1-24.2,3.1
	C323.3,114.2,327.6,119.1,341,117.8 M384.1,152.4c1.2,0,2.1-1,2.1-2.1c0-1.2-1-2.1-2.1-2.1c-1.2,0-2.1,1-2.1,2.1
	C382,151.4,382.9,152.4,384.1,152.4 M398.7,185.8c0,0,14.4-18.2,5.6-37.9c0,0-11.5,14.3-6.9,32.6c0,0-9.2-15.6-23.5-16.4
	C373.9,164.1,376.1,176.5,398.7,185.8 M367.6,83.3c6.7,3.3,12.2-0.2,12.2-0.2c7.5-3.7,12.9,1.4,12.9,1.4c5.2,4.1,4.4,9.5,4.4,9.5
	c0,4.1-1.2,4.4-1.2,4.4c-2.5,1.7-1.9-1.2-1.9-1.2c0.1,0,0.6-2,0.6-2c1-9.3-7.4-10.7-7.4-10.7c-8.9-1.6-11.1,6.6-11.1,6.6
	c-0.6,2.3-0.6,4.3-0.4,6l-11.1-11.1l0.5,9.4l24.8,24.8h8.9l-9-9c4.7,1.5,8.9,1.6,8.9,1.6c12.6-0.8,14-12.9,14-12.9
	c3.3-12.6-8.6-22.8-8.6-22.8c-8-6.9-20.1-7.4-20.1-7.4c-17.2-2-23.3-13-23.3-13c-2,5-1.5,12.4-1.5,12.4
	C360.3,80.6,367.6,83.3,367.6,83.3 M395.7,189.3c0,1.2,1,2.1,2.1,2.1c1.2,0,2.1-1,2.1-2.1c0-1.2-1-2.1-2.1-2.1
	C396.6,187.1,395.7,188.1,395.7,189.3 M348.8,109.4l5.2-5.3c-2.2-7.5-6.7-16.5-17.9-21.9C336.2,82.2,335.7,98.2,348.8,109.4
	 M361.9,257.3h-9v11.4h9V257.3z M368.9,144.3c4,1.1,8.9,2,14.8,2.2c0,0,2.7-8.1,1.5-17.9l-7.8,7.5c0.8,2,1.9,4,3.2,5.9
	c0,0-2.2-1.8-5.6-3.7L368.9,144.3z M197.8,120c0,1.2,1,2.1,2.1,2.1c1.2,0,2.1-1,2.1-2.1c0-1.2-1-2.1-2.1-2.1
	C198.8,117.8,197.8,118.8,197.8,120 M386.2,122.6l-23.1-23.1l-20.7,22.5l22.2,21.9L386.2,122.6z M337.1,123.3l-4.7,5.6l25.2,25.2
	l5.1-5.1L337.1,123.3z M361.5,201.5h-9v11.4h9V201.5z M253.6,92.6c0,0,7.1,4.7,19.5-3.9C273.1,88.7,257.7,82.4,253.6,92.6
	 M333.9,100.7c0,0-7-2.1-15.8,0.9l0,8.1c5.4-0.1,10.8-1.4,20.7-6.6c0,0-4.7-22.7-25.4-28.6C313.3,74.4,316.8,92.4,333.9,100.7
	 M240.9,110.7l0.2-7.8c-8.7-2.6-17.6-0.9-17.6-0.9c16.8-8.7,19.9-26.7,19.9-26.7c-20.6,6.3-24.7,29.2-24.7,29.2
	C228.2,109.1,235.6,110.6,240.9,110.7 M234.5,115.2c-11.6-8.3-28.6-1.9-28.6-1.9c15.1-11.5,15-29.8,15-29.8
	c-19.2,9.8-19.3,33-19.3,33C225,123.6,234.5,115.2,234.5,115.2 M233.1,98c0,1.2,1,2.1,2.1,2.1c1.2,0,2.1-1,2.1-2.1
	c0-1.2-1-2.1-2.1-2.1C234.1,95.9,233.1,96.8,233.1,98 M238.3,95.8l16.1-0.2c-5-3-10.5-2.9-10.5-2.9c18.1-5.6,23.2-21.7,23.2-21.7
	c-21.4,2.7-29.4,24.4-29.4,24.4C238,95.6,238,95.6,238.3,95.8 M324.5,96.9c0-1.2-0.9-2.1-2.1-2.1c-1.2,0-2.1,1-2.1,2.1
	c0,1.2,1,2.1,2.1,2.1C323.5,99,324.5,98,324.5,96.9 M313.2,92.6c0,0-5.5-0.1-10.5,2.9l16.1,0.2c0.3-0.2,0.3-0.2,0.6-0.4
	c0,0-8-21.8-29.4-24.4C289.9,70.9,295.1,87,313.2,92.6 M278.5,90.2c1.6,0,2.9-1.3,2.9-2.9c0-1.6-1.3-2.9-2.9-2.9
	c-1.6,0-2.9,1.3-2.9,2.9C275.6,88.9,276.9,90.2,278.5,90.2 M303.5,91.6c-4.5-10.1-19.7-3.1-19.7-3.1
	C296.6,96.6,303.5,91.6,303.5,91.6"/>
</svg>
